<?xml version="1.0" encoding="UTF-8" standalone="no"?>
<!-- Created with Inkscape (http://www.inkscape.org/) -->

<svg
   version="1.1"
   id="svg431"
   width="384.36826"
   height="241.24278"
   viewBox="0 0 384.36825 241.24278"
   sodipodi:docname="kittenlab-3.pdf"
   xmlns:inkscape="http://www.inkscape.org/namespaces/inkscape"
   xmlns:sodipodi="http://sodipodi.sourceforge.net/DTD/sodipodi-0.dtd"
   xmlns="http://www.w3.org/2000/svg"
   xmlns:svg="http://www.w3.org/2000/svg">
  <defs
     id="defs435" />
  <sodipodi:namedview
     id="namedview433"
     pagecolor="#ffffff"
     bordercolor="#000000"
     borderopacity="0.25"
     inkscape:showpageshadow="2"
     inkscape:pageopacity="0.0"
     inkscape:pagecheckerboard="0"
     inkscape:deskcolor="#d1d1d1"
     showgrid="false" />
  <g
     id="g439"
     inkscape:groupmode="layer"
     inkscape:label="Page 1"
     transform="matrix(1.3333333,0,0,-1.3333333,-126.22601,729.81971)">
    <g
       id="g459"
       transform="translate(0,-6.9541124e-5)">
      <g
         id="g461">
        <g
           id="g463">
          <path
             d="m 308.29959,366.50198 c 0,0 0,0 0,0 2.57016,0.21082 5.14801,0.34281 7.71048,0.63245 1.74649,0.19742 3.46057,0.63409 5.20749,0.82776 0.13327,0.0148 0.20969,-0.23718 0.34149,-0.21259 1.21182,0.22635 2.37055,0.68512 3.57578,0.94422 1.15655,0.24859 2.35373,0.29138 3.50161,0.57724 1.25098,0.31149 2.45551,0.78723 3.67359,1.20947 1.16891,0.40524 2.35861,0.76422 3.48648,1.27261 1.15781,0.52191 2.21518,1.24494 3.35242,1.81021 0.92541,0.45997 1.9281,0.76096 2.83117,1.26331 0.77249,0.42969 1.41217,1.06989 2.17285,1.52014 0.53995,0.31964 1.17774,0.45288 1.71317,0.78006 1.37094,0.8378 2.62671,1.85388 3.98953,2.70481 1.17029,0.73071 2.44519,1.28671 3.60352,2.03625 0.64374,0.41656 1.14016,1.03607 1.78515,1.45071 0.84119,0.54078 1.80866,0.86509 2.65229,1.40201 0.32766,0.20856 0.51806,0.58716 0.83218,0.81558 0.85327,0.62049 1.80298,1.10056 2.65622,1.7211 0.31354,0.22803 0.52017,0.58188 0.83032,0.81449 0.53928,0.40448 1.19766,0.64358 1.70523,1.08722 1.16129,1.01498 2.14325,2.22091 3.27658,3.26706 0.24491,0.22604 0.58753,0.32324 0.84381,0.53634 0.35556,0.29563 0.68531,0.62531 0.98093,0.9809 0.21307,0.25625 0.32816,0.58356 0.53632,0.84381 0.21722,0.27167 0.53219,0.45877 0.73269,0.74298 0.30414,0.43118 0.47516,0.94522 0.76783,1.38425 0.34283,0.51434 0.82614,0.93133 1.1333,1.46774 0.54696,0.9552 0.87591,2.02405 1.41555,2.98343 0.41419,0.73633 1.02997,1.34744 1.43696,2.08777 1.02163,1.85837 1.94863,3.76874 2.84039,5.69281 0.27923,0.60248 0.48321,1.23895 0.66791,1.8768 0.66461,2.2952 1.33233,4.5917 1.87869,6.91788 0.61117,2.60205 1.17679,5.21856 1.59204,7.85894 0.39944,2.53995 0.71942,5.09867 0.84952,7.66648 0.15497,3.0592 0.0155,6.12628 0.004,9.18939 -10e-4,0.32388 0.008,0.65054 -0.041,0.97073 -0.33286,2.19245 -0.61271,4.39789 -1.10233,6.5607 -0.93957,4.15024 -2.02716,8.26728 -3.18179,12.36289 -0.54392,1.92935 -1.193,3.83041 -1.91101,5.70196 -1.04532,2.72467 -2.30347,5.36377 -3.37567,8.07797 -0.5131,1.2988 -0.87348,2.65418 -1.37827,3.95624 -0.56985,1.46997 -1.1575,2.93613 -1.84387,4.35538 -0.69269,1.43234 -1.42981,2.84927 -2.28824,4.18881 -0.29022,0.45288 -0.81003,0.71897 -1.13269,1.14932 -1.26376,1.68564 -2.32337,3.52005 -3.61557,5.18399 -0.19043,0.24524 -0.56195,0.28205 -0.79163,0.49106 -0.9497,0.86444 -1.74655,1.89295 -2.73211,2.71628 -1.62198,1.35504 -3.32004,2.6228 -5.07267,3.80402 -0.82962,0.55914 -1.78418,0.90735 -2.65326,1.40295 -0.60668,0.34598 -1.15402,0.79224 -1.77081,1.11994 -0.48154,0.25579 -0.99328,0.45623 -1.51205,0.62417 -1.5354,0.49695 -3.07233,1.00235 -4.64408,1.36838 -1.54223,0.35916 -3.13073,0.48584 -4.68206,0.80353 -0.17374,0.0356 -0.29276,0.23092 -0.46894,0.25131 -0.59668,0.069 -1.22921,0.1925 -1.80194,0.0114 -0.29291,-0.0926 -0.40747,-0.47085 -0.53515,-0.75024 -0.0287,-0.0628 0.0479,-0.15051 0.11294,-0.17365 1.24655,-0.44308 2.49405,-0.89889 3.77988,-1.21002 0.1257,-0.0304 0.19488,0.18924 0.32101,0.21784 0.215,0.0487 0.44553,0.0499 0.66132,0.005 1.03808,-0.21686 2.06436,-0.49048 3.08255,-0.78687 1.40182,-0.40805 2.83725,-0.73977 4.17456,-1.32559 1.83441,-0.80359 3.57455,-1.81274 5.30209,-2.8258 0.78443,-0.46003 1.51569,-1.01032 2.2201,-1.58539 1.05441,-0.86078 2.00338,-1.84482 3.04904,-2.71622 0.22537,-0.1878 0.53738,-0.25589 0.75442,-0.45328 0.89484,-0.81366 1.80606,-1.62448 2.56568,-2.56564 0.99383,-1.23142 1.73614,-2.64789 2.67193,-3.92398 0.22928,-0.31265 0.57492,-0.52548 0.81452,-0.83029 0.55819,-0.71012 1.11212,-1.42963 1.57266,-2.20667 0.59076,-0.99667 1.0907,-2.04611 1.57254,-3.09976 0.57077,-1.24808 1.09204,-2.5191 1.5831,-3.80063 0.50937,-1.32934 0.89291,-2.70523 1.4169,-4.0289 1.07422,-2.71359 2.35696,-5.3436 3.37598,-8.0784 0.85156,-2.28537 1.56619,-4.62167 2.23059,-6.96826 0.44345,-1.56625 0.69369,-3.18143 1.09014,-4.76022 0.45124,-1.79709 1.00846,-3.56659 1.4524,-5.36545 0.40863,-1.65595 1.00039,-3.29379 1.10464,-4.99622 0.27805,-4.54031 0.22498,-9.10147 0.037,-13.64639 -0.0994,-2.40448 -0.49423,-4.79111 -0.89767,-7.16357 -0.40116,-2.35932 -0.92704,-4.69803 -1.5138,-7.01819 -0.67386,-2.6644 -1.3392,-5.34009 -2.26605,-7.92737 -0.543,-1.51584 -1.35114,-2.92603 -2.12732,-4.3367 -0.65411,-1.18887 -1.49463,-2.26807 -2.15796,-3.45181 -0.41888,-0.74753 -0.68784,-1.57108 -1.08273,-2.33155 -0.28421,-0.54733 -0.6016,-1.07895 -0.95188,-1.58651 -0.1358,-0.19678 -0.35876,-0.32163 -0.49878,-0.51542 -0.41824,-0.57891 -0.71408,-1.24517 -1.17022,-1.7947 -0.5557,-0.66947 -1.1962,-1.26703 -1.84879,-1.84244 -0.21744,-0.19171 -0.54159,-0.241 -0.74658,-0.44599 -0.21957,-0.21957 -0.28314,-0.56097 -0.49106,-0.79162 -0.7103,-0.78797 -1.4346,-1.57236 -2.25085,-2.24997 -0.40595,-0.33704 -0.95749,-0.45749 -1.38419,-0.76785 -0.74048,-0.53852 -1.36178,-1.22928 -2.10223,-1.7678 -0.42673,-0.31033 -0.95493,-0.46112 -1.38428,-0.76782 -0.3161,-0.22583 -0.50916,-0.60019 -0.83237,-0.8157 -0.9523,-0.63495 -2.01062,-1.09876 -2.97159,-1.72052 -0.83813,-0.54227 -1.57412,-1.23365 -2.41815,-1.7667 -1.16668,-0.73687 -2.43725,-1.29989 -3.60397,-2.03674 -0.84393,-0.53302 -1.56622,-1.24606 -2.41797,-1.76654 -1.05502,-0.64471 -2.23315,-1.0722 -3.28665,-1.71942 -0.32654,-0.20059 -0.48233,-0.62589 -0.82144,-0.80444 -1.47882,-0.7786 -3.08884,-1.28525 -4.5802,-2.03952 -0.6612,-0.33445 -1.18808,-0.90482 -1.85977,-1.21769 -1.25879,-0.58633 -2.5868,-1.01297 -3.89978,-1.46505 -1.01868,-0.35077 -2.04108,-0.70365 -3.09165,-0.94236 -1.63092,-0.37051 -3.30035,-0.54858 -4.93921,-0.88217 -0.48822,-0.0994 -0.94555,-0.32663 -1.43579,-0.41549 -1.93817,-0.35135 -3.88309,-0.67719 -5.83981,-0.90351 -2.40302,-0.27792 -4.81638,-0.47134 -7.23151,-0.60837 -1.15921,-0.0658 -2.32455,-0.0745 -3.48318,4.3e-4 -0.22638,0.0146 -0.40415,0.2215 -0.62674,0.26526 -0.31409,0.0617 -0.6391,0.0466 -0.9592,0.0466 -0.2146,0 -0.43369,0.005 -0.64209,-0.0466 -0.22031,-0.0541 -0.40155,-0.23816 -0.62677,-0.26526 -0.52338,-0.063 -1.05612,-0.0446 -1.58142,-4.3e-4 -1.87784,0.15781 -3.75125,0.36939 -5.62082,0.60563 -1.388,0.17535 -2.77817,0.35299 -4.14972,0.62887 -0.82523,0.16602 -1.60773,0.50491 -2.42789,0.69428 -1.03116,0.23806 -2.09976,0.306 -3.12018,0.58654 -1.12844,0.31028 -2.21597,0.7558 -3.30651,1.18049 -0.74402,0.28976 -1.48697,0.59042 -2.19388,0.96163 -0.61954,0.32532 -1.14838,0.80915 -1.77426,1.12211 -0.85868,0.42935 -1.82883,0.62173 -2.66315,1.09664 -1.86038,1.059 -3.66492,2.22361 -5.39191,3.48853 -0.6744,0.49393 -1.15262,1.21423 -1.78116,1.76535 -0.25061,0.21973 -0.59973,0.30942 -0.84384,0.53632 -1.18441,1.10092 -2.35083,2.22662 -3.42709,3.4335 -0.64194,0.71988 -1.06863,1.6145 -1.7139,2.33142 -0.31528,0.35031 -0.83694,0.4761 -1.1387,0.83813 -0.76929,0.92292 -1.32758,2.00412 -2.03806,2.97309 -0.45294,0.61767 -1.02453,1.14581 -1.44946,1.78308 -0.42389,0.63571 -0.67563,1.37408 -1.08554,2.01889 -1.06631,1.67728 -2.3098,3.23978 -3.33862,4.94031 -0.43167,0.71353 -0.65058,1.53732 -1.0297,2.28009 -0.28317,0.55478 -0.66714,1.0538 -0.95414,1.60659 -1.08858,2.09675 -2.14692,4.20951 -3.17078,6.3386 -0.43665,0.90802 -0.8569,1.82623 -1.20949,2.77008 -0.56499,1.51242 -1.10238,3.03808 -1.54075,4.59192 -0.50895,1.80401 -0.90577,3.63846 -1.29828,5.47128 -0.34661,1.61841 -0.68471,3.24109 -0.91846,4.87961 -0.47476,3.32767 -0.97226,6.65851 -1.20607,10.01175 -0.16891,2.42264 -0.14328,4.86126 0,7.28558 0.14001,2.36865 0.52969,4.71634 0.84836,7.06763 0.38374,2.83133 0.80064,5.65848 1.2587,8.47876 0.16783,1.03335 0.35246,2.06665 0.61846,3.07919 0.47449,1.80612 0.95403,3.61682 1.60088,5.36862 0.65024,1.76102 1.56355,3.41437 2.28252,5.14847 0.0692,0.16681 -0.0342,0.39246 0.0745,0.53662 0.18538,0.24579 0.47307,0.40079 0.7435,0.54791 0.099,0.0538 0.2231,0.0386 0.3358,0.0393 2.11202,0.0124 4.22545,0.0751 6.33617,-2.1e-4 0.22714,-0.008 0.40768,-0.24851 0.63501,-0.24851 0.22729,0 0.40869,0.2272 0.63495,0.24851 0.53186,0.05 1.07956,0.0729 1.60214,-0.0379 0.36468,-0.0773 1.12655,-0.16397 0.99402,-0.51239 -0.21433,-0.5635 -1.0455,-0.60257 -1.54599,-0.93875 -0.0889,-0.0597 -0.1684,-0.14383 -0.21149,-0.24188 -0.0438,-0.0996 -0.0521,-0.21655 -0.0374,-0.3244 0.0202,-0.14795 0.002,-0.36685 0.13964,-0.42569 0.29401,-0.12601 0.64124,-0.0854 0.95856,-0.045 0.22522,0.0287 0.40845,0.22564 0.6344,0.24804 0.0983,0.01 0.17227,-0.22244 0.24902,-0.16037 0.43763,0.35391 0.70316,0.88486 1.11762,1.2656 0.24542,0.22546 0.58356,0.32812 0.84381,0.53631 0.27103,0.2168 0.46396,0.5224 0.74094,0.73151 0.41613,0.31412 0.82519,0.97296 1.32629,0.8291 0.48978,-0.14062 0.36914,-0.9555 0.63272,-1.39157 0.2897,-0.47922 0.9314,-0.78381 1.01682,-1.33725 0.75644,-4.90076 0.84909,-9.88391 1.47445,-14.8031 0.25147,-1.97803 0.68702,-3.93097 1.15363,-5.86954 0.67474,-2.80331 1.46512,-5.57818 2.26831,-8.34744 0.14862,-0.51236 0.35745,-1.00717 0.58484,-1.48975 0.42935,-0.9111 1.00168,-1.7543 1.38309,-2.68649 0.0571,-0.13959 0.002,-0.33331 -0.10367,-0.44043 -0.0786,-0.0793 -0.2367,-0.0553 -0.33493,-0.002 -0.41516,0.22434 -0.8031,0.50263 -1.16083,0.81043 -0.52039,0.44775 -0.94043,1.00461 -1.46423,1.44836 -0.24762,0.20978 -0.51957,0.42548 -0.83545,0.49988 -0.26328,0.062 -0.55161,-0.0151 -0.80338,-0.11389 -0.12863,-0.0505 -0.23764,-0.17667 -0.27585,-0.30948 -0.0598,-0.20813 -0.14996,-0.49356 9e-5,-0.64969 0.43628,-0.45386 1.10483,-0.61612 1.59562,-1.01035 0.53643,-0.4309 0.9252,-1.02838 1.46835,-1.4508 0.4165,-0.32395 0.94519,-0.47516 1.38422,-0.76785 0.20095,-0.13401 0.30596,-0.39429 0.52172,-0.50287 0.6489,-0.32657 1.37107,-0.48551 2.03373,-0.78318 0.10489,-0.0471 0.18728,-0.1427 0.24658,-0.24121 0.41464,-0.68853 0.70898,-1.44979 1.16873,-2.10907 0.52322,-0.7503 1.24188,-1.35067 1.76645,-2.10003 0.95767,-1.36817 1.7312,-2.85819 2.67074,-4.23886 0.30832,-0.4531 0.67981,-0.86289 1.06577,-1.25193 0.31104,-0.31353 0.73297,-0.51074 1.01779,-0.84826 0.52918,-0.62723 0.87912,-1.39148 1.40412,-2.02225 0.50711,-0.60925 1.09561,-1.14749 1.67993,-1.68314 0.0979,-0.0897 0.2605,-0.088 0.35461,-0.18176 0.21008,-0.20923 0.31821,-0.50958 0.53864,-0.70792 0.24524,-0.22061 0.58279,-0.31808 0.8363,-0.52914 0.38214,-0.31815 0.66092,-0.75293 1.05994,-1.04962 0.4234,-0.31485 0.96212,-0.4512 1.38418,-0.76782 0.43027,-0.32279 0.73749,-0.78669 1.14933,-1.13269 0.28747,-0.24149 0.60409,-0.45234 0.93911,-0.62183 0.72101,-0.36478 1.45981,-0.69913 2.219,-0.97589 1.4284,-0.52069 2.90835,-0.89215 4.33645,-1.41376 0.49259,-0.1799 1.03153,-0.32959 1.41532,-0.68695 0.156,-0.14523 0.19436,-0.53384 0.009,-0.63937 -0.99099,-0.56464 -2.22357,-0.61209 -3.21011,-1.18445 -0.65964,-0.38272 -1.11615,-1.04331 -1.61856,-1.61707 -0.21958,-0.25073 -0.3284,-0.5834 -0.53635,-0.84381 -0.21329,-0.26712 -0.55258,-0.432 -0.72027,-0.72983 -0.49985,-0.88772 -0.90149,-1.83099 -1.25888,-2.785 -0.34336,-0.9165 -0.72147,-1.84213 -0.83863,-2.81381 -0.17773,-1.47418 -0.14886,-2.97373 -0.0377,-4.45441 0.0667,-0.8876 0.33435,-1.75027 0.56815,-2.60913 0.16193,-0.59466 0.33438,-1.19525 0.61673,-1.7431 0.34662,-0.67258 0.79135,-1.29364 1.25607,-1.89075 0.28079,-0.36081 0.58005,-0.73108 0.97003,-0.96966 0.66541,-0.40705 1.41761,-0.65375 2.14481,-0.93592 0.59296,-0.23004 1.19437,-0.44546 1.81152,-0.59921 1.30869,-0.32602 3.47553,0.42117 3.95832,-0.83817 0.54162,-1.41272 -1.5441,-2.6177 -2.09284,-4.02767 -0.0853,-0.21927 0.1388,-0.45734 0.27182,-0.65143 0.11896,-0.17353 0.28052,-0.3266 0.46628,-0.42533 0.0981,-0.0521 0.22845,-0.0362 0.3334,3.4e-4 0.0948,0.033 0.18375,0.10593 0.22907,0.19553 0.58917,1.16516 1.06079,2.38793 1.66305,3.54638 0.19422,0.37354 0.32523,0.89173 0.72016,1.03766 1.36395,0.50397 2.87686,0.45343 4.28607,0.81207 0.30136,0.0767 0.5144,0.3562 0.79883,0.48191 0.66253,0.29281 1.39215,0.43039 2.03229,0.76941 0.27227,0.14422 0.471,0.40536 0.65399,0.65325 0.40039,0.54236 0.69598,1.15635 1.08722,1.7053 0.13528,0.18982 0.384,0.29303 0.48629,0.50244 0.38382,0.7858 0.68543,1.61181 0.95307,2.44439 0.2337,0.72706 0.41513,1.4726 0.54791,2.22471 0.0372,0.21057 0.0153,0.43411 -0.0422,0.64004 -0.0333,0.11951 -0.22425,0.17609 -0.22013,0.30008 0.0111,0.33173 0.23306,0.63001 0.26221,0.96063 0.047,0.53253 0.0422,1.07459 -0.0361,1.60343 -0.19846,1.33938 -0.44889,2.67419 -0.79178,3.98404 -0.14771,0.56427 -0.39289,1.10373 -0.67383,1.61486 -0.23761,0.43229 -0.54111,0.82966 -0.87119,1.19623 -0.62948,0.69904 -1.29589,1.3671 -1.99938,1.99158 -0.21677,0.19241 -0.5416,0.24103 -0.74656,0.44598 -0.2196,0.21958 -0.29269,0.55277 -0.49109,0.79163 -0.29541,0.35574 -0.62603,0.68451 -0.98089,0.98099 -0.29349,0.24518 -0.61777,0.45535 -0.95474,0.63611 -0.56464,0.30291 -1.31754,0.33169 -1.74286,0.81091 -0.48059,0.54156 -0.46875,1.37326 -0.77698,2.02841 -0.15851,0.33688 -0.37643,0.6467 -0.61578,0.93185 -0.26035,0.31022 -0.49106,0.7129 -0.87436,0.84351 -0.50528,0.17212 -1.10807,0.20389 -1.60138,0 -0.50754,-0.20975 -0.85758,-0.70514 -1.18018,-1.14957 -0.35406,-0.48773 -0.22043,-1.6235 -0.82297,-1.60992 -1.92657,0.0435 -3.70629,1.07211 -5.50915,1.75281 -0.88181,0.33291 -1.70828,0.80313 -2.5217,1.27932 -0.2063,0.12079 -0.31949,0.36158 -0.51532,0.49866 -0.86432,0.60495 -1.84567,1.04569 -2.65616,1.7211 -1.10135,0.91776 -1.99279,2.06397 -3.0491,3.03324 -0.22876,0.20993 -0.58975,0.25506 -0.79156,0.49102 -0.43586,0.50971 -0.64686,1.18549 -1.07999,1.69754 -0.73334,0.86695 -1.71228,1.51389 -2.40048,2.41712 -1.01209,1.3284 -1.72461,2.8627 -2.67075,4.23886 -0.21966,0.31946 -0.5795,0.52194 -0.81448,0.83029 -0.4621,0.60645 -0.86756,1.25482 -1.26853,1.90329 -0.29443,0.47614 -0.72552,0.91541 -0.81613,1.46787 -0.19003,1.1589 -0.15747,2.3591 -0.002,3.52322 0.24127,1.81021 0.83322,3.55694 1.18479,5.34903 0.0424,0.21643 0.0751,0.45639 -0.006,0.66165 -0.0725,0.18427 -0.23459,0.3504 -0.41992,0.42011 -0.24542,0.0923 -0.70679,0.28344 -0.78595,0.0334 -0.75696,-2.39074 -0.98334,-4.91861 -1.5354,-7.36484 -0.0152,-0.0672 -0.12256,-0.19412 -0.15701,-0.13443 -0.78949,1.36823 -1.64686,2.71924 -2.19031,4.20249 -0.96597,2.63629 -1.6106,5.38077 -2.31674,8.0982 -0.36451,1.40265 -0.66809,2.82328 -0.89331,4.25492 -0.38974,2.47741 -0.65659,4.97278 -0.95011,7.46341 -0.30389,2.57834 -0.59677,5.15829 -0.8421,7.74286 -0.0263,0.27633 -0.10736,0.58999 0.0281,0.83224 0.14996,0.26822 0.46765,0.40903 0.74261,0.54617 0.10245,0.0511 0.24469,0.0534 0.34345,-0.005 0.21966,-0.12888 0.39865,-0.32364 0.55654,-0.52344 0.18189,-0.23019 0.26236,-0.53168 0.45328,-0.75446 0.44681,-0.52124 1.00165,-0.94293 1.44843,-1.4642 0.19095,-0.22275 0.26031,-0.53345 0.45328,-0.75442 0.52044,-0.59601 1.08288,-1.15705 1.67456,-1.68238 0.307,-0.27261 0.70169,-0.43338 1.01165,-0.70266 0.51822,-0.45026 0.94367,-1.00083 1.46421,-1.44843 0.25271,-0.21731 0.58783,-0.32297 0.84387,-0.53635 0.38135,-0.31784 0.66666,-0.74267 1.05777,-1.04843 0.59585,-0.46579 1.23566,-0.876 1.88977,-1.2557 0.34412,-0.19977 0.75372,-0.27112 1.09448,-0.4766 0.2002,-0.12072 0.30585,-0.36374 0.50421,-0.48739 0.64838,-0.40424 1.36368,-0.69245 2.01889,-1.08554 0.40305,-0.24183 0.74207,-0.58255 1.15015,-0.81574 1.07367,-0.61355 2.21161,-1.10953 3.28711,-1.71988 0.86661,-0.49179 1.7081,-1.0282 2.535,-1.58413 0.33136,-0.22281 0.67179,-0.44855 0.935,-0.74881 0.4935,-0.56296 0.90823,-1.19211 1.3165,-1.81962 0.2879,-0.44244 0.47552,-0.94552 0.76834,-1.38473 0.13351,-0.20026 0.38336,-0.30988 0.5014,-0.51965 0.83737,-1.48856 1.50528,-3.06876 2.35172,-4.55219 0.41867,-0.73373 1.00158,-1.36362 1.43695,-2.08755 0.20508,-0.34101 0.26309,-0.75873 0.47665,-1.09449 0.13385,-0.21048 0.32022,-0.40496 0.54532,-0.51236 0.12805,-0.0611 0.29569,-0.0128 0.42264,0.0505 0.24622,0.1228 0.54343,0.24353 0.66336,0.49115 0.12247,0.25284 0.0686,0.57517 -0.0174,0.84262 -0.0362,0.11252 -0.22784,0.0877 -0.30935,0.17331 -0.25348,0.26618 -0.47626,0.56198 -0.6814,0.86701 -0.57452,0.8543 -1.15344,1.70864 -1.6553,2.6076 -0.71866,1.28735 -1.47214,2.56824 -2.0022,3.94403 -0.0542,0.14084 0.29489,0.17124 0.43668,0.11954 0.52539,-0.19156 1.00082,-0.50504 1.46713,-0.81372 0.20001,-0.13239 0.3193,-0.36487 0.51749,-0.49994 0.81836,-0.5578 1.66247,-1.07868 2.52151,-1.5715 0.37369,-0.21436 0.80216,-0.32441 1.17108,-0.54688 0.17056,-0.10284 0.25821,-0.31271 0.42777,-0.41727 2.32486,-1.43365 4.63351,-2.90152 7.04229,-4.1892 1.4448,-0.77234 3.01597,-1.28251 4.4983,-1.98011 0.49899,-0.23483 0.92569,-0.6156 1.44003,-0.81457 2.34555,-0.90735 4.67578,-1.90348 7.11975,-2.49668 3.45993,-0.83978 7.00684,-1.27758 10.53052,-1.78735 0.13336,-0.0193 0.21042,0.24014 0.34265,0.21442 3.17764,-0.61853 6.30365,-1.48221 9.47632,-2.12561 0.31976,-0.0648 0.65686,-0.0476 0.97879,0.005 0.12216,0.0201 0.1849,0.20596 0.30871,0.20654 0.12311,6.1e-4 0.18509,-0.20352 0.3082,-0.20352 0.2247,0 0.41791,0.20422 0.64261,0.20352 0.12381,-3.6e-4 0.1878,-0.18014 0.30878,-0.20642 0.21521,-0.0468 0.45199,-0.0747 0.66061,-0.004 0.96429,0.32593 1.84808,0.86655 2.81662,1.17956 0.15839,0.0512 0.35385,-0.0117 0.48657,-0.11212 0.16577,-0.12545 0.19745,-0.37365 0.34662,-0.51846 0.22253,-0.21597 0.4585,-0.44751 0.75192,-0.54779 0.30496,-0.10422 0.65686,-0.13034 0.96604,-0.0393 0.63812,0.18793 1.23681,0.50611 1.80334,0.8548 0.26718,0.16449 0.46954,0.42047 0.66596,0.66513 0.23498,0.29273 0.44342,0.60861 0.62176,0.9389 0.20133,0.37284 0.45035,0.74396 0.51315,1.163 0.11136,0.74316 0.12659,1.51385 -10e-4,2.25442 -0.0581,0.33673 -0.29624,0.63111 -0.53785,0.87271 -0.22705,0.22703 -0.53564,0.35926 -0.82763,0.49274 -0.10251,0.0468 -0.22318,0.039 -0.33588,0.0391 -0.63965,3.1e-4 -1.28888,0.0745 -1.91855,-0.038 -0.41671,-0.0744 -0.80194,-0.28973 -1.16208,-0.51227 -0.27844,-0.17206 -0.40448,-0.62182 -0.72992,-0.65683 -0.32293,-0.0348 -0.58581,0.29004 -0.84368,0.48752 -0.72568,0.55573 -1.36701,1.21692 -2.09824,1.76532 -0.53931,0.40445 -1.15665,0.6954 -1.70526,1.08722 -0.19455,0.13895 -0.3165,0.36612 -0.51541,0.49875 -0.43903,0.29269 -0.95743,0.45761 -1.38425,0.76785 -1.89709,1.37888 -3.65057,2.95166 -5.57581,4.29099 -0.51461,0.358 -1.19058,0.43057 -1.71185,0.7788 -0.44864,0.29966 -0.72198,0.81159 -1.15359,1.13529 -0.42215,0.31653 -0.9621,0.45123 -1.38419,0.76782 -0.85095,0.63831 -1.58899,1.41596 -2.41714,2.08353 -0.29224,0.23559 -0.60862,0.44342 -0.93888,0.62185 -0.35013,0.18912 -0.7687,0.24814 -1.09451,0.47657 -0.74475,0.52212 -1.35324,1.22076 -2.08911,1.75537 -0.42685,0.31009 -0.96771,0.44385 -1.38416,0.76782 -0.54248,0.422 -0.93933,1.00839 -1.46627,1.44965 -0.81067,0.67874 -1.65796,1.31643 -2.53772,1.90289 -1.97602,1.31723 -3.94327,2.65909 -6.02372,3.80429 -1.34332,0.73941 -2.86828,1.10767 -4.21887,1.83371 -0.25818,0.13879 -0.46472,0.42331 -0.51633,0.71188 -0.0242,0.13547 0.21354,0.20029 0.34983,0.21924 2.52386,0.35101 5.06988,0.52909 7.59298,0.88541 0.0905,0.0128 0.15192,0.12298 0.17438,0.21158 0.0433,0.1709 0.13654,0.40283 0.0131,0.52874 -0.37817,0.38584 -0.87271,0.6583 -1.37402,0.85968 -0.15457,0.0621 -0.34183,-0.0304 -0.48691,-0.11218 -0.18545,-0.10455 -0.28964,-0.32101 -0.47305,-0.42908 -0.0945,-0.0557 -0.21674,-0.0419 -0.32645,-0.042 -0.21408,-6e-5 -0.43271,-0.008 -0.64093,0.0417 -0.21945,0.0524 -0.40017,0.28287 -0.62472,0.26062 -0.85852,-0.0851 -1.668,-0.4653 -2.52402,-0.57272 -0.13321,-0.0167 -0.20898,0.23233 -0.34186,0.21298 -0.81933,-0.11935 -1.65814,-0.26025 -2.40704,-0.61343 -0.34525,-0.16285 -0.42413,-0.66126 -0.74256,-0.87186 -0.17822,-0.11786 -0.4262,-0.0528 -0.63961,-0.0424 -0.14157,0.007 -0.2887,0.029 -0.41465,0.0939 -0.96768,0.49939 -1.84689,1.1745 -2.85256,1.59217 -1.92621,0.79998 -3.96485,1.30194 -5.91254,2.04812 -0.78354,0.30017 -1.46634,0.84717 -2.27045,1.08689 -2.53744,0.75644 -5.1282,1.32623 -7.7153,1.88998 -2.57227,0.56052 -5.15024,1.11804 -7.7576,1.48172 -0.33176,0.0463 -0.63507,-0.28418 -0.96945,-0.26446 -1.48285,0.0875 -2.93262,0.5708 -4.418,0.58236 -0.95013,0.007 -1.89258,-0.24936 -2.80161,-0.52606 -0.15017,-0.0457 -0.12698,-0.29916 -0.24591,-0.40164 -0.25128,-0.21661 -0.68475,-0.24088 -0.83978,-0.53418 -0.0796,-0.15067 0.22354,-0.26709 0.37207,-0.35065 0.0956,-0.0538 0.2168,-0.0398 0.32651,-0.0423 0.52734,-0.0117 1.05884,-0.0635 1.58249,0 0.33136,0.0402 0.62243,0.26141 0.95306,0.30731 0.31662,0.044 0.64441,0.0196 0.95807,-0.0419 0.12149,-0.0238 0.18488,-0.20652 0.30866,-0.20652 0.12381,0 0.18899,0.17475 0.30865,0.20655 0.20743,0.0551 0.42761,0.0453 0.64224,0.0461 0.2182,8.8e-4 0.44068,0.008 0.65332,-0.041 0.63224,-0.1456 1.22513,-0.46826 1.86994,-0.54 0.23105,-0.0257 0.41589,0.23693 0.64724,0.25985 0.53196,0.0527 1.07651,0.0545 1.60322,-0.0368 2.96402,-0.51349 5.91125,-1.12427 8.84845,-1.77384 1.71395,-0.37905 3.43148,-0.76666 5.10034,-1.31097 0.80267,-0.26181 1.49658,-0.7898 2.28296,-1.0972 2.13879,-0.83615 4.3399,-1.50571 6.48333,-2.32989 0.43866,-0.16867 0.8584,-0.39084 1.25363,-0.64511 0.19416,-0.12491 0.28748,-0.3863 0.49775,-0.4816 0.9635,-0.43659 2.28497,-0.29547 2.97894,-1.09384 0.92621,-1.06559 0.90155,-2.67789 1.43549,-3.9849 0.26602,-0.65115 0.58486,-1.28418 0.96014,-1.87912 0.13672,-0.21679 0.31613,-0.44504 0.55847,-0.5285 0.30505,-0.10507 0.66699,-0.11353 0.96802,0.003 0.1401,0.0541 0.12994,0.27735 0.14432,0.42685 0.0204,0.21314 0.058,0.45157 -0.0418,0.641 -0.1543,0.2929 -0.48096,0.45968 -0.6781,0.72561 -0.16141,0.21774 -0.27298,0.46909 -0.38913,0.71399 -0.36667,0.77298 -0.74649,1.54157 -1.0586,2.33817 -0.0416,0.10611 -0.0399,0.2387 0.009,0.34176 0.0273,0.058 0.11948,0.0765 0.18198,0.0622 0.48727,-0.1113 0.96624,-0.26096 1.436,-0.4317 0.52826,-0.19205 1.06943,-0.36997 1.55383,-0.65503 2.04667,-1.20444 4.03443,-2.50699 6.02359,-3.80417 0.44315,-0.28897 0.87229,-0.603 1.26984,-0.95206 0.51593,-0.45294 0.94833,-0.99548 1.46427,-1.44842 0.39755,-0.34907 0.82589,-0.66434 1.26986,-0.95206 0.44278,-0.28693 0.96213,-0.4512 1.38419,-0.76782 0.4303,-0.32276 0.70706,-0.82651 1.14932,-1.13266 0.94092,-0.6514 2.03629,-1.06009 2.97122,-1.72004 0.86896,-0.6134 1.58634,-1.419 2.41696,-2.08337 0.22913,-0.18326 0.52906,-0.26553 0.75449,-0.45331 0.41321,-0.34424 0.70169,-0.8342 1.14917,-1.13254 0.83203,-0.55474 1.80862,-0.86511 2.65231,-1.402 0.32834,-0.20896 0.51761,-0.59058 0.83432,-0.81678 0.42935,-0.30667 0.96207,-0.45126 1.38416,-0.76785 0.85162,-0.63873 1.55621,-1.46149 2.41925,-2.08475 1.04516,-0.75479 2.23886,-1.28741 3.2879,-2.0368 0.43707,-0.31223 0.72428,-0.80054 1.14731,-1.1315 0.5625,-0.44006 1.24338,-0.71628 1.79477,-1.17023 0.51419,-0.42331 1.17679,-0.81018 1.38086,-1.44421 0.13388,-0.4159 -0.18738,-0.92777 -0.53009,-1.19879 -0.69492,-0.54966 -1.54068,-0.94474 -2.40814,-1.12513 -1.03983,-0.21621 -2.13352,-0.18029 -3.18604,-0.0381 -2.0874,0.28192 -4.10733,0.94616 -6.1831,1.30353 -4.4762,0.77066 -8.98294,1.35324 -13.46656,2.07946 -0.51043,0.0827 -1.02386,0.17624 -1.51205,0.34668 -2.23776,0.78131 -4.46204,1.6052 -6.65491,2.50479 -0.50796,0.20838 -0.93313,0.58478 -1.43249,0.81287 -0.65921,0.30115 -1.37192,0.47366 -2.03318,0.77023 -0.86239,0.38678 -1.70608,0.81678 -2.53155,1.27707 -1.07691,0.6005 -2.13974,1.22864 -3.17182,1.90323 -0.51251,0.33499 -0.92996,0.80606 -1.45498,1.12103 -0.53757,0.32248 -1.16754,0.46775 -1.71182,0.77878 -0.20377,0.11646 -0.30561,0.36777 -0.50657,0.48899 -0.34072,0.20547 -0.75973,0.26141 -1.09445,0.47659 -1.14963,0.73895 -2.19229,1.63614 -3.34189,2.37509 -0.33477,0.21518 -0.7536,0.27145 -1.09457,0.47662 -0.18686,0.1124 -0.67584,0.40915 -0.46405,0.46109 1.86328,0.45697 3.82693,0.39176 5.69656,0.82209 0.18878,0.0434 0.22245,0.34542 0.2172,0.53909 -0.006,0.2055 -0.0989,0.42252 -0.24704,0.56506 -0.23651,0.22763 -0.5242,0.49921 -0.85239,0.49308 -0.35962,-0.007 -0.59268,-0.44004 -0.94177,-0.52659 -0.12879,-0.0319 -0.20709,0.22583 -0.33872,0.20911 -0.74624,-0.0947 -1.44696,-0.4378 -2.19348,-0.53039 -0.12851,-0.016 -0.19354,0.19659 -0.32116,0.21844 -0.32126,0.055 -0.66535,0.0971 -0.97779,0.004 -0.65787,-0.19556 -1.21521,-1.04297 -1.87442,-0.85193 -1.19076,0.34503 -1.93915,1.5484 -2.95947,2.2526 -0.7478,0.51611 -1.5806,0.89965 -2.33713,1.40295 -0.19473,0.12955 -0.29925,0.37552 -0.50458,0.48755 -0.96597,0.52695 -2.02743,0.86832 -2.98251,1.41476 -1.27261,0.72812 -2.43912,1.62879 -3.68579,2.40049 -0.97321,0.60241 -2.04868,1.04354 -2.97165,1.72049 -0.67407,0.49438 -1.14966,1.21765 -1.78119,1.76538 -0.63309,0.5491 -1.37753,0.96148 -2.00427,1.51782 -0.29749,0.26404 -0.46936,0.64636 -0.75061,0.92764 -0.14591,0.14591 -0.38428,0.18234 -0.51718,0.34015 -0.42508,0.5047 -0.70374,1.12247 -1.1352,1.62167 -0.70446,0.81504 -1.6409,1.42817 -2.26187,2.30854 -0.18426,0.26123 -0.0868,0.64151 -0.0422,0.95803 0.0316,0.22468 0.22775,0.40305 0.26522,0.62677 0.0537,0.32096 0.0884,0.66221 0.003,0.97629 -0.0841,0.30988 -0.26871,0.59766 -0.49271,0.82767 -0.22613,0.23221 -0.63232,0.25757 -0.82089,0.52121 -0.36194,0.50607 -0.431,1.17831 -0.76849,1.70102 -0.22052,0.34155 -0.52143,0.6506 -0.87708,0.84762 -0.19223,0.10648 -0.45068,0.0727 -0.65924,0.003 -0.30801,-0.10229 -0.57693,-0.30377 -0.83548,-0.4999 -0.21686,-0.16449 -0.44235,-0.33973 -0.58047,-0.57422 -0.37754,-0.6409 -0.35883,-1.56592 -0.94782,-2.02021 -0.29828,-0.23004 -0.70193,0.29172 -1.00738,0.51221 -0.31437,0.2269 -0.52597,0.57425 -0.83036,0.81439 -0.25479,0.20102 -0.54019,0.36521 -0.83541,0.49991 -0.10206,0.0465 -0.22367,0.0494 -0.33475,0.034 -0.14771,-0.0206 -0.37125,-7.3e-4 -0.42499,-0.13986 -0.11627,-0.30097 -0.0574,-0.64994 -0.003,-0.96796 0.0209,-0.12213 0.17923,-0.18259 0.22003,-0.29959 0.0377,-0.10806 0.0555,-0.24094 0.004,-0.34336 -0.13718,-0.27478 -0.29203,-0.56964 -0.54618,-0.74206 -0.14526,-0.0985 -0.35562,-0.0262 -0.52636,0.0145 -0.21946,0.0522 -0.39942,0.25677 -0.62497,0.25964 -0.22635,0.003 -0.40757,-0.24436 -0.63392,-0.2435 -0.22729,8.2e-4 -0.4107,0.21185 -0.63507,0.24814 -0.21136,0.0342 -0.4327,0.008 -0.64102,-0.0418 -0.21969,-0.0524 -0.39975,-0.25974 -0.62561,-0.26028 -0.2254,-5.5e-4 -0.40011,0.24774 -0.6253,0.25729 -0.22446,0.01 -0.4179,-0.20023 -0.64251,-0.20346 -0.1231,-0.002 -0.19386,0.19244 -0.31695,0.1897 -0.12312,-0.003 -0.19092,-0.16639 -0.30832,-0.20356 -0.10623,-0.0336 -0.22665,-0.0287 -0.33427,1.3e-4 -0.21766,0.0584 -0.39986,0.25485 -0.62522,0.25729 -0.22635,0.003 -0.40754,-0.2435 -0.63391,-0.2435 -0.22635,0 -0.40755,0.24548 -0.63389,0.2435 -0.33112,-0.003 -0.62851,-0.24753 -0.95951,-0.25729 -0.12402,-0.004 -0.18056,0.18692 -0.30008,0.22018 -0.20627,0.0574 -0.42962,0.076 -0.64099,0.0418 -0.22496,-0.0364 -0.41539,-0.30216 -0.63689,-0.24857 -0.14373,0.0348 -0.16859,0.29334 -0.11105,0.42957 0.40155,0.95041 0.90001,1.86148 1.44827,2.73553 0.88793,1.41553 1.85863,2.77899 2.85315,4.12183 0.23076,0.31158 0.57145,0.52835 0.81458,0.83038 0.1947,0.24188 0.24089,0.60764 0.49104,0.79163 1.7676,1.30011 3.6877,2.37988 5.50093,3.61557 0.51013,0.34762 0.94812,0.79553 1.46564,1.13205 0.70917,0.46115 1.45486,0.86532 2.20554,1.25522 0.55682,0.28918 1.16272,0.47876 1.71313,0.77999 0.85321,0.46701 1.62497,1.07676 2.49039,1.5207 1.73669,0.89096 3.49923,1.73822 5.3053,2.47854 1.76242,0.72244 3.57592,1.31616 5.38748,1.90466 1.08752,0.35328 2.18707,0.67862 3.30496,0.9191 1.46524,0.31525 2.96536,0.44702 4.43405,0.74585 4.05154,0.8244 8.05957,1.86048 12.1232,2.62311 0.23026,0.0432 0.43332,-0.24472 0.66656,-0.22278 1.80326,0.1694 3.59308,0.47034 5.3758,0.79041 2.40057,0.43097 4.7659,1.04718 7.16934,1.46185 2.26004,0.38992 4.53891,0.66364 6.81427,0.95078 1.67487,0.21136 3.34796,0.48526 5.03503,0.54455 0.53736,0.0189 1.04575,-0.28128 1.58252,-0.31192 1.26539,-0.0723 2.53714,-0.0711 3.80231,0.004 0.23261,0.0139 0.41583,0.2763 0.64838,0.26147 1.24417,-0.0794 2.47918,-0.29156 3.70108,-0.539 0.66025,-0.1337 1.25632,-0.62814 1.92941,-0.60114 0.2843,0.0114 0.37058,0.44043 0.491,0.69819 0.0484,0.10369 0.0681,0.25482 -0.004,0.34332 -0.24725,0.30151 -0.51721,0.65634 -0.89483,0.75335 -1.50147,0.38578 -3.05552,0.57996 -4.6037,0.6594 -2.74222,0.14075 -5.49274,0.0766 -8.23752,-4.3e-4 -0.22717,-0.006 -0.40766,-0.2485 -0.63495,-0.24847 -0.22733,0 -0.40912,0.2236 -0.63507,0.24847 -0.42633,0.047 -0.86151,0.0231 -1.28619,-0.0369 -0.491,-0.0693 -0.95713,-0.26645 -1.44608,-0.34894 -2.42496,-0.40912 -4.87097,-0.68982 -7.29132,-1.12522 -1.60721,-0.28909 -3.17407,-0.78418 -4.78577,-1.04721 -3.49606,-0.57058 -7.03656,-0.84961 -10.52728,-1.45196 -2.77087,-0.47812 -5.48761,-1.23139 -8.24396,-1.78714 -2.02731,-0.40882 -4.10327,-0.58627 -6.10498,-1.10614 -2.63327,-0.68396 -5.23218,-1.51813 -7.77035,-2.49768 -2.04456,-0.78903 -3.99793,-1.80081 -5.94983,-2.79724 -1.06653,-0.54444 -2.04767,-1.24347 -3.09671,-1.82093 -1.29526,-0.71298 -2.67282,-1.27728 -3.93399,-2.04904 -0.65335,-0.39981 -1.15561,-1.01022 -1.78315,-1.44946 -1.48843,-1.04184 -3.09185,-1.91574 -4.55783,-2.98892 -0.49366,-0.36139 -0.91735,-0.81873 -1.29785,-1.29782 -0.41925,-0.52793 -0.69537,-1.15674 -1.08719,-1.7053 -0.13852,-0.19394 -0.35926,-0.3193 -0.49757,-0.51336 -0.66354,-0.93106 -1.31799,-1.87131 -1.9023,-2.85401 -0.72996,-1.22769 -1.26652,-2.56704 -2.03639,-3.77008 -0.0569,-0.089 -0.1584,0.17734 -0.26402,0.17527 -7.69681,-0.15134 -15.39276,-0.3602 -23.08617,-0.63437 -0.65189,-0.0233 -1.28764,-0.2667 -1.93986,-0.25754 -0.33149,0.005 -0.61889,0.33035 -0.94881,0.29806 -2.16609,-0.21203 -4.29375,-0.71783 -6.44879,-1.02218 -2.09958,-0.29651 -4.21918,-0.44666 -6.31319,-0.78018 -6.09074,-0.97016 -12.17819,-1.97138 -18.23592,-3.13004 -2.79322,-0.53424 -5.5662,-1.18622 -8.30651,-1.94666 -3.6523,-1.01351 -7.22487,-2.29681 -10.8595,-3.37197 -1.01552,-0.30042 -2.07607,-0.43604 -3.08641,-0.75339 -2.68691,-0.8439 -5.30808,-1.88876 -7.99657,-2.72757 -2.05989,-0.6427 -4.17912,-1.08243 -6.24214,-1.71494 -3.6152,-1.10843 -7.07774,-2.77877 -10.78835,-3.5065 -0.54686,-0.10727 -0.84343,0.73383 -1.21029,1.15332 -0.21941,0.25089 -0.31481,0.59482 -0.53632,0.84385 -0.59912,0.67355 -1.25127,1.29946 -1.91388,1.91067 -0.0976,0.0901 -0.26044,0.0881 -0.35457,0.18179 -0.21045,0.20951 -0.30419,0.52796 -0.53988,0.70862 -0.41635,0.31915 -0.96332,0.43921 -1.37754,0.76117 -0.54321,0.42221 -0.91179,1.04599 -1.46821,1.45068 -0.61774,0.44928 -1.37013,0.681 -2.01837,1.08503 -0.19873,0.12387 -0.29618,0.38284 -0.50544,0.48797 -0.65261,0.32791 -1.37608,0.49423 -2.0428,0.79236 -0.26625,0.11908 -0.47351,0.35452 -0.7472,0.45526 -1.76487,0.64963 -3.53881,1.28528 -5.35065,1.78928 -0.12704,0.0353 -0.20534,-0.21338 -0.33706,-0.20709 -0.18434,0.009 -0.31556,0.2062 -0.49558,0.24679 -1.08422,0.24463 -2.16767,0.59567 -3.27912,0.60486 -1.01357,0.008 -2.01462,-0.27765 -2.99013,-0.55292 -1.11717,-0.31524 -2.24246,-0.66198 -3.26467,-1.212 -0.40071,-0.21558 -0.49016,-0.82663 -0.89825,-1.02787 -0.87445,-0.43127 -1.89377,-0.4768 -2.81283,-0.80233 -1.11515,-0.39493 -2.21045,-0.84992 -3.28,-1.3555 -0.55131,-0.26062 -1.07827,-0.57819 -1.57092,-0.93762 -0.31383,-0.22895 -0.52157,-0.58265 -0.83237,-0.81571 -0.53934,-0.40445 -1.16033,-0.6904 -1.70531,-1.08722 -0.44241,-0.32211 -0.86289,-0.67755 -1.24986,-1.06454 -0.68151,-0.68149 -1.33246,-1.3949 -1.94975,-2.13507 -0.19889,-0.2385 -0.27154,-0.57206 -0.4911,-0.79169 -0.21707,-0.21716 -0.58195,-0.2525 -0.78387,-0.48383 -0.537361,-0.6156 -0.895805,-1.36901 -1.396919,-2.01446 -0.234573,-0.30213 -0.61364,-0.48728 -0.803291,-0.81946 -0.504418,-0.88348 -0.937309,-1.8158 -1.253365,-2.78278 -0.609733,-1.86557 -1.195808,-3.75317 -1.515693,-5.6896 -0.189248,-1.14557 -0.07368,-2.32459 3.89e-4,-3.48331 0.01443,-0.22589 0.261604,-0.40002 0.262268,-0.62637 9.69e-4,-0.33084 -0.283661,-0.62869 -0.257622,-0.95853 0.06836,-0.86581 0.295784,-1.71506 0.534607,-2.55011 0.35749,-1.24994 0.780495,-2.48218 1.251236,-3.69403 0.379059,-0.97583 0.805138,-1.93597 1.295135,-2.86105 0.109475,-0.20667 0.358078,-0.30982 0.487534,-0.50458 0.292076,-0.43945 0.475746,-0.94482 0.767853,-1.38425 0.129425,-0.19473 0.366821,-0.30407 0.487533,-0.50433 0.205239,-0.34045 0.247559,-0.76807 0.475735,-1.09357 0.52195,-0.7446 1.22043,-1.3529 1.75489,-2.08859 0.31023,-0.42706 0.44624,-0.96649 0.7683,-1.3847 0.37376,-0.48536 0.83638,-0.89844 1.29905,-1.2999 0.31285,-0.27148 0.74162,-0.40366 1.01884,-0.71146 0.29315,-0.32544 0.34104,-0.83169 0.65039,-1.14178 0.57013,-0.57153 1.32347,-0.9289 1.93777,-1.45264 0.52296,-0.44586 0.91039,-1.04526 1.46616,-1.44949 0.61772,-0.44931 1.37063,-0.68018 2.01837,-1.08505 0.20335,-0.12708 0.31976,-0.36399 0.51736,-0.49985 0.49844,-0.34271 0.99164,-0.71945 1.55942,-0.9281 1.62407,-0.59683 3.26296,-1.23825 4.97709,-1.474 1.89676,-0.26083 3.83875,-0.1911 5.74384,-3.4e-4 1.78594,0.17884 3.53855,0.63172 5.27039,1.10321 1.61967,0.44095 3.21318,0.98929 4.76515,1.62897 0.43018,0.17734 0.72785,0.58972 1.14029,0.80512 1.36098,0.71075 2.7988,1.26638 4.16563,1.96582 0.78632,0.40237 1.59639,0.78732 2.28806,1.33667 0.88917,0.70626 1.57713,1.63638 2.41711,2.40048 0.33571,0.30539 0.80289,0.45846 1.10146,0.80026 0.44348,0.50772 0.66034,1.18353 1.08719,1.70532 0.52977,0.64762 1.24382,1.12989 1.76655,1.78318 0.32967,0.41201 0.45122,0.96218 0.76786,1.38424 0.32275,0.4303 0.81247,0.71714 1.13266,1.14936 0.61471,0.82977 1.18521,1.699 1.65767,2.61727 0.35787,0.69559 0.61909,1.44281 0.82023,2.1988 0.2607,0.97982 0.40811,1.98724 0.56023,2.98968 0.0486,0.32022 0.0779,0.64905 0.0408,0.9708 -0.1408,1.22085 -0.3303,2.43728 -0.57273,3.64209 -0.26316,1.30777 -0.39074,2.67492 -0.94277,3.88937 -0.7234,1.59143 -1.82992,2.9816 -2.83174,4.41421 -0.10194,0.14576 -0.34406,0.14167 -0.4527,0.28251 -0.4657,0.60366 -0.77089,1.32171 -1.2453,1.91857 -0.18451,0.23212 -0.50949,0.31833 -0.7079,0.53867 -0.25247,0.28037 -0.42515,0.6236 -0.6262,0.94284 -0.16391,0.26029 -0.45566,0.48779 -0.4683,0.79514 -0.007,0.16662 0.26638,0.21209 0.42475,0.26431 3.67181,1.21088 7.35083,2.40192 11.05185,3.52039 1.79603,0.54278 3.64189,0.91159 5.43553,1.46221 0.70592,0.21671 1.35185,0.59977 2.05142,0.83616 1.95758,0.66146 3.92914,1.2836 5.9147,1.85559 1.417,0.4082 2.87754,0.65698 4.28904,1.0838 0.74118,0.22412 1.41926,0.62637 2.15589,0.86505 2.06896,0.67029 4.15381,1.29419 6.25388,1.85953 1.12291,0.30227 2.2832,0.44992 3.40892,0.7416 0.8329,0.21582 1.62077,0.59305 2.46079,0.77933 2.35434,0.5221 4.73649,0.91019 7.10891,1.34287 3.2399,0.59088 6.46848,1.25543 9.72779,1.72778 0.23141,0.0335 0.43417,-0.25504 0.66562,-0.22156 1.53115,0.22147 3.00883,0.73856 4.53787,0.97421 3.31064,0.51032 6.64184,0.87928 9.96966,1.26197 2.86933,0.32995 5.74297,0.62549 8.62033,0.87588 0.3181,0.0277 0.64455,0.0235 0.95696,-0.0425 0.12207,-0.0258 0.18049,-0.18887 0.30044,-0.2232 0.2063,-0.059 0.42753,-0.0434 0.64209,-0.0466 0.73914,-0.0109 1.48198,-0.0678 2.21766,0.004 0.33216,0.0327 0.62156,0.26789 0.953,0.30735 0.42225,0.0503 0.85521,0.0257 1.27499,-0.0421 0.22394,-0.0362 0.4034,-0.22561 0.62679,-0.26495 0.21087,-0.0371 0.4329,-0.009 0.641,0.0417 0.22049,0.0534 0.40036,0.25067 0.62674,0.26526 1.15903,0.0748 2.32528,0.0748 3.4843,0 0.22638,-0.0146 0.40644,-0.21113 0.62673,-0.26526 0.2084,-0.0512 0.4275,-0.0465 0.6421,-0.0465 0.3201,-3e-5 0.64527,-0.0162 0.95918,0.0464 0.12142,0.0242 0.18503,0.21204 0.30872,0.20655 0.22707,-0.0101 0.40881,-0.22592 0.63498,-0.24851 0.63043,-0.0629 1.2672,-0.0149 1.90068,-0.004 0.21455,0.004 0.43578,-0.0125 0.64209,0.0466 0.11993,0.0343 0.17752,0.20187 0.30045,0.2232 0.31788,0.0552 0.67012,0.1211 0.96792,-0.003 0.14052,-0.0586 0.16324,-0.3035 0.10542,-0.44434 -0.66516,-1.62023 -1.59127,-3.12616 -2.23925,-4.75335 -0.54129,-1.35929 -0.9457,-2.77167 -1.32054,-4.18592 -0.38799,-1.46395 -0.72487,-2.94445 -0.96554,-4.43969 -0.77568,-4.81958 -1.67611,-9.63135 -2.08206,-14.49607 -0.28979,-3.47296 -0.17134,-6.9743 0,-10.4551 0.1258,-2.55521 0.55948,-5.08631 0.88994,-7.62314 0.14375,-1.10358 0.30216,-2.20716 0.53244,-3.29596 0.70085,-3.31385 1.35089,-6.64405 2.2599,-9.90692 0.48644,-1.74604 1.17492,-3.43491 1.91764,-5.08829 1.1468,-2.55292 2.4629,-5.0268 3.74392,-7.51508 0.28682,-0.55713 0.67362,-1.05908 0.95777,-1.61755 0.37338,-0.73386 0.58568,-1.54892 1.01178,-2.25348 1.02904,-1.70148 2.27302,-3.26471 3.34024,-4.9425 0.23311,-0.36649 0.33577,-0.80387 0.55385,-1.17948 0.36096,-0.62167 0.74563,-1.2323 1.17932,-1.80563 0.23388,-0.30921 0.58648,-0.51676 0.81451,-0.83029 0.62052,-0.85324 1.05582,-1.83738 1.7211,-2.65619 0.71558,-0.88071 1.66077,-1.5535 2.39926,-2.41507 0.53406,-0.62308 0.85932,-1.40848 1.40412,-2.02219 0.3013,-0.33941 0.76806,-0.4924 1.1015,-0.80032 1.02328,-0.94504 1.93283,-2.00879 2.95956,-2.95014 0.2457,-0.22528 0.59308,-0.31704 0.84369,-0.53686 0.13263,-0.11636 0.15454,-0.3252 0.28018,-0.44904 0.26172,-0.25796 0.56086,-0.4776 0.86667,-0.68136 1.78165,-1.18711 3.53189,-2.4299 5.39246,-3.48908 0.83432,-0.47494 1.80536,-0.66549 2.66315,-1.09662 0.83306,-0.4187 1.5491,-1.05258 2.39462,-1.44552 1.53961,-0.71549 3.11392,-1.37396 4.73779,-1.86914 1.33554,-0.40723 2.74664,-0.50943 4.10614,-0.82764 0.38861,-0.0909 0.73761,-0.3215 1.12937,-0.39777 2.33651,-0.45477 4.681,-0.88037 7.0408,-1.19247 0.12851,-0.017 0.19351,0.19788 0.32141,0.21881 0.41934,0.0686 0.85235,0.0942 1.27408,0.0423 1.0606,-0.13056 2.08566,-0.51196 3.15161,-0.5871 0.4378,-0.0308 0.85083,0.23322 1.28778,0.27429 0.52557,0.0494 1.05969,0.0599 1.58365,-0.004 0.33133,-0.0407 0.62021,-0.28281 0.95312,-0.30741 m 2.5503,24.13495 c 0,0 0,0 0,0 -0.3219,-0.0155 -0.64597,-0.0869 -0.96573,-0.0466 -0.22544,0.0284 -0.40781,0.23831 -0.63483,0.24845 -0.12366,0.006 -0.18765,-0.18076 -0.30875,-0.20639 -0.21222,-0.045 -0.46337,-0.10605 -0.65084,0.003 -0.12827,0.0747 -0.12378,0.28751 -0.0998,0.43402 0.02,0.12241 0.19205,0.17929 0.21997,0.30014 0.0488,0.21121 0.0871,0.4519 -2.4e-4,0.65036 -0.10388,0.23621 -0.29926,0.45187 -0.53281,0.56159 -1.17035,0.54983 -2.42819,0.89227 -3.62161,1.3901 -0.46094,0.19226 -0.84228,0.60352 -1.33615,0.67789 -0.19775,0.0297 -0.35428,-0.22888 -0.43716,-0.41089 -0.0888,-0.19489 -0.0648,-0.42816 -0.042,-0.64108 0.0181,-0.16825 0.0118,-0.4039 0.16248,-0.48087 1.18616,-0.60617 2.50757,-0.91379 3.70572,-1.49588 0.22873,-0.11114 0.39493,-0.33655 0.52075,-0.55755 0.0318,-0.0559 -0.0699,-0.10926 -0.11508,-0.15513 -0.0968,-0.0983 -0.17636,-0.23709 -0.30887,-0.27554 -0.21191,-0.0615 -0.4437,-0.0389 -0.66187,-0.006 -1.00143,0.15054 -2.00024,0.32681 -2.98696,0.55462 -0.69379,0.16019 -1.38895,0.33783 -2.04779,0.60788 -0.84476,0.34626 -1.74811,0.64429 -2.44523,1.23383 -0.59164,0.5003 -0.95785,1.23251 -1.29577,1.92978 -0.31021,0.64007 -0.4635,1.34735 -0.62787,2.03937 -0.23093,0.97216 -0.45017,1.95202 -0.55621,2.94558 -0.0679,0.63626 -0.049,1.28519 0.0369,1.91922 0.10437,0.77024 0.28287,1.53391 0.53086,2.27048 0.45315,1.34592 0.87835,2.71982 1.56735,3.96158 0.3306,0.59579 0.99331,0.93661 1.43725,1.45349 0.20231,0.23553 0.27024,0.57327 0.49103,0.7916 0.26444,0.26147 0.59671,0.45181 0.93109,0.61456 0.44297,0.21561 0.89341,0.52142 1.38602,0.51324 0.30801,-0.005 0.4501,-0.45538 0.74371,-0.5487 0.12165,-0.0387 0.20261,0.26114 0.31986,0.21063 0.67746,-0.29196 1.19122,-0.90808 1.88437,-1.16052 0.40783,-0.14853 0.88083,-0.1044 1.30212,-3e-5 0.33209,0.0823 0.65143,0.27865 0.87348,0.53897 0.34054,0.3992 0.47583,0.93762 0.7615,1.37774 0.19794,0.30491 0.42099,0.59845 0.68408,0.84928 0.0506,0.0483 0.14429,0.0274 0.2099,0.003 0.39954,-0.14822 0.84394,-0.24081 1.17017,-0.51504 1.09341,-0.91904 1.98541,-2.05646 3.03799,-3.02201 0.22882,-0.2099 0.5726,-0.27093 0.79166,-0.49103 0.23263,-0.23376 0.31814,-0.58252 0.52905,-0.83606 0.31412,-0.37768 0.80664,-0.61315 1.03714,-1.04696 0.51157,-0.96274 1.01535,-1.98078 1.14682,-3.06302 0.25635,-2.11029 0.25635,-4.26715 0,-6.37744 -0.13147,-1.08228 -0.6727,-2.0813 -1.14682,-3.06305 -0.22748,-0.47101 -0.59869,-0.86011 -0.93954,-1.25687 -0.30237,-0.35196 -0.59128,-0.73813 -0.98511,-0.98346 -0.72705,-0.45288 -1.57294,-0.68277 -2.33078,-1.082 m -19.63742,18.8815 c 0,0 0,0 0,0 0.0299,0.28122 -0.0497,0.5976 0.0897,0.84369 0.49322,0.87061 1.14154,1.64548 1.76419,2.42877 0.29852,0.37555 0.70486,0.65796 0.99393,1.04081 0.0658,0.0871 0.0525,0.21713 0.0375,0.32519 -0.0226,0.1626 -0.0523,0.3363 -0.14798,0.46967 -0.45977,0.64117 -1.05151,1.1817 -1.5011,1.83001 -0.28714,0.41404 -0.30224,1.02869 -0.69778,1.34079 -0.21497,0.16965 -0.56787,-0.02 -0.80713,-0.15323 -0.25104,-0.13986 -0.43381,-0.38675 -0.59238,-0.62637 -0.0602,-0.091 -0.0525,-0.21719 -0.0374,-0.32529 0.0226,-0.16244 0.0441,-0.34225 0.14786,-0.46926 0.13153,-0.16099 0.37347,-0.19761 0.51858,-0.34653 0.42472,-0.43579 0.87439,-0.86728 1.17819,-1.39456 0.10825,-0.18787 0.0958,-0.45597 0,-0.65046 -0.14599,-0.29635 -0.48037,-0.45834 -0.677,-0.72381 -0.45331,-0.612 -0.85406,-1.26138 -1.26724,-1.90119 -0.17618,-0.27282 -0.36459,-0.54101 -0.50043,-0.83602 -0.047,-0.10209 -0.0372,-0.22254 -0.0387,-0.33487 -0.002,-0.17246 -0.0756,-0.37836 0.0275,-0.5167 0.18567,-0.24923 0.44907,-0.54022 0.75989,-0.54034 m -163.84061,6.33526 c 0,0 0,0 0,0 -0.64446,-0.0315 -1.29434,-0.005 -1.93338,-0.0945 -0.12879,-0.0179 -0.19234,-0.22827 -0.32211,-0.22003 -1.85289,0.1174 -3.70894,0.27472 -5.53834,0.59134 -1.00459,0.17389 -1.97677,0.51517 -2.9309,0.87445 -0.65835,0.24789 -1.28514,0.58011 -1.88928,0.94055 -0.20086,0.11984 -0.3098,0.35813 -0.5046,0.48758 -0.43943,0.29208 -0.93163,0.49664 -1.38424,0.76785 -0.21558,0.12915 -0.43925,0.25519 -0.61801,0.43183 -0.31469,0.31094 -0.50563,0.74173 -0.85033,1.01901 -0.44261,0.35605 -1.05101,0.47501 -1.47576,0.8522 -0.50878,0.45179 -0.7965,1.11078 -1.27714,1.59238 -0.56129,0.56244 -1.32257,0.91501 -1.83294,1.52402 -0.58363,0.69641 -0.85811,1.60992 -1.40293,2.33709 -0.40896,0.54584 -1.02713,0.91114 -1.43839,1.4552 -0.25954,0.34336 -0.3238,0.80149 -0.546,1.17014 -0.10286,0.17059 -0.30825,0.26108 -0.41729,0.4278 -0.2888,0.44158 -0.475781,0.94476 -0.767834,1.38418 -0.129639,0.1951 -0.384071,0.29569 -0.488068,0.50552 -0.321602,0.64908 -0.475265,1.3704 -0.769416,2.03235 -0.129952,0.29245 -0.379853,0.52332 -0.498353,0.82059 -0.355659,0.89227 -0.739395,1.78778 -0.917564,2.73166 -0.416878,2.2085 -0.85347,4.43985 -0.860405,6.68735 -0.0043,1.38891 0.484512,2.73788 0.82721,4.08389 0.242012,0.95053 0.577735,1.87601 0.923881,2.79376 0.156258,0.41434 0.347252,0.81848 0.580483,1.19489 0.619041,0.99905 1.248771,1.99643 1.971286,2.92343 0.42202,0.5415 1.00163,0.94299 1.44841,1.46423 0.19094,0.22275 0.25768,0.5358 0.4533,0.75443 0.67971,0.75973 1.38013,1.50833 2.15928,2.16568 0.54586,0.46051 1.23199,0.73044 1.7947,1.17022 0.41907,0.32749 0.68339,0.84122 1.13618,1.12024 1.21187,0.74677 2.47756,1.42829 3.81047,1.92795 1.3941,0.52258 2.86539,0.82022 4.3235,1.12113 0.4201,0.0867 0.85954,0.0794 1.28635,0.0365 0.33028,-0.0332 0.6308,-0.29899 0.96068,-0.26209 0.19568,0.0219 0.31714,0.24789 0.41899,0.41641 0.0591,0.0978 0.0875,0.2374 0.0387,0.34082 -0.14496,0.30741 -0.69314,0.50653 -0.59115,0.83072 0.1219,0.38751 0.66675,0.48181 1.04808,0.62183 0.72719,0.26694 1.48286,0.46884 2.24824,0.58832 0.42355,0.0661 0.86209,0.0302 1.2855,-0.0368 1.49954,-0.23727 3.00006,-0.49399 4.46995,-0.87393 1.26768,-0.32767 2.50171,-0.77945 3.72568,-1.24451 0.27246,-0.10351 0.4807,-0.33587 0.74676,-0.45483 0.66677,-0.2981 1.39018,-0.46445 2.04282,-0.79233 0.20926,-0.10516 0.30672,-0.3641 0.50543,-0.48801 0.64819,-0.40417 1.38287,-0.66143 2.01817,-1.08557 0.1473,-0.0983 0.15635,-0.32553 0.28217,-0.45013 0.47281,-0.4682 0.97922,-0.90305 1.50114,-1.31577 0.75933,-0.60046 1.58838,-1.11004 2.33921,-1.7211 0.35864,-0.29187 0.70167,-0.6123 0.98088,-0.98089 0.42579,-0.56211 1.06448,-1.09113 1.12111,-1.79401 0.0302,-0.37567 -0.57814,-0.50198 -0.92409,-0.65149 -0.93385,-0.40356 -1.95259,-0.58856 -2.88529,-0.99478 -1.29985,-0.5661 -2.5484,-1.24493 -3.79748,-1.91565 -0.33692,-0.18091 -0.6579,-0.39499 -0.95471,-0.63611 -0.30147,-0.2449 -0.5074,-0.60263 -0.83225,-0.81558 -0.90802,-0.59524 -1.8753,-1.09698 -2.84131,-1.59262 -0.97606,-0.50079 -2.01757,-0.86993 -2.98097,-1.39462 -0.66656,-0.36304 -1.30523,-0.78452 -1.89571,-1.26145 -0.21147,-0.17077 -0.21047,-0.63391 -0.4812,-0.65829 -0.43202,-0.039 -0.76817,0.56106 -1.19854,0.50687 -0.47274,-0.0595 -0.8,-0.51926 -1.18023,-0.80637 -0.1277,-0.0964 -0.26132,-0.20023 -0.33846,-0.34039 -0.13597,-0.24698 -0.21334,-0.5235 -0.28689,-0.79569 -0.20225,-0.74841 -0.4213,-1.49618 -0.53952,-2.26242 -0.0255,-0.16556 0.0256,-0.34753 0.11498,-0.48926 0.30779,-0.48837 0.6445,-0.96814 1.05765,-1.3713 0.23243,-0.22681 0.52011,-0.48658 0.84485,-0.4852 0.3282,10e-4 0.5916,0.29348 0.8526,0.49246 0.24604,0.18759 0.54078,0.36984 0.6554,0.65719 0.39118,0.98084 0.65698,2.0159 0.82641,3.05814 0.0365,0.22476 -0.21897,0.41754 -0.22437,0.64517 -0.005,0.19843 0.0245,0.46207 0.19577,0.56235 2.62178,1.53506 5.41637,2.759 8.05345,4.26761 0.33782,0.19324 0.51987,0.58743 0.83431,0.8168 0.49269,0.35938 1.03454,0.64755 1.57097,0.93765 0.84028,0.45444 1.67532,0.92643 2.55676,1.29471 0.77908,0.32556 1.63084,0.45478 2.4098,0.78061 0.87792,0.36722 1.63193,1.55814 2.54564,1.29227 1.18543,-0.34497 1.71502,-1.78226 2.4768,-2.75379 0.32557,-0.41522 0.44386,-0.96774 0.76783,-1.38421 0.42201,-0.54248 1.03443,-0.91858 1.44963,-1.46628 0.60295,-0.79544 1.13385,-1.64993 1.58684,-2.53934 0.39336,-0.77237 0.68836,-1.59488 0.94104,-2.42398 0.35014,-1.14892 0.73454,-2.30408 0.86383,-3.4982 0.14845,-1.37134 0.0881,-2.76419 -0.0371,-4.13781 -0.0592,-0.64899 -0.304,-1.2692 -0.5121,-1.88675 -0.17076,-0.50669 -0.37776,-1.00293 -0.62198,-1.47861 -0.28158,-0.54849 -0.57783,-1.0957 -0.95149,-1.58612 -0.32597,-0.42786 -0.80247,-0.7247 -1.13267,-1.14932 -0.41384,-0.5322 -0.6603,-1.18357 -1.08719,-1.70533 -0.52933,-0.64697 -1.23601,-1.13421 -1.76535,-1.78116 -0.4269,-0.52175 -0.66796,-1.17739 -1.08721,-1.70529 -0.38052,-0.47912 -0.83316,-0.89999 -1.29794,-1.29791 -0.23589,-0.20193 -0.57253,-0.27103 -0.79163,-0.49106 -0.28979,-0.29098 -0.41237,-0.72201 -0.70416,-1.01105 -0.29507,-0.29229 -0.66481,-0.50244 -1.02772,-0.7044 -0.34771,-0.19348 -0.75373,-0.27112 -1.09449,-0.47659 -0.20018,-0.12073 -0.3148,-0.35044 -0.50422,-0.4874 -0.21671,-0.15671 -0.46167,-0.27152 -0.7034,-0.38596 -0.96361,-0.45617 -1.95616,-0.85086 -2.91097,-1.32516 -0.70895,-0.35221 -1.34791,-0.84287 -2.07648,-1.15253 -1.35398,-0.5755 -2.74101,-1.08093 -4.15274,-1.49509 m -14.32792,19.93866 c 0,0 0,0 0,0 0.71438,1.73142 1.3968,3.47635 2.14314,5.19425 0.19883,0.45767 0.5281,0.85638 0.69054,1.32822 0.0716,0.20794 0.0981,0.46612 -0.006,0.65975 -0.0712,0.13224 -0.27727,0.13007 -0.42675,0.14444 -0.21315,0.0205 -0.44724,0.0493 -0.64101,-0.0418 -0.2269,-0.10668 -0.43291,-0.29321 -0.54671,-0.51666 -0.5152,-1.01141 -0.21318,-3.40841 -1.31621,-3.14056 -1.21456,0.29495 -0.5042,2.44946 -0.81887,3.65906 -0.0645,0.2478 -0.26208,0.45004 -0.31526,0.70053 -0.2529,1.19116 -0.43106,2.39764 -0.59861,3.60379 -0.0304,0.2185 -0.0394,0.44595 0.006,0.66183 0.0467,0.22202 0.24727,0.40073 0.26516,0.62689 0.0587,0.74271 0.10604,1.50394 -0.0389,2.23475 -0.0711,0.3587 -0.32545,0.6716 -0.58788,0.92626 -0.11944,0.11591 -0.35298,0.21595 -0.48572,0.11557 -0.33955,-0.25674 -0.64162,-0.62716 -0.73895,-1.04159 -0.0766,-0.32626 0.24103,-0.63525 0.26664,-0.96942 0.0603,-0.78653 0.44358,-1.72177 -0.0109,-2.36652 -0.47275,-0.67065 -1.62991,-0.41394 -2.29135,-0.89947 -0.33767,-0.24787 -0.43575,-0.73816 -0.50291,-1.15161 -0.10356,-0.63749 -0.12897,-1.30491 0.001,-1.9375 0.0736,-0.35816 0.33161,-0.66523 0.58769,-0.92624 0.11798,-0.12027 0.31117,-0.14719 0.47906,-0.16108 0.31859,-0.0263 0.66844,-0.093 0.9581,0.0423 0.35734,0.16684 0.47669,0.88388 0.86378,0.80844 0.41465,-0.0808 0.45652,-0.71444 0.63022,-1.09952 0.11487,-0.25466 0.18819,-0.52978 0.22937,-0.80609 0.26319,-1.7662 0.27576,-3.5747 0.68254,-5.31347 0.0879,-0.3758 0.38706,-0.7872 0.76403,-0.87 m -6.83326,6.75339 c 0,0 0,0 0,0 0.21171,1.06348 0.67381,2.10675 0.63511,3.1904 -0.0126,0.35229 -0.42697,0.66238 -0.77479,0.71988 -0.24622,0.0407 -0.43862,-0.28025 -0.55758,-0.49964 -0.24991,-0.4609 -0.40264,-0.97366 -0.51852,-1.48498 -0.0714,-0.31503 -0.051,-0.64557 -0.0374,-0.96829 0.006,-0.14197 0.0279,-0.29056 0.0958,-0.41532 0.13157,-0.24154 0.24235,-0.54617 0.49143,-0.66281 m 3.69522,2.50281 c 0,0 0,0 0,0 -0.0406,0.16391 -0.16789,0.32931 -0.1217,0.49173 0.0888,0.31219 0.3115,0.57126 0.4993,0.83597 0.0611,0.0861 0.14068,0.1712 0.24019,0.20645 0.10434,0.0369 0.23273,0.0451 0.33205,-0.004 0.0588,-0.0289 0.0769,-0.12533 0.0576,-0.18795 -0.11725,-0.3805 -0.26108,-0.75678 -0.45581,-1.10404 -0.0914,-0.16296 -0.21784,-0.32913 -0.38934,-0.40323 m -2.56081,5.06998 c 0,0 0,0 0,0 0.0891,0.108 0.33278,0.20026 0.26725,0.32397 -0.177,0.33417 -0.48587,0.6326 -0.84172,0.76053 -0.29939,0.10764 -0.69986,0.0827 -0.9472,-0.1174 -0.16871,-0.13647 -0.0814,-0.44879 -0.003,-0.651 0.0718,-0.18448 0.23835,-0.341 0.41985,-0.42007 0.19628,-0.0855 0.42776,-0.062 0.64092,-0.042 m 17.89796,23.60331 c 0,0 0,0 0,0 0.76935,1.40377 1.56816,2.79184 2.30807,4.21133 0.29003,0.55643 0.47257,1.1662 0.78004,1.71317 0.38926,0.69253 1.00631,1.25827 1.30419,1.99472 0.0748,0.18496 -0.14445,0.38446 -0.28433,0.5267 -0.2173,0.22095 -0.45029,0.52853 -0.76012,0.53534 -0.25237,0.006 -0.44026,-0.28577 -0.56326,-0.5062 -0.65406,-1.1723 -1.12839,-2.4371 -1.74438,-3.62985 -0.31885,-0.6174 -0.71767,-2.40204 -1.05794,-1.7962 -0.95644,1.703 -0.55773,3.8855 -1.15913,5.7438 -0.10268,0.31729 -0.53292,0.55103 -0.8633,0.50559 -0.34535,-0.0475 -0.58683,-0.42014 -0.75124,-0.72751 -0.0769,-0.14374 0.0379,-0.3295 0.10683,-0.47717 0.0463,-0.0991 0.20527,-0.12986 0.22667,-0.23709 0.4395,-2.20121 0.65482,-4.44547 1.1456,-6.63584 0.10817,-0.48279 0.27893,-1.00162 0.64116,-1.33856 m -7.8881,0.43185 c 0,0 0,0 0,0 0.24592,0.24707 0.53849,0.4552 0.73774,0.74121 0.25509,0.36612 0.45548,0.77314 0.60916,1.19208 0.42465,1.15775 0.65929,2.38214 1.12126,3.52551 0.0358,0.0886 0.14521,-0.14227 0.23955,-0.15759 0.0582,-0.009 0.10759,0.0531 0.14962,0.0944 0.41745,0.41083 0.93762,0.74906 1.22566,1.25904 0.0978,0.17321 -0.0502,0.42849 -0.19625,0.56356 -0.27737,0.25657 -0.77605,0.2331 -0.99667,0.53983 -0.15873,0.22067 -0.0311,0.54861 0.022,0.81522 0.0443,0.2225 0.2553,0.40014 0.2653,0.6268 0.0791,1.79355 0.0468,3.59121 -2e-5,5.38592 -0.004,0.16483 -0.0658,0.33036 -0.15282,0.4704 -0.0726,0.11679 -0.17455,0.24481 -0.30908,0.27304 -0.15991,0.0336 -0.33648,-0.0264 -0.47819,-0.1077 -0.15977,-0.0917 -0.33071,-0.21667 -0.39064,-0.39083 -0.33441,-0.97187 -0.4452,-2.01065 -0.77111,-2.98542 -0.15184,-0.45413 -0.4166,-0.86319 -0.6546,-1.27868 -0.12486,-0.21799 -0.23951,-0.45594 -0.43164,-0.6178 -0.52806,-0.44483 -1.06672,-0.91049 -1.70243,-1.17996 -0.19017,-0.0806 -0.43396,0.0678 -0.58248,0.21136 -0.23341,0.22559 -0.36548,0.54016 -0.50055,0.83533 -0.0465,0.10174 -0.0606,0.2251 -0.0344,0.33386 0.1483,0.61734 0.32636,1.22952 0.55253,1.82275 0.17654,0.46311 0.48189,0.87073 0.65182,1.33631 0.0221,0.0604 -0.061,0.1149 -0.10503,0.16171 -0.0947,0.10059 -0.17125,0.25763 -0.30796,0.27713 -0.26793,0.0382 -0.58762,0.045 -0.80319,-0.11865 -0.33201,-0.25202 -0.50656,-0.66559 -0.70957,-1.02963 -0.20636,-0.37009 -0.45556,-0.74323 -0.51313,-1.16303 -0.11644,-0.84918 -0.1314,-1.72455 0.001,-2.57135 0.0528,-0.33761 0.29616,-0.6311 0.53778,-0.87274 0.22703,-0.22702 0.51153,-0.43655 0.82767,-0.49271 0.63251,-0.11233 1.33625,-0.24847 1.92723,0.003 0.81813,0.34873 1.34314,1.16913 2.05967,1.69595 0.0692,0.0509 0.235,0.0907 0.25767,0.008 0.085,-0.31085 0.0594,-0.64917 0.005,-0.96674 -0.0212,-0.12295 -0.19122,-0.17987 -0.22323,-0.30047 -0.0727,-0.2739 0.12061,-0.64719 -0.0811,-0.84623 -0.63389,-0.62552 -1.5409,-0.90313 -2.2447,-1.44882 -0.4835,-0.37488 -0.8993,-0.83365 -1.29784,-1.29785 -0.30787,-0.35855 -0.68657,-0.70599 -0.81346,-1.16122 -0.17089,-0.6131 -0.1094,-1.27604 -0.0423,-1.90897 0.0249,-0.23438 0.14415,-0.46903 0.31202,-0.63446 0.31449,-0.30988 0.6732,-0.61026 1.09227,-0.74927 0.40633,-0.13479 0.85643,-0.0651 1.28373,-0.0389 m 146.13166,1.63153 c 0,0 0,0 0,0 -0.24823,0.0353 -0.52921,-0.0221 -0.74472,0.10608 -0.0927,0.0552 0.20529,0.0903 0.2724,0.17478 0.20651,0.25988 0.24112,0.68463 0.53424,0.84039 0.14981,0.0796 0.27276,-0.21948 0.34771,-0.3717 0.0493,-0.10001 0.0534,-0.23661 -3e-5,-0.33442 m -146.64727,-0.4187 c 0,0 0,0 0,0 -0.38964,10e-4 -0.83458,-0.19681 -1.1689,0.003 -0.2194,0.13132 -0.20131,0.52246 -0.10592,0.75971 0.2618,0.65112 0.65897,1.25522 1.12651,1.77856 0.32622,0.36518 0.71988,0.80289 1.20847,0.83518 0.25159,0.0166 0.17491,-0.50299 0.11424,-0.74771 -0.18112,-0.73072 -0.51403,-1.4166 -0.82107,-2.10398 m 212.20617,7.76694 c 0,0 0,0 0,0 0.2825,0.17615 0.59799,0.30804 0.84747,0.52844 0.64819,0.5726 1.30185,1.15424 1.83139,1.83805 0.26245,0.33898 0.54163,0.75457 0.50717,1.18191 -0.0684,0.84885 -0.4928,1.63196 -0.79803,2.427 -0.10062,0.26203 -0.24527,0.50919 -0.41513,0.73264 -0.13007,0.17108 -0.26679,0.38019 -0.47406,0.43698 -0.41016,0.11236 -0.85309,0.0947 -1.27512,0.0423 -0.39786,-0.0494 -0.83523,-0.0988 -1.15253,-0.34391 -0.63888,-0.4934 -1.14962,-1.14373 -1.62161,-1.79861 -0.24753,-0.34342 -0.42624,-0.74759 -0.5123,-1.16208 -0.0884,-0.4259 -0.11111,-0.8844 0,-1.30496 0.16678,-0.63114 0.42029,-1.26093 0.81531,-1.78064 0.29431,-0.38724 0.72675,-0.68863 1.18515,-0.8512 m -14.16693,41.87723 c 0,0 0,0 0,0 0.89133,0.36444 1.86835,0.56586 2.67395,1.09332 0.6467,0.42346 1.13336,1.0658 1.58331,1.69434 0.36997,0.51678 0.73545,1.0813 0.85108,1.70624 0.17517,0.94671 0.12735,1.9342 -10e-4,2.88836 -0.0433,0.32166 -0.28168,0.59528 -0.49997,0.83539 -0.5925,0.65186 -2.25238,1.00757 -1.91483,1.82123 0.38096,0.91821 1.93406,0.48175 2.92072,0.60339 0.12814,0.0158 0.20102,-0.20007 0.33011,-0.20263 0.12314,-0.002 0.19385,0.18982 0.31701,0.18982 0.12317,0 0.20694,-0.24488 0.31708,-0.18976 0.30823,0.15429 0.5438,0.43823 0.74219,0.72009 0.0641,0.0911 0.0539,0.23682 0,0.33435 -0.0955,0.17255 -0.24957,0.31555 -0.41708,0.41962 -0.0932,0.0579 -0.21668,0.0421 -0.32636,0.0423 -0.95718,0.002 -1.92038,0.0731 -2.87131,-0.0361 -1.44302,-0.16577 -2.86975,-0.4638 -4.2861,-0.78583 -0.37564,-0.0855 -0.74332,-0.23101 -1.07168,-0.43243 -0.18253,-0.11194 -0.38346,-0.27338 -0.4224,-0.48395 -0.0311,-0.16827 0.0878,-0.39367 0.24991,-0.44855 1.11612,-0.37799 2.31052,-0.47601 3.4429,-0.80194 0.26966,-0.0776 0.52097,-0.22613 0.73972,-0.40185 0.36087,-0.28992 0.68969,-0.62293 0.9823,-0.98157 0.20514,-0.25153 0.4259,-0.51947 0.5,-0.83545 0.0992,-0.42328 0.0809,-0.87671 0.002,-1.3042 -0.0956,-0.5155 -0.21338,-1.05865 -0.51859,-1.48498 -0.52533,-0.73383 -1.23657,-1.31873 -1.91482,-1.91407 -0.24393,-0.21411 -0.54065,-0.36431 -0.83548,-0.5 -0.10239,-0.0471 -0.22318,-0.038 -0.33591,-0.0391 -1.26651,-0.012 -2.54459,-0.16998 -3.79971,-1.2e-4 -0.85273,0.11542 -1.63974,0.52692 -2.43949,0.8446 -0.25784,0.10242 -0.5079,0.23694 -0.72333,0.41181 -0.32794,0.26617 -0.62902,0.56927 -0.89236,0.89947 -0.16675,0.20911 -0.26505,0.46485 -0.38593,0.70343 -0.29327,0.57898 -0.62017,1.14411 -0.85629,1.74866 -0.23883,0.61151 -0.4736,1.23682 -0.56363,1.88709 -0.0878,0.63391 -0.0495,1.2854 0.0366,1.91949 0.21799,1.60614 0.41318,3.22931 0.87311,4.78351 0.34726,1.17346 0.8927,2.2926 1.53006,3.33728 0.319,0.52289 0.83795,0.89642 1.29889,1.2998 0.4668,0.40845 0.87793,0.97406 1.47821,1.13038 0.92886,0.24194 1.93506,0.17572 2.87955,0.005 0.67438,-0.12219 1.22714,-0.61493 1.86551,-0.86438 0.16928,-0.0662 0.38327,0.0165 0.53994,-0.0755 0.22379,-0.13153 0.31836,-0.42682 0.54123,-0.55981 0.0874,-0.0521 0.21146,0.007 0.29993,0.0579 0.23914,0.13635 0.54782,0.24182 0.66367,0.49151 0.0956,0.20612 -0.0228,0.46711 -0.12473,0.67017 -0.0883,0.17609 -0.25952,0.30158 -0.4201,0.41565 -0.18964,0.13464 -0.40552,0.22968 -0.6189,0.32227 -0.45541,0.19763 -0.90079,0.43835 -1.38513,0.5473 -1.19171,0.26819 -2.39716,0.5639 -3.61856,0.57867 -0.5239,0.006 -1.01645,-0.28119 -1.48435,-0.5169 -0.20553,-0.10352 -0.30899,-0.34607 -0.49569,-0.48066 -0.5792,-0.41742 -1.26041,-0.69561 -1.79419,-1.16974 -0.37607,-0.33404 -0.63428,-0.78509 -0.89261,-1.21673 -0.36136,-0.60376 -0.66721,-1.24011 -0.9606,-1.87964 -0.22992,-0.50116 -0.45398,-1.00891 -0.60758,-1.53839 -0.32831,-1.1319 -0.72067,-2.26264 -0.83517,-3.43561 -0.16544,-1.69507 -0.33469,-3.43976 0.001,-5.10943 0.26864,-1.33552 1.03466,-2.5365 1.76776,-3.6847 0.41043,-0.64276 1.0184,-1.14618 1.61776,-1.61773 0.37198,-0.29261 0.82279,-0.47504 1.26313,-0.6485 0.79104,-0.31165 1.59793,-0.58979 2.42102,-0.80292 0.21344,-0.0552 0.44595,-0.0421 0.66137,0.005 0.12098,0.0264 0.18506,0.21198 0.30875,0.20642 0.22702,-0.0101 0.40808,-0.23376 0.63486,-0.24847"
             style="fill:#000000;fill-opacity:1;fill-rule:nonzero;stroke:none"
             id="path465" />
        </g>
      </g>
    </g>
  </g>
</svg>
