<?xml version="1.0" encoding="UTF-8" standalone="no"?>
<!-- Created with Inkscape (http://www.inkscape.org/) -->

<svg
   version="1.1"
   id="svg18"
   width="381.86407"
   height="241.13914"
   viewBox="0 0 381.86407 241.13914"
   sodipodi:docname="kittenlab-2.pdf"
   xmlns:inkscape="http://www.inkscape.org/namespaces/inkscape"
   xmlns:sodipodi="http://sodipodi.sourceforge.net/DTD/sodipodi-0.dtd"
   xmlns="http://www.w3.org/2000/svg"
   xmlns:svg="http://www.w3.org/2000/svg">
  <defs
     id="defs22" />
  <sodipodi:namedview
     id="namedview20"
     pagecolor="#ffffff"
     bordercolor="#000000"
     borderopacity="0.25"
     inkscape:showpageshadow="2"
     inkscape:pageopacity="0.0"
     inkscape:pagecheckerboard="0"
     inkscape:deskcolor="#d1d1d1"
     showgrid="false" />
  <g
     id="g26"
     inkscape:groupmode="layer"
     inkscape:label="Page 1"
     transform="matrix(1.3333333,0,0,-1.3333333,-103.90338,748.27562)">
    <g
       id="g46"
       transform="translate(0,-6.9541124e-5)">
      <g
         id="g48">
        <g
           id="g50">
          <path
             d="m 290.23328,380.44781 c 0,0 0,0 0,0 2.85778,0.23606 5.72268,0.39814 8.57339,0.7082 1.62009,0.1762 3.22788,0.45755 4.83115,0.74969 0.5729,0.10443 1.11978,0.32584 1.69104,0.43884 1.63006,0.32242 3.29318,0.47919 4.90902,0.86661 1.2327,0.29556 2.42209,0.75165 3.61606,1.17743 1.04145,0.37137 2.07657,0.76474 3.08728,1.21304 1.63211,0.72394 3.24262,1.49732 4.83658,2.30167 0.96564,0.48727 1.9321,0.98196 2.8389,1.57156 0.32696,0.21259 0.50198,0.61753 0.83643,0.81818 0.73464,0.44083 1.59115,0.65082 2.3312,1.08249 0.53473,0.31189 0.94513,0.80673 1.4701,1.13483 1.16995,0.73123 2.42559,1.31784 3.60348,2.03622 0.97607,0.59534 1.92294,1.23886 2.85403,1.90234 0.19468,0.13877 0.31852,0.36319 0.51542,0.49875 0.50232,0.34583 1.03054,0.65506 1.57095,0.93765 0.55585,0.29072 1.19119,0.43113 1.7128,0.77961 0.44858,0.29968 0.72189,0.81161 1.1535,1.13531 0.42215,0.31656 0.96222,0.45117 1.38434,0.76779 0.43027,0.32279 0.72467,0.80252 1.14926,1.13272 0.53217,0.41382 1.18738,0.65564 1.70526,1.08719 0.75699,0.63086 1.36173,1.4278 2.09827,2.0824 0.21667,0.19257 0.54156,0.24103 0.74658,0.44598 0.23184,0.23172 0.29657,0.59778 0.52893,0.82895 0.23377,0.23264 0.58939,0.31018 0.83603,0.52918 0.65061,0.57754 1.30963,1.16083 1.84235,1.84866 0.93329,1.20508 1.75924,2.49353 2.53622,3.80487 0.75382,1.27222 1.29965,2.65998 2.0495,3.93454 0.31076,0.52817 0.83203,0.91651 1.12198,1.45636 0.93765,1.7457 1.76706,3.5499 2.54568,5.37207 0.39277,0.91916 0.69043,1.87812 0.96326,2.83969 0.66861,2.35633 1.30356,4.72342 1.85959,7.10883 0.48657,2.08743 0.93683,4.18631 1.26688,6.30414 0.38424,2.46551 0.75186,4.94229 0.87417,7.43454 0.1709,3.48163 0.2323,6.97909 0.004,10.45739 -0.15259,2.32526 -0.63229,4.62311 -1.14282,6.89676 -0.93234,4.1521 -2.02673,8.26786 -3.18198,12.3635 -0.54339,1.92645 -1.19406,3.82382 -1.91101,5.69263 -1.04635,2.72735 -2.30313,5.37014 -3.37567,8.08731 -0.51272,1.29895 -0.87344,2.6542 -1.37823,3.95626 -0.56986,1.46994 -1.159,2.9354 -1.84391,4.35538 -0.58902,1.22113 -1.22924,2.4231 -1.97253,3.55698 -0.86884,1.32535 -1.86914,2.56067 -2.85251,3.8034 -0.24106,0.30463 -0.5899,0.51627 -0.81573,0.83237 -0.30674,0.42932 -0.4206,0.98697 -0.76789,1.38425 -1.09146,1.24865 -2.30304,2.38931 -3.51767,3.51855 -0.24411,0.22693 -0.59085,0.3194 -0.8439,0.53632 -0.49039,0.42035 -0.86621,0.96728 -1.37482,1.36535 -0.94613,0.74061 -2.00131,1.33143 -2.97308,2.03809 -0.1933,0.14056 -0.30768,0.38007 -0.51523,0.4986 -1.74008,0.99371 -3.47003,2.02282 -5.30597,2.82568 -1.31201,0.57373 -2.70688,0.94989 -4.0986,1.28687 -2.02682,0.49078 -4.10452,0.74572 -6.14148,1.19256 -0.18466,0.0405 -0.31433,0.23877 -0.50159,0.26477 -0.49032,0.0682 -1.02014,0.18146 -1.48504,0.0114 -0.28852,-0.10553 -0.43204,-0.46094 -0.53519,-0.75031 -0.0337,-0.0947 0.0899,-0.20032 0.18216,-0.24017 0.60333,-0.26044 1.22287,-0.49707 1.86359,-0.64295 1.79876,-0.40942 3.64456,-0.59399 5.4396,-1.01941 1.56784,-0.37158 3.11026,-0.8507 4.63608,-1.36847 0.42267,-0.14343 0.81751,-0.367 1.19232,-0.60931 0.19623,-0.12683 0.29837,-0.37622 0.50403,-0.48718 1.18106,-0.63745 2.47354,-1.06116 3.62918,-1.74359 0.90521,-0.53461 1.71274,-1.22242 2.52448,-1.89045 0.41473,-0.34136 0.73462,-0.78765 1.14724,-1.1315 0.22541,-0.1878 0.53522,-0.25836 0.75452,-0.45327 0.73645,-0.65464 1.36209,-1.42719 2.09811,-2.08234 0.24894,-0.22159 0.58915,-0.32138 0.84385,-0.53632 0.40539,-0.3421 0.8042,-0.70303 1.12524,-1.12533 0.34378,-0.45221 0.5195,-1.01535 0.8522,-1.47577 0.22754,-0.31485 0.58725,-0.51816 0.81574,-0.83234 0.62048,-0.85327 1.0881,-1.81216 1.72113,-2.65619 0.32226,-0.42968 0.78592,-0.73605 1.13147,-1.14724 0.24155,-0.28745 0.44122,-0.60999 0.62186,-0.93915 0.45791,-0.83447 0.90438,-1.67728 1.29116,-2.54703 0.29343,-0.65985 0.46167,-1.37018 0.74597,-2.03403 0.33787,-0.78888 0.80588,-1.51968 1.11829,-2.319 0.63989,-1.63729 1.09842,-3.34152 1.7345,-4.98031 1.17657,-3.03144 2.58621,-5.97122 3.7016,-9.0257 0.77136,-2.11233 1.38812,-4.28082 1.95245,-6.45761 1.18121,-4.55627 2.72217,-9.06045 3.28223,-13.73389 0.55383,-4.62139 0.22647,-9.31274 0.037,-13.96337 -0.0979,-2.40452 -0.50693,-4.78891 -0.89768,-7.16349 -0.32678,-1.98599 -0.78982,-3.94796 -1.25296,-5.90664 -0.46487,-1.96607 -0.97406,-3.92231 -1.53039,-5.86448 -0.27628,-0.96456 -0.56235,-1.93225 -0.96595,-2.85086 -0.74682,-1.6997 -1.59872,-3.35287 -2.47821,-4.98791 -0.34891,-0.64865 -0.84179,-1.21164 -1.20209,-1.85407 -0.72045,-1.28457 -1.29653,-2.64776 -2.03686,-3.92105 -0.57465,-0.9884 -1.22382,-1.93383 -1.90234,-2.854 -0.23011,-0.31204 -0.57102,-0.5286 -0.81446,-0.83029 -0.20929,-0.25943 -0.30029,-0.60861 -0.53637,-0.84391 -0.42652,-0.42514 -0.98404,-0.70047 -1.42478,-1.11084 -1.12936,-1.05151 -2.11181,-2.25836 -3.27853,-3.26828 -0.39893,-0.34533 -0.96213,-0.45123 -1.38425,-0.76785 -0.43027,-0.32275 -0.7146,-0.81589 -1.14932,-1.13266 -1.5398,-1.12201 -3.15216,-2.14163 -4.75583,-3.17022 -0.44434,-0.28501 -0.94556,-0.47547 -1.38474,-0.76832 -0.19888,-0.13266 -0.32235,-0.35772 -0.51541,-0.49877 -0.61554,-0.44974 -1.24945,-0.87607 -1.9031,-1.26838 -1.18317,-0.71008 -2.43036,-1.311 -3.60401,-2.03674 -1.04257,-0.64471 -1.98764,-1.4404 -3.03882,-2.07101 -0.5379,-0.32273 -1.17523,-0.45633 -1.7128,-0.77967 -0.53042,-0.31903 -0.92645,-0.83841 -1.4699,-1.13467 -1.55649,-0.84854 -3.21872,-1.48831 -4.80243,-2.28482 -0.73441,-0.36939 -1.40308,-0.86417 -2.14832,-1.21115 -1.01199,-0.47116 -2.04941,-0.89484 -3.11169,-1.23786 -1.58371,-0.51138 -3.19355,-0.94494 -4.81461,-1.32153 -2.07172,-0.48129 -4.16251,-0.88058 -6.25699,-1.25055 -1.71612,-0.30313 -3.45285,-0.47873 -5.17135,-0.7681 -0.49573,-0.0835 -0.96518,-0.31985 -1.46698,-0.3497 -0.22718,-0.0135 -0.41736,0.22299 -0.64496,0.22397 -0.33072,0.001 -0.63742,-0.21796 -0.96814,-0.21716 -0.12406,2.7e-4 -0.17868,0.19449 -0.30005,0.22018 -0.31314,0.0663 -0.63907,0.0465 -0.95914,0.0465 -0.21463,0 -0.43377,0.005 -0.64218,-0.0465 -0.22031,-0.0541 -0.40008,-0.2558 -0.62671,-0.26529 -1.89929,-0.0796 -3.8034,-0.0745 -5.70291,0 -0.22711,0.009 -0.40768,0.24851 -0.63498,0.24851 -0.22732,0 -0.40842,-0.23068 -0.63504,-0.24851 -0.84152,-0.0661 -1.69052,-0.0626 -2.53235,-3.9e-4 -1.82434,0.13479 -3.64175,0.35678 -5.45602,0.59076 -1.42356,0.18359 -2.84595,0.38775 -4.25495,0.66165 -0.35125,0.0683 -0.6625,0.27932 -1.01068,0.36194 -1.40219,0.33267 -2.85168,0.46917 -4.23239,0.88202 -1.68179,0.50286 -3.3161,1.16137 -4.92776,1.85693 -0.215,0.0928 -0.31565,0.35077 -0.50544,0.48794 -0.21673,0.15668 -0.46258,0.26957 -0.70336,0.3859 -1.38343,0.66833 -2.82767,1.21677 -4.16816,1.96756 -1.53451,0.85947 -3.00689,1.83145 -4.43861,2.85303 -0.43771,0.31231 -0.7433,0.77923 -1.14806,1.13324 -0.44162,0.38623 -0.95608,0.68539 -1.38679,1.08371 -0.96636,0.89364 -1.83963,1.884 -2.79796,2.78625 -0.0967,0.091 -0.26988,0.0793 -0.35445,0.1817 -0.42019,0.50876 -0.71556,1.11243 -1.13511,1.62171 -0.36151,0.43881 -0.82375,0.78592 -1.19979,1.21237 -0.0878,0.0996 -0.0879,0.26044 -0.18173,0.3544 -0.41717,0.41806 -0.95387,0.7138 -1.33472,1.16519 -0.43472,0.51526 -0.6954,1.15674 -1.0872,1.70532 -0.66576,0.93222 -1.4474,1.78034 -2.08288,2.73346 -0.42399,0.6359 -0.67431,1.37546 -1.08603,2.01938 -1.09322,1.70975 -2.3586,3.30679 -3.42397,5.03406 -0.31004,0.50265 -0.42371,1.10458 -0.68809,1.63269 -0.26392,0.52716 -0.62476,1.00159 -0.89347,1.5263 -1.38324,2.70136 -2.77948,5.39786 -4.06085,8.14896 -0.65929,1.4155 -1.26891,2.85922 -1.75717,4.34238 -0.10181,0.30926 -0.11116,0.67303 0.006,0.97677 0.0541,0.14014 0.27681,0.13642 0.42679,0.14469 0.73735,0.0405 1.48042,0.0724 2.21538,6.1e-4 1.38336,-0.13519 2.73759,-0.51428 4.12352,-0.62009 0.22444,-0.0171 0.39932,0.24796 0.62422,0.2576 0.22446,0.01 0.41792,-0.20413 0.64258,-0.20337 0.12378,4e-4 0.18889,0.17511 0.30862,0.20648 0.20682,0.0542 0.42681,0.0582 0.64,0.0421 2.31069,-0.17478 4.61998,-0.37299 6.92467,-0.61423 0.54584,-0.0571 1.07364,-0.27551 1.62244,-0.28037 0.23269,-0.002 0.41838,0.22138 0.64781,0.26029 0.21113,0.0358 0.43442,0.0144 0.64111,-0.0416 0.12529,-0.0339 0.19254,-0.23156 0.32176,-0.21933 1.16922,0.11051 2.31092,0.42661 3.4755,0.57831 0.212,0.0276 0.4322,0.008 0.63997,-0.0422 0.22049,-0.0535 0.40037,-0.25147 0.62683,-0.26526 1.26507,-0.0772 2.53491,-0.016 3.80229,-0.005 0.32007,0.003 0.64613,-0.0202 0.95909,0.0469 0.12198,0.0262 0.18039,0.1893 0.30045,0.22321 0.20571,0.0581 0.42703,0.0618 0.63989,0.0422 1.83267,-0.16846 3.66385,-0.36084 5.48794,-0.60547 0.56855,-0.0763 1.11646,-0.27057 1.68363,-0.35632 1.5238,-0.23047 3.06845,-0.31949 4.58533,-0.59174 0.66354,-0.11904 1.73465,0.0639 1.9378,-0.57894 0.20355,-0.64402 -0.88702,-1.02506 -1.25107,-1.594 -0.22836,-0.35693 -0.39923,-0.75491 -0.51303,-1.16305 -0.0591,-0.21216 -0.076,-0.45569 0.005,-0.66068 0.0724,-0.18426 0.25125,-0.31641 0.41998,-0.41995 0.093,-0.0571 0.21881,-0.0615 0.32526,-0.0375 0.19574,0.0442 0.44043,0.0705 0.55377,0.23612 0.35416,0.51739 0.45496,1.17532 0.77948,1.71182 0.39346,0.65045 0.74695,1.38269 1.36237,1.82895 0.57925,0.42001 1.45281,0.24606 2.04766,0.64368 0.22605,0.15109 0.14029,0.53524 0.12198,0.80654 -0.007,0.098 -0.10415,0.17911 -0.19159,0.22385 -0.54089,0.27686 -1.18911,0.3587 -1.67065,0.72934 -0.44422,0.34189 -0.71485,0.8671 -1.01697,1.33923 -0.27109,0.42359 -0.35846,0.96592 -0.69641,1.33832 -0.0996,0.10968 -0.29971,-0.031 -0.43472,-0.0919 -0.26679,-0.1203 -0.54999,-0.23809 -0.7566,-0.44537 -0.14581,-0.1463 -0.21679,-0.36264 -0.2517,-0.56622 -0.0362,-0.21134 -0.0908,-0.4755 0.0446,-0.64163 0.13736,-0.16846 0.46009,-0.0414 0.62635,-0.18137 0.34957,-0.29434 0.65612,-0.65912 0.85849,-1.06888 0.0659,-0.13354 0.0307,-0.4198 -0.1178,-0.43094 -0.41098,-0.0308 -0.78583,0.25632 -1.19083,0.33277 -1.77258,0.3345 -3.54974,0.65008 -5.33633,0.89904 -1.83017,0.25504 -3.66577,0.49115 -5.50968,0.61237 -1.264,0.0831 -2.53601,0.0801 -3.80018,-4.6e-4 -0.33226,-0.0212 -0.61899,-0.30237 -0.95192,-0.30237 -0.33295,0 -0.61945,0.28568 -0.952,0.30237 -1.68751,0.0847 -3.3815,0.0861 -5.06897,0 -0.33337,-0.017 -0.62019,-0.2825 -0.95309,-0.30737 -1.05249,-0.0786 -2.11263,-0.0614 -3.16631,-4.3e-4 -4.42676,0.25632 -8.84999,0.57868 -13.26843,0.95203 -0.55174,0.0466 -1.08101,0.25747 -1.63249,0.30704 -0.68366,0.0614 -1.64911,-0.52576 -2.05908,0.0248 -0.94925,1.27475 -1.00004,3.02182 -1.36205,4.56939 -0.40353,1.72504 -0.68155,3.4787 -0.93092,5.2327 -0.45722,3.21594 -0.94301,6.43313 -1.18814,9.67218 -0.1514,2.00055 -0.0446,4.01303 6.1e-4,6.01877 0.003,0.15017 0.0384,0.32058 0.14465,0.42679 0.0778,0.0778 0.21695,0.0446 0.32695,0.0448 0.31961,7.3e-4 0.644,0.0181 0.95793,-0.0419 0.22159,-0.0424 0.39951,-0.27567 0.62462,-0.26066 3.17888,0.21213 6.33041,0.76618 9.51176,0.93708 2.63637,0.1416 5.28084,0.0502 7.92054,-7.7e-4 0.14993,-0.003 0.46385,-0.0167 0.42044,-0.16021 -0.14594,-0.48258 -0.60022,-0.81333 -0.84769,-1.25257 -0.0539,-0.0956 -0.0423,-0.21676 -0.042,-0.3265 6.1e-4,-0.21436 -0.0659,-0.45789 0.0447,-0.64154 0.077,-0.12793 0.27635,-0.14103 0.42567,-0.13968 0.16411,0.001 0.34924,0.0362 0.46962,0.14776 1.19718,1.10913 2.39949,2.22577 3.44493,3.47895 0.1389,0.16647 0.12251,0.47155 0,0.65042 -0.39804,0.5812 -0.90265,1.10461 -1.47918,1.5094 -0.84453,0.59295 -1.80625,1.00058 -2.73531,1.44964 -0.10098,0.0488 -0.22368,0.0499 -0.33472,0.0342 -0.16218,-0.023 -0.32902,-0.0623 -0.46859,-0.14807 -0.11777,-0.0723 -0.25641,-0.17261 -0.27604,-0.30942 -0.0904,-0.63003 -0.087,-1.27408 -0.0423,-1.90899 0.0138,-0.19632 0.35617,-0.41236 0.2153,-0.54981 -0.33619,-0.32803 -0.84941,-0.42767 -1.31025,-0.51855 -0.4236,-0.0835 -0.86722,-0.0517 -1.29529,0.005 -0.12271,0.0162 -0.18497,0.21203 -0.30861,0.20654 -0.22708,-0.0101 -0.40881,-0.22629 -0.63503,-0.24847 -0.63014,-0.0618 -1.2691,-0.0591 -1.89952,0 -0.33468,0.0314 -0.63568,0.2716 -0.97183,0.26928 -0.47137,-0.003 -0.91672,-0.23178 -1.38504,-0.28555 -2.16853,-0.24905 -4.34038,-0.48331 -6.51875,-0.62213 -1.054,-0.0672 -2.11322,-0.0392 -3.16846,0.005 -0.15009,0.006 -0.32057,0.0385 -0.42679,0.14468 -0.0778,0.0778 -0.0445,0.21695 -0.0448,0.32697 -0.003,0.8515 -0.0691,1.70929 0.036,2.55429 0.48299,3.88269 1.08644,7.75027 1.72602,11.61026 0.2705,1.63263 0.59353,3.25891 1.00334,4.86224 0.354,1.38504 0.77614,2.75574 1.28521,4.09158 0.64876,1.70243 1.41399,3.3591 2.18348,5.01047 0.18919,0.40604 0.31198,0.91177 0.68888,1.15387 0.32357,0.20783 0.77158,0.0761 1.15328,0.0293 0.2256,-0.0276 0.40768,-0.24848 0.63498,-0.24848 0.22729,0 0.40812,0.23478 0.63502,0.24848 1.15898,0.07 2.32993,0.13424 3.48328,3.9e-4 1.3687,-0.15884 2.702,-0.54574 4.04033,-0.87359 0.0674,-0.0165 0.19537,-0.10553 0.14314,-0.15128 -0.33273,-0.29132 -0.84083,-0.36603 -1.12292,-0.70663 -0.1381,-0.16672 -0.0793,-0.44797 -2e-4,-0.64951 0.0723,-0.18426 0.25128,-0.31628 0.41994,-0.41992 0.0928,-0.057 0.22039,-0.0695 0.32455,-0.0376 0.38574,0.11795 0.76642,0.26914 1.11215,0.4769 0.50208,0.30176 0.88814,0.78623 1.41516,1.04193 0.11423,0.0555 0.19947,-0.20804 0.32596,-0.19702 0.18521,0.0161 0.37186,0.12363 0.4892,0.26782 0.26178,0.32166 0.32829,0.78034 0.61087,1.0839 0.38501,0.4136 0.79307,1.1123 1.35115,1.02374 0.47365,-0.0752 0.31297,-0.91364 0.5569,-1.32654 0.28497,-0.48236 0.93054,-0.78452 1.01723,-1.33804 0.74952,-4.78647 0.84593,-9.65509 1.45683,-14.46125 0.26562,-2.08981 0.67755,-4.16241 1.17073,-6.21048 0.74383,-3.08902 1.50111,-6.18444 2.53726,-9.18808 0.48448,-1.40441 1.47138,-2.5939 2.00537,-3.98025 0.0531,-0.13785 -0.29258,-0.17426 -0.42788,-0.11502 -0.43235,0.18921 -0.79981,0.50656 -1.16095,0.81039 -0.41102,0.34577 -0.72083,0.8049 -1.14727,1.13147 -0.56002,0.42884 -1.09749,1.01349 -1.79457,1.12134 -0.34451,0.0533 -0.54988,-0.44302 -0.75125,-0.72754 -0.0642,-0.0908 -0.0757,-0.25238 2.3e-4,-0.33359 0.26987,-0.28857 0.6647,-0.43258 0.96083,-0.69415 0.51512,-0.45499 0.91861,-1.03436 1.46628,-1.44961 0.79397,-0.60199 1.67074,-1.0882 2.53497,-1.58411 0.7563,-0.43399 1.70619,-0.58673 2.32271,-1.20337 0.79749,-0.79767 1.12283,-1.95987 1.76617,-2.88638 0.22113,-0.31848 0.58191,-0.52014 0.81455,-0.83033 0.40448,-0.5393 0.69534,-1.15676 1.08719,-1.70532 0.13852,-0.19391 0.36538,-0.31506 0.49756,-0.51333 0.71557,-1.07337 1.25128,-2.26767 2.03802,-3.29001 0.28742,-0.37354 0.82346,-0.48783 1.13873,-0.83817 0.64524,-0.71692 1.07328,-1.61032 1.71384,-2.33139 1.00168,-1.12762 2.09171,-2.17599 3.19952,-3.19955 0.24482,-0.22617 0.58356,-0.32816 0.84388,-0.53632 0.27163,-0.21722 0.45877,-0.53219 0.74301,-0.73269 0.43115,-0.30414 0.96206,-0.4513 1.38421,-0.76786 0.43161,-0.32367 0.70212,-0.83981 1.15354,-1.13525 0.79043,-0.5174 1.64981,-0.93454 2.53061,-1.27616 1.7424,-0.67581 3.57083,-1.11163 5.32031,-1.76892 0.27188,-0.10214 0.53983,-0.26644 0.71469,-0.49832 0.0975,-0.1293 0.17072,-0.41021 0.0272,-0.48517 -1.00781,-0.52606 -2.27911,-0.50943 -3.2026,-1.17242 -1.16382,-0.83554 -2.04706,-2.02524 -2.8776,-3.19269 -0.46997,-0.66064 -0.70703,-1.46286 -0.978,-2.22705 -0.42944,-1.211 -0.9317,-2.41742 -1.11962,-3.68848 -0.20173,-1.36438 -0.1456,-2.76248 -0.0375,-4.13745 0.0698,-0.88733 0.33762,-1.74933 0.56784,-2.60913 0.15811,-0.59042 0.3356,-1.18106 0.59521,-1.7344 0.26212,-0.55869 0.57999,-1.09696 0.96091,-1.58246 0.37805,-0.48184 0.81275,-0.92728 1.29965,-1.2988 0.37143,-0.28339 0.81568,-0.45959 1.24533,-0.64304 0.76636,-0.32717 1.53357,-0.66677 2.33735,-0.88662 1.3912,-0.38056 2.84439,-0.51013 4.23025,-0.90979 0.1004,-0.029 0.0585,-0.22016 0.0112,-0.31336 -0.62695,-1.23562 -1.41342,-2.38751 -2.01492,-3.63571 -0.0629,-0.13052 -0.01,-0.30154 0.0551,-0.43118 0.12284,-0.24603 0.25919,-0.51508 0.49109,-0.66287 0.1478,-0.0942 0.3569,-0.0327 0.52561,0.0149 0.097,0.0274 0.18274,0.10818 0.22866,0.19791 0.27045,0.52856 0.43473,1.10739 0.70877,1.63412 0.52326,1.00555 0.87577,2.1579 1.68006,2.9567 0.44165,0.43869 1.18252,0.41647 1.79947,0.49926 0.12729,0.0171 0.198,-0.17416 0.31985,-0.21475 0.10944,-0.0364 0.23374,-0.0336 0.34595,-0.007 0.64413,0.15287 1.28601,0.32279 1.91055,0.54236 0.68457,0.24063 1.35962,0.51416 2.01001,0.83588 0.3479,0.17206 0.69824,0.36548 0.97306,0.63959 0.71756,0.7156 1.45004,1.44305 1.98083,2.30636 0.44595,0.72528 0.64984,1.5762 0.9057,2.38828 0.23297,0.7395 0.4389,1.49191 0.55805,2.25799 0.0664,0.42682 0.0512,0.86756 -0.005,1.29575 -0.0162,0.12274 -0.20657,0.18484 -0.20657,0.30865 0,0.12381 0.18704,0.18644 0.20657,0.30869 0.0672,0.42032 0.0457,0.85043 0.0468,1.27606 8.5e-4,0.32382 0.009,0.65082 -0.0411,0.97067 -0.15549,0.98377 -0.3096,1.9722 -0.57574,2.93198 -0.22361,0.8064 -0.46424,1.62671 -0.88837,2.34811 -0.4364,0.74222 -1.08493,1.33802 -1.65714,1.98139 -0.28027,0.31512 -0.57168,0.62396 -0.89782,0.89129 -0.25775,0.21128 -0.5907,0.31952 -0.84381,0.53632 -0.45771,0.39203 -0.87555,0.83038 -1.2768,1.28003 -0.0884,0.099 -0.0874,0.26096 -0.18167,0.35437 -0.36316,0.35974 -0.74304,0.71133 -1.17313,0.98758 -0.35598,0.22867 -0.76178,0.37329 -1.16152,0.51205 -0.16306,0.0566 -0.42579,-0.0797 -0.51313,0.0692 -0.40963,0.69821 -0.49106,1.55056 -0.85995,2.27115 -0.24085,0.47045 -0.54755,0.9277 -0.95194,1.268 -0.32354,0.27231 -0.76059,0.37561 -1.16137,0.5105 -0.11228,0.0378 -0.24311,0.0378 -0.35538,0 -0.40079,-0.13489 -0.7934,-0.30216 -1.16144,-0.5105 -0.1384,-0.0784 -0.25049,-0.20431 -0.33704,-0.33774 -0.40509,-0.62445 -0.71414,-1.30874 -1.13104,-1.92538 -0.0354,-0.0524 -0.12759,-0.0442 -0.18808,-0.0256 -1.88534,0.57904 -3.78058,1.13373 -5.63214,1.81311 -0.66617,0.24445 -1.28317,0.60843 -1.90399,0.95212 -0.32846,0.18186 -0.64755,0.38532 -0.93909,0.62189 -0.30163,0.24481 -0.51629,0.5899 -0.83239,0.81573 -0.42933,0.30674 -0.98362,0.42441 -1.38419,0.76783 -1.08899,0.93356 -1.99567,2.06305 -3.05106,3.03439 -0.30478,0.28052 -0.74389,0.40167 -1.01889,0.71146 -0.57138,0.64364 -0.93011,1.45456 -1.48669,2.11108 -0.6377,0.7522 -1.49185,1.31131 -2.08356,2.10019 -1.00155,1.33533 -1.71228,2.86926 -2.66952,4.23676 -0.525,0.75 -1.24768,1.3486 -1.76761,2.10214 -0.45194,0.65497 -0.9664,1.32321 -1.13281,2.10138 -0.22352,1.04513 -0.14866,2.14758 -0.002,3.2063 0.25006,1.80902 0.85025,3.55371 1.18484,5.34899 0.0598,0.32074 0.0895,0.6666 -0.005,0.97873 -0.0576,0.1894 -0.23578,0.34751 -0.42008,0.41983 -0.20147,0.079 -0.43759,0.0449 -0.64929,-1.8e-4 -0.0932,-0.0198 -0.19839,-0.0913 -0.21841,-0.18451 -0.54151,-2.51904 0.25268,-5.66095 -1.45325,-7.59195 -0.91994,-1.04129 -1.40185,2.40064 -2.04486,3.63236 -0.1727,0.33084 -0.29321,0.68829 -0.39774,1.04654 -0.76905,2.63614 -1.54184,5.2723 -2.22186,7.93277 -0.35884,1.40396 -0.69436,2.81915 -0.89322,4.25451 -0.6848,4.94312 -1.20698,9.9076 -1.75586,14.86765 -0.0419,0.37897 -0.21661,0.81955 -0.0159,1.14377 0.21277,0.34381 0.6934,0.42672 1.07338,0.56485 0.0642,0.0233 0.13043,-0.0577 0.17123,-0.11243 0.19988,-0.26807 0.3212,-0.59302 0.54195,-0.84421 0.55183,-0.6279 1.21425,-1.15262 1.76535,-1.78113 0.21972,-0.25061 0.31154,-0.5978 0.53633,-0.84387 0.86165,-0.94327 1.76689,-1.84851 2.71016,-2.71017 0.24608,-0.2248 0.58836,-0.3223 0.84386,-0.53632 0.41174,-0.34488 0.73257,-0.79004 1.14721,-1.13144 0.81613,-0.67206 1.65348,-1.323 2.53757,-1.9028 0.63876,-0.41891 1.3707,-0.68021 2.01843,-1.08508 0.20404,-0.12754 0.31079,-0.3815 0.5195,-0.50122 0.54377,-0.31195 1.16754,-0.46781 1.71186,-0.77881 0.20303,-0.116 0.30243,-0.36981 0.50448,-0.48746 1.06858,-0.62201 2.2265,-1.08322 3.28668,-1.71942 1.30695,-0.7843 2.57663,-1.63361 3.80487,-2.53622 0.37259,-0.27384 0.68439,-0.62607 0.9809,-0.98087 0.24463,-0.29276 0.43012,-0.6304 0.63464,-0.95242 0.53107,-0.83622 1.08735,-1.65805 1.57193,-2.52204 0.72342,-1.28976 1.30863,-2.65475 2.04953,-3.93454 0.42328,-0.73108 1.00162,-1.36361 1.43695,-2.08755 0.20505,-0.34101 0.26322,-0.75861 0.4766,-1.09448 0.13421,-0.21128 0.31625,-0.41632 0.54614,-0.51529 0.19919,-0.0858 0.44217,-0.0599 0.6506,0 0.13282,0.0381 0.25898,0.14718 0.30942,0.27581 0.0977,0.24894 0.23578,0.55835 0.11045,0.79456 -0.62009,1.16861 -1.58289,2.12573 -2.26233,3.26086 -0.75635,1.26355 -1.32355,2.63196 -2.03635,3.92057 -0.0877,0.15844 -0.30484,0.23532 -0.35828,0.40835 -0.0435,0.14102 -0.006,0.32776 0.0989,0.43164 0.0814,0.0807 0.24597,0.0666 0.3439,0.007 1.32828,-0.80832 2.56467,-1.76068 3.88559,-2.58093 0.64911,-0.40308 1.37101,-0.68054 2.01889,-1.08554 0.20328,-0.12708 0.31171,-0.37634 0.51728,-0.4997 1.38543,-0.8313 2.85434,-1.51822 4.23748,-2.35333 0.7591,-0.45831 1.39609,-1.11072 2.18149,-1.52225 1.23581,-0.64758 2.58701,-1.0491 3.85138,-1.63894 0.50363,-0.23493 0.93164,-0.61859 1.44486,-0.83179 1.28881,-0.53537 2.64578,-0.89301 3.94348,-1.40652 0.25247,-0.0999 0.43872,-0.33295 0.69302,-0.4282 1.46741,-0.54965 2.94211,-1.09256 4.45517,-1.50012 0.12375,-0.0333 0.19775,0.17368 0.31937,0.21405 0.10946,0.0363 0.23251,0.0277 0.34598,0.007 1.59555,-0.29264 3.17404,-0.6767 4.77371,-0.94586 2.64706,-0.44541 5.31628,-0.75184 7.96335,-1.19724 0.97512,-0.16409 1.94802,-0.35867 2.89874,-0.63058 0.50485,-0.14438 0.93878,-0.49768 1.45099,-0.61341 0.12448,-0.0281 0.19421,0.18103 0.31753,0.2139 0.20685,0.0552 0.42975,0.0768 0.64096,0.0416 0.32929,-0.0548 0.62009,-0.28537 0.95322,-0.30704 1.06015,-0.069 2.14532,-0.17127 3.18698,0.0378 0.99902,0.20047 1.80698,1.11826 2.82468,1.16861 0.41382,0.0205 0.44754,-0.70776 0.7492,-0.99176 0.2338,-0.22006 0.53525,-0.36011 0.82767,-0.49265 0.1022,-0.0463 0.23016,-0.0745 0.33484,-0.0341 0.62466,0.24073 1.26382,0.48056 1.81387,0.86219 0.49967,0.34668 0.94559,0.78915 1.28934,1.29083 0.36905,0.53854 0.68652,1.14072 0.81543,1.7807 0.14783,0.73377 0.0761,1.50134 -0.004,2.24554 -0.0211,0.19483 -0.15488,0.37089 -0.29346,0.50947 -0.32517,0.32513 -0.63251,0.74557 -1.07752,0.86142 -0.72393,0.1885 -1.5241,0.20608 -2.24423,0.003 -0.7138,-0.20086 -1.15613,-1.08804 -1.89334,-1.16787 -0.55676,-0.0603 -1.0209,0.47631 -1.47571,0.8031 -0.74353,0.53424 -1.36178,1.22924 -2.10223,1.76779 -0.42673,0.31033 -0.95483,0.46115 -1.38419,0.76782 -0.31674,0.22626 -0.51773,0.59067 -0.8345,0.81693 -0.42935,0.30667 -0.94141,0.48089 -1.38419,0.76782 -0.44396,0.28772 -0.86145,0.61578 -1.26983,0.95205 -0.82056,0.67569 -1.53781,1.48212 -2.41507,2.08234 -1.13974,0.77982 -2.45798,1.272 -3.60703,2.03806 -0.4469,0.29791 -0.72784,0.79593 -1.14724,1.13147 -0.64084,0.51263 -1.38141,0.89154 -2.02225,1.40414 -0.42001,0.33594 -0.70172,0.8342 -1.14923,1.13254 -0.83203,0.55472 -1.82019,0.84726 -2.65225,1.40198 -0.44815,0.29876 -0.7204,0.8106 -1.15128,1.13375 -0.42212,0.31659 -0.94141,0.4809 -1.38419,0.76783 -0.444,0.28772 -0.88067,0.59375 -1.26989,0.95205 -0.23828,0.21936 -0.36698,0.53858 -0.59702,0.76657 -0.36676,0.36353 -0.75442,0.71247 -1.18414,0.99881 -2.293,1.52802 -4.57144,3.08905 -6.97428,4.43784 -1.44757,0.81253 -3.10229,1.21323 -4.54766,2.02972 -0.28046,0.15842 -0.52314,0.50263 -0.50443,0.82419 0.0119,0.2041 0.36643,0.1922 0.56613,0.23609 1.09937,0.24157 2.20594,0.45593 3.31986,0.61789 0.21158,0.0308 0.43222,0.008 0.63998,-0.0422 0.22046,-0.0535 0.40213,-0.23361 0.6268,-0.26523 0.3165,-0.0446 0.64401,-0.0179 0.95798,0.0421 0.22189,0.0423 0.39999,0.25073 0.62567,0.26028 0.25171,0.0107 0.48895,-0.28214 0.72809,-0.20282 0.30469,0.10101 0.51575,0.40256 0.68909,0.67276 0.0618,0.0963 0.0219,0.24411 -0.0387,0.34119 -0.13242,0.21209 -0.30237,0.41369 -0.51483,0.5455 -0.3606,0.22369 -0.75482,0.41559 -1.17066,0.50018 -0.0915,0.0186 -0.0691,-0.21329 -0.16119,-0.22928 -2.18329,-0.37951 -4.39755,-0.56375 -6.58093,-0.94265 -0.30603,-0.0531 -0.62018,-0.15668 -0.8638,-0.34931 -0.29614,-0.23413 -0.33084,-0.81998 -0.70203,-0.88873 -0.5011,-0.0928 -0.9917,0.26367 -1.44806,0.49054 -0.40735,0.20248 -0.71582,0.56955 -1.11679,0.78448 -0.50155,0.26886 -1.04025,0.46424 -1.57516,0.65848 -1.94626,0.70679 -3.93741,1.29019 -5.86603,2.04373 -0.5166,0.20181 -0.91986,0.65405 -1.45065,0.81494 -2.49402,0.75602 -5.03275,1.3638 -7.57837,1.92203 -2.17169,0.4762 -4.36804,0.83679 -6.56479,1.17938 -1.58371,0.24701 -3.17221,0.4971 -4.77246,0.58878 -1.58429,0.0908 -3.18674,0.16132 -4.76045,-0.0427 -0.32285,-0.0419 -0.45273,-0.47198 -0.7134,-0.66702 -0.31071,-0.23251 -0.91742,-0.22836 -0.99217,-0.60919 -0.06,-0.30548 0.45711,-0.53189 0.76842,-0.53076 0.95954,0.003 1.86729,0.54342 2.82684,0.54379 1.4924,5.8e-4 2.95422,-0.45926 4.4444,-0.54098 0.23266,-0.0128 0.41671,0.23483 0.64819,0.26171 0.42599,0.0494 0.86246,0.0299 1.28604,-0.0372 0.42123,-0.0668 0.8096,-0.27569 1.22742,-0.36132 2.40008,-0.49204 4.82513,-0.8588 7.22107,-1.37058 1.84778,-0.39471 3.70309,-0.78186 5.5057,-1.34802 0.80765,-0.25366 1.49872,-0.7966 2.28897,-1.10007 1.94657,-0.74747 3.94864,-1.34216 5.91047,-2.04858 0.51306,-0.18476 1.03167,-0.36634 1.51217,-0.62421 0.40421,-0.21695 0.70883,-0.60034 1.12583,-0.7916 0.95819,-0.43942 2.27685,-0.29245 2.96988,-1.08679 0.90524,-1.03766 0.85543,-2.62036 1.37637,-3.89505 0.27972,-0.68454 0.60709,-1.35666 1.02035,-1.96988 0.22629,-0.33575 0.51926,-0.6492 0.87507,-0.84246 0.14346,-0.0779 0.33493,0.0286 0.47781,0.10763 0.12097,0.0669 0.24725,0.17423 0.27618,0.30942 0.0675,0.31531 0.083,0.65655 -0.003,0.96741 -0.0318,0.11523 -0.24122,0.0797 -0.31275,0.1755 -0.28885,0.38696 -0.52841,0.81079 -0.74545,1.24213 -0.38782,0.77081 -0.75223,1.55511 -1.06635,2.35876 -0.0417,0.10666 -0.0407,0.24085 0.0102,0.34342 0.0292,0.0588 0.12646,0.0781 0.18856,0.0568 0.87598,-0.30087 1.77951,-0.55936 2.58832,-1.01068 2.30997,-1.28897 4.51212,-2.76318 6.73755,-4.19321 0.4444,-0.28555 0.87335,-0.59945 1.26776,-0.95083 0.62418,-0.55606 1.11862,-1.25568 1.78119,-1.76538 0.72016,-0.55405 1.60224,-0.86856 2.3371,-1.40293 0.43567,-0.3168 0.70853,-0.82727 1.1514,-1.13388 0.94021,-0.65091 2.02887,-1.06775 2.96902,-1.71869 0.44223,-0.30618 0.7247,-0.80249 1.14932,-1.13269 0.53217,-0.41382 1.17319,-0.67334 1.7053,-1.08722 0.42395,-0.32974 0.70562,-0.82568 1.14721,-1.13141 0.94153,-0.65182 2.00708,-1.10635 2.97318,-1.72113 0.20105,-0.12796 0.31942,-0.35903 0.51336,-0.49755 0.54856,-0.39182 1.17078,-0.6764 1.70526,-1.08722 0.83863,-0.64453 1.55063,-1.4462 2.404,-2.07108 0.34726,-0.25427 0.81698,-0.29993 1.1701,-0.54599 1.73419,-1.20862 3.42542,-2.4808 5.07303,-3.80499 0.40274,-0.32367 0.94092,-0.62543 1.06397,-1.12723 0.10101,-0.41202 -0.29429,-0.79941 -0.50071,-1.16998 -0.0777,-0.13947 -0.19903,-0.26187 -0.33935,-0.33801 -0.42227,-0.22913 -0.85971,-0.4487 -1.32572,-0.56553 -1.09304,-0.27401 -2.20248,-0.67654 -3.32681,-0.6008 -2.07242,0.13962 -4.08069,0.7819 -6.10748,1.23633 -0.35358,0.0793 -0.66931,0.29227 -1.02472,0.36283 -1.72928,0.34326 -3.46539,0.66742 -5.21604,0.87597 -0.1336,0.0159 -0.20928,-0.23361 -0.34237,-0.21386 -2.81183,0.4176 -5.63745,0.81289 -8.39304,1.51113 -2.10962,0.53455 -4.15307,1.3237 -6.15579,2.17539 -2.6702,1.13559 -5.25839,2.45776 -7.84241,3.77768 -0.41864,0.21387 -0.74722,0.574 -1.15033,0.81586 -2.23956,1.34375 -4.55441,2.56109 -6.7735,3.93841 -0.84808,0.52643 -1.58523,1.21625 -2.41799,1.7666 -0.62156,0.41077 -2.59461,0.7594 -1.93854,1.11246 1.71621,0.92361 3.85672,0.57425 5.76928,0.94907 0.0931,0.0182 0.16373,0.12481 0.18342,0.21762 0.0448,0.21173 0.0792,0.44778 1.5e-4,0.64926 -0.0723,0.18429 -0.23047,0.36236 -0.41983,0.42004 -0.3122,0.0951 -0.65589,0.0515 -0.97904,0.006 -1.83313,-0.25836 -3.66147,-0.55767 -5.47769,-0.91601 -0.18707,-0.0369 -0.32489,-0.20853 -0.50711,-0.26474 -0.11215,-0.0346 -0.25104,-0.0601 -0.35211,-4e-4 -0.73309,0.43256 -1.42856,0.92923 -2.10272,1.44888 -0.30292,0.23349 -0.50284,0.58847 -0.81925,0.80329 -0.35901,0.24371 -0.80664,0.32934 -1.17853,0.55298 -0.6918,0.41601 -1.30584,0.95437 -2.0035,1.36056 -1.06852,0.6221 -2.21869,1.09638 -3.28666,1.71942 -0.20709,0.12079 -0.3117,0.37635 -0.51727,0.49967 -1.38525,0.83117 -2.85181,1.52157 -4.237,2.35287 -0.45358,0.27222 -0.87475,0.6001 -1.26977,0.95194 -0.62424,0.55597 -1.14356,1.22479 -1.78116,1.76538 -0.7721,0.65463 -1.65848,1.16485 -2.43737,1.81137 -0.4366,0.36236 -0.839,0.76956 -1.19969,1.20755 -0.61538,0.74728 -1.1062,1.59152 -1.72108,2.3392 -0.36138,0.43942 -0.88147,0.74216 -1.2004,1.21329 -0.14952,0.22085 -0.17376,0.51959 -0.15263,0.78549 0.018,0.22611 0.23386,0.4021 0.26497,0.6268 0.0588,0.42407 0.18945,0.90054 -1.8e-4,1.28439 -0.27637,0.55939 -0.94916,0.83082 -1.29985,1.34687 -0.35234,0.51846 -0.39458,1.21649 -0.7788,1.71185 -0.30056,0.38751 -0.71887,0.77576 -1.20437,0.84503 -0.4231,0.0604 -0.80497,-0.29733 -1.17852,-0.505 -0.13893,-0.0772 -0.26571,-0.19541 -0.33688,-0.33756 -0.40906,-0.81698 -0.47531,-1.83947 -1.09108,-2.51446 -0.20378,-0.22339 -0.5466,0.27109 -0.77951,0.4639 -0.41376,0.34255 -0.73248,0.7904 -1.14746,1.1315 -0.25043,0.20581 -0.52402,0.40725 -0.83518,0.4981 -0.15972,0.0467 -0.34085,-0.0316 -0.48648,-0.11212 -0.12098,-0.0669 -0.23785,-0.17666 -0.2761,-0.30951 -0.06,-0.20834 -0.0435,-0.43796 -2.3e-4,-0.65039 0.0451,-0.22131 0.25721,-0.39984 0.26019,-0.6257 0.003,-0.22638 -0.28955,-0.41238 -0.24355,-0.63403 0.055,-0.26483 0.48052,-0.3646 0.50664,-0.63379 0.019,-0.19519 -0.22186,-0.35431 -0.40355,-0.42819 -0.20402,-0.0829 -0.44517,-0.0499 -0.66067,-0.004 -0.31226,0.0657 -0.58438,0.272 -0.89771,0.33249 -1.79915,0.34738 -3.60705,0.65787 -5.42489,0.88821 -0.523,0.0663 -1.05814,0.0626 -1.58155,-4.2e-4 -0.22523,-0.0271 -0.40281,-0.2291 -0.62678,-0.26526 -0.41976,-0.0678 -0.85045,-0.0674 -1.27487,-0.0419 -0.14904,0.009 -0.32531,0.032 -0.42417,0.14395 -0.0759,0.0859 -0.0616,0.24316 -0.007,0.3439 0.85569,1.57346 1.74389,3.1319 2.71544,4.6366 0.21072,0.32635 0.58265,0.52154 0.81572,0.83236 0.40443,0.53934 0.66168,1.18244 1.0872,1.70533 0.4805,0.59039 1.00459,1.15966 1.61479,1.61477 1.45638,1.08618 3.07355,1.94123 4.55786,2.98892 0.31734,0.22397 0.49813,0.61753 0.83228,0.81556 2.80198,1.66058 5.6457,3.25497 8.54397,4.74115 1.62166,0.83157 3.30548,1.54168 5.00275,2.20541 1.57666,0.61658 3.18878,1.14273 4.80951,1.63177 1.2233,0.36915 2.46478,0.68192 3.71606,0.94083 1.47544,0.30524 2.97992,0.45471 4.45734,0.75031 3.18192,0.63678 6.3223,1.48028 9.51761,2.04614 2.6607,0.47119 5.37134,0.61664 8.03644,1.06244 4.08996,0.68426 8.13156,1.63867 12.22091,2.32641 0.1326,0.0223 0.20884,-0.2304 0.34223,-0.2135 0.85654,0.10883 1.66235,0.5412 2.52502,0.57776 3.69336,0.15668 7.3942,0.0781 11.09006,-3.6e-4 0.22726,-0.005 0.40805,-0.23761 0.6351,-0.24848 0.12274,-0.006 0.19055,0.16565 0.30756,0.20331 0.10983,0.0354 0.23404,0.0345 0.34619,0.007 1.05377,-0.25592 2.06293,-0.72107 3.13919,-0.85376 0.19925,-0.0245 0.36203,0.22718 0.43863,0.41278 0.0826,0.2002 0.14133,0.48572 -1.5e-4,0.64966 -0.3162,0.3664 -0.75812,0.65967 -1.22843,0.77399 -1.50107,0.36493 -3.04687,0.5661 -4.58987,0.64038 -0.74527,0.0359 -1.47299,-0.25031 -2.21656,-0.3125 -0.319,-0.0267 -0.64505,-0.0149 -0.95913,0.0469 -0.2226,0.0437 -0.40344,0.22559 -0.62683,0.2649 -0.21088,0.0372 -0.43384,0.0125 -0.64099,-0.0416 -0.11979,-0.0312 -0.18497,-0.21203 -0.30863,-0.20654 -0.22711,0.0101 -0.4089,0.22595 -0.6351,0.24853 -0.6304,0.0629 -1.26971,0.0625 -1.90057,0.004 -2.29663,-0.21124 -4.58506,-0.50726 -6.87125,-0.81128 -1.42358,-0.18933 -2.84439,-0.40533 -4.25619,-0.66852 -2.40445,-0.44818 -4.77543,-1.0741 -7.18982,-1.46509 -2.67972,-0.43396 -5.40546,-0.55053 -8.08127,-1.00793 -2.80329,-0.47925 -5.55225,-1.23639 -8.33997,-1.7992 -2.07834,-0.41961 -4.17816,-0.72778 -6.25644,-1.14764 -0.79385,-0.1604 -1.58148,-0.35681 -2.35629,-0.59253 -1.56021,-0.47473 -3.12235,-0.95239 -4.64459,-1.53754 -2.0669,-0.79449 -4.12523,-1.62408 -6.11392,-2.5979 -2.16419,-1.05978 -4.22332,-2.32189 -6.32833,-3.49481 -0.74388,-0.41449 -1.51492,-0.78714 -2.21817,-1.26733 -0.32078,-0.21903 -0.51407,-0.59284 -0.83227,-0.81558 -1.80048,-1.26026 -3.86921,-2.15918 -5.50867,-3.62278 -1.30371,-1.16388 -2.18385,-2.7312 -3.20079,-4.15249 -0.57982,-0.81037 -1.09296,-1.66806 -1.58414,-2.53501 -0.54373,-0.95968 -0.58449,-2.35275 -1.51797,-2.9403 -1.30771,-0.82309 -3.00661,-0.91813 -4.55132,-0.87979 -3.09727,0.0768 -6.12431,0.99258 -9.21409,1.22128 -2.42189,0.17926 -4.85923,0.10309 -7.28556,0 -4.03666,-0.17148 -8.06636,-0.49011 -12.09289,-0.82331 -5.49672,-0.45483 -10.99436,-0.91842 -16.47466,-1.54055 -3.94436,-0.44779 -7.87456,-1.02433 -11.79167,-1.66831 -2.59622,-0.42685 -5.16599,-1.00256 -7.74097,-1.543 -1.94157,-0.40747 -3.88267,-0.82122 -5.80777,-1.30056 -3.12359,-0.77778 -6.21023,-1.69977 -9.33567,-2.47004 -3.31499,-0.81698 -6.66536,-1.48495 -9.98301,-2.2911 -1.15124,-0.27976 -2.28692,-1.31025 -3.42048,-0.96579 -0.97261,0.29553 -1.07923,1.72793 -1.71028,2.52487 -0.42617,0.53821 -0.9959,0.94791 -1.44841,1.4642 -0.29914,0.34131 -0.4585,0.80289 -0.8003,1.10144 -0.50771,0.44348 -1.1567,0.69541 -1.70528,1.08719 -0.19456,0.13895 -0.31155,0.37387 -0.5154,0.49875 -1.45312,0.89023 -2.90676,1.79019 -4.43884,2.53635 -0.97266,0.47372 -2.04695,0.70449 -3.04963,1.11081 -0.4416,0.17895 -0.81702,0.51785 -1.27692,0.64242 -0.12236,0.0332 -0.19614,-0.1712 -0.31658,-0.21078 -0.1096,-0.036 -0.23388,-0.034 -0.34601,-0.007 -0.63547,0.15359 -1.23004,0.54361 -1.88379,0.54584 -1.25772,0.004 -2.50414,-0.27414 -3.73626,-0.52661 -0.20733,-0.0425 -0.32351,-0.30695 -0.53116,-0.34781 -2.49746,-0.49173 -5.04408,-0.71567 -7.53484,-1.24027 -1.47287,-0.31021 -2.924923,-0.73666 -4.336193,-1.26001 -0.891083,-0.33044 -1.673637,-0.90506 -2.542274,-1.29071 -0.164696,-0.0731 -0.396248,0.039 -0.535294,-0.0756 -0.454094,-0.37436 -0.714851,-0.9476 -1.165314,-1.32636 -0.515983,-0.43383 -1.163315,-0.68631 -1.705307,-1.08718 -0.25225,-0.18656 -0.485389,-0.40885 -0.665138,-0.66599 -0.302406,-0.43268 -0.496628,-0.93216 -0.768311,-1.38473 -0.196342,-0.32709 -0.394043,-0.65635 -0.634628,-0.95243 -0.244995,-0.30148 -0.600212,-0.50912 -0.815712,-0.83236 -0.634346,-0.95145 -1.105606,-2.00373 -1.718704,-2.969 -0.125374,-0.19742 -0.38398,-0.29483 -0.487495,-0.50452 -0.427865,-0.86673 -0.676705,-1.8132 -1.088402,-2.68774 -0.335984,-0.71371 -0.809746,-1.35663 -1.150444,-2.06812 -1.101395,-2.30004 -2.240952,-4.5877 -3.173333,-6.96133 -0.966049,-2.45932 -1.740486,-4.99103 -2.514137,-7.51746 -0.2658,-0.86801 -0.444908,-1.76193 -0.601257,-2.65615 -0.343521,-1.96469 -0.661995,-3.93521 -0.897537,-5.91574 -0.05017,-0.42191 -0.02746,-0.85486 0.04248,-1.27396 0.02042,-0.12238 0.218002,-0.17603 0.220207,-0.30005 0.004,-0.22461 -0.200233,-0.41788 -0.203453,-0.64252 -0.0018,-0.12314 0.197289,-0.19409 0.189698,-0.31698 -0.01402,-0.22687 -0.233437,-0.40821 -0.248528,-0.63498 -0.0565,-0.84964 -0.0856,-1.71155 0.03641,-2.55426 0.390174,-2.69489 0.949203,-5.36325 1.496139,-8.03076 0.141762,-0.69138 0.371269,-1.36191 0.568642,-2.03956 0.219459,-0.75344 0.379806,-1.52902 0.681778,-2.25335 0.972328,-2.33225 2.068939,-4.6109 3.135086,-6.90174 0.115768,-0.24874 0.238876,-0.49911 0.409256,-0.71417 0.634765,-0.80121 1.362251,-1.52582 1.998939,-2.32547 0.182747,-0.22952 0.252327,-0.54071 0.453285,-0.75445 1.414666,-1.50473 2.874886,-2.96796 4.377961,-4.38437 0.24002,-0.22617 0.602264,-0.29645 0.836059,-0.52905 0.232376,-0.23118 0.280144,-0.61557 0.528931,-0.82898 0.4449,-0.38169 0.97287,-0.66257 1.502518,-0.9137 0.471153,-0.22339 1.015296,-0.26837 1.481803,-0.50131 0.598412,-0.29883 1.072884,-0.82361 1.689675,-1.08237 1.42614,-0.59833 2.905464,-1.0741 4.399834,-1.47247 0.12404,-0.0331 0.19803,0.17428 0.32004,0.2142 0.10589,0.0347 0.22886,0.036 0.33425,-9e-5 0.11672,-0.04 0.183,-0.17722 0.29972,-0.21723 0.1054,-0.0362 0.22844,-0.035 0.33427,-1.2e-4 0.12258,0.0404 0.19274,0.22797 0.32126,0.2161 1.06936,-0.0988 2.10239,-0.54096 3.1763,-0.53922 0.54649,8.9e-4 1.00494,0.46707 1.54556,0.54685 0.22501,0.0332 0.41726,-0.22007 0.64468,-0.22361 0.22464,-0.004 0.41788,0.20273 0.64255,0.2035 0.12832,3.9e-4 0.20257,-0.22391 0.3287,-0.20035 1.62248,0.30322 3.24764,0.63974 4.81362,1.1614 1.47158,0.49021 2.89238,1.13871 4.26417,1.86258 0.68997,0.36411 1.30464,0.86527 1.88761,1.3837 0.4111,0.3656 0.67429,0.87555 1.07578,1.25168 0.33169,0.31076 0.80351,0.45718 1.10825,0.79443 0.67598,0.74808 1.162,1.65043 1.8037,2.4281 0.86675,1.05042 1.9001,1.96146 2.71729,3.05091 0.45848,0.61123 0.67584,1.37393 1.08551,2.01889 0.32822,0.51669 0.79587,0.93585 1.12087,1.45459 0.21105,0.33682 0.24439,0.77026 0.47573,1.09356 0.31044,0.43384 0.82694,0.69651 1.12285,1.14039 0.34778,0.5216 0.46781,1.16757 0.77881,1.71191 0.11603,0.20306 0.35861,0.30948 0.48759,0.50461 0.30835,0.46652 0.58651,0.95599 0.81516,1.46637 0.0635,0.14172 -0.10208,0.42907 0.0494,0.46325 1.61026,0.3631 3.26213,0.53656 4.90857,0.65473 0.22453,0.0161 0.39933,-0.24805 0.62422,-0.25766 0.22446,-0.01 0.41788,0.20419 0.64255,0.20346 0.12379,-4.3e-4 0.18635,-0.18735 0.30865,-0.20657 0.41971,-0.066 0.84981,-0.068 1.27391,-0.0424 4.547,0.27447 9.0808,0.78305 13.63329,0.94217 4.43351,0.15496 8.87323,0.0836 13.30865,-4.6e-4 0.33624,-0.006 0.63616,-0.28717 0.97203,-0.2702 1.47713,0.0746 2.92826,0.44113 4.40384,0.54159 0.12969,0.009 0.19663,-0.18579 0.32205,-0.21985 0.20667,-0.0561 0.43018,-0.0788 0.64106,-0.0416 0.2234,0.0394 0.40289,0.22882 0.62683,0.26498 0.41977,0.0678 0.85263,0.0916 1.27493,0.042 0.22533,-0.0264 0.40628,-0.21185 0.62677,-0.26526 0.2081,-0.0504 0.42978,-0.0769 0.64099,-0.0417 0.32926,0.0548 0.62184,0.26629 0.95316,0.307 0.52394,0.0644 1.05583,0.0135 1.58363,0.005 0.32005,-0.005 0.64525,0.016 0.95914,-0.0467 0.1214,-0.0243 0.18486,-0.20654 0.30867,-0.20657 0.12381,-3e-5 0.1878,0.18002 0.30876,0.20645 0.21553,0.0471 0.4443,0.0425 0.66185,0.006 1.4798,-0.25006 2.91894,-0.80634 4.41861,-0.86414 0.9702,-0.0374 1.88498,0.51786 2.85364,0.5839 1.89622,0.12933 3.80293,0.0793 5.70189,-4e-4 0.22665,-0.01 0.40644,-0.21112 0.62675,-0.26529 0.20839,-0.0512 0.42752,-0.0465 0.64211,-0.0465 0.53125,-3e-5 1.06646,-0.0236 1.59307,0.0464 0.12273,0.0163 0.18497,0.21139 0.30869,0.20654 0.22618,-0.009 0.40758,-0.24652 0.63393,-0.2435 0.33538,0.004 0.6354,0.26642 0.97081,0.26474 0.58908,-0.003 1.15846,-0.22568 1.74517,-0.27853 2.88362,-0.25968 5.77826,-0.38797 8.66088,-0.65857 0.33026,-0.031 0.63279,-0.2407 0.96449,-0.24506 0.23448,-0.003 0.43297,0.23731 0.66707,0.22351 1.79954,-0.10592 3.57901,-0.44772 5.37686,-0.57931 0.84187,-0.0616 1.69151,-0.0738 2.53236,4.2e-4 0.33251,0.0294 0.61968,0.29096 0.95308,0.30735 1.47979,0.0727 2.96622,0.0564 4.44451,-0.042 0.18666,-0.0125 0.40532,-0.11584 0.48285,-0.2861 0.90478,-1.98694 1.51457,-4.09961 2.41906,-6.08667 1.25734,-2.76224 2.67762,-5.44766 4.06087,-8.14902 0.26871,-0.52475 0.62955,-0.99917 0.89346,-1.52633 0.26439,-0.52808 0.38109,-1.12815 0.6881,-1.63266 0.85692,-1.40824 1.91348,-2.68711 2.79005,-4.08319 0.73365,-1.16846 1.2901,-2.44303 2.03624,-3.60355 0.21009,-0.32675 0.58266,-0.52155 0.81574,-0.83237 0.72087,-0.96124 1.28036,-2.04059 2.03804,-2.97308 0.62135,-0.76474 1.44108,-1.35001 2.08233,-2.09811 0.62999,-0.73499 1.11005,-1.58838 1.72109,-2.33921 0.29187,-0.35864 0.62533,-0.6853 0.98089,-0.98092 0.25628,-0.21308 0.59754,-0.31177 0.84382,-0.53629 0.94221,-0.85898 1.77951,-1.82751 2.70779,-2.70154 0.0967,-0.0911 0.26048,-0.0881 0.3546,-0.18182 0.21007,-0.20923 0.29657,-0.53665 0.53863,-0.70786 1.74418,-1.23367 3.52883,-2.41717 5.38208,-3.47992 1.35886,-0.77923 2.85065,-1.30349 4.23563,-2.03527 0.41144,-0.21738 0.71268,-0.62177 1.14032,-0.80515 1.90064,-0.81512 3.83096,-1.57602 5.81018,-2.1756 1.8262,-0.55325 3.7117,-0.89062 5.58072,-1.27524 1.66052,-0.34173 3.32547,-0.67297 5.0051,-0.90322 0.42102,-0.0577 0.85501,-0.0275 1.2742,0.0424 0.12213,0.0203 0.18252,0.17877 0.29928,0.21994 0.10889,0.0384 0.23276,0.0288 0.34622,0.008 0.83896,-0.15679 1.65537,-0.43887 2.50284,-0.54 0.12799,-0.0153 0.20084,0.20291 0.32975,0.20196 0.12384,-8.8e-4 0.18594,-0.19055 0.30874,-0.2066 0.52634,-0.0688 1.06369,-0.0944 1.59192,-0.042 0.22525,0.0224 0.40027,0.25183 0.62643,0.26232 0.2244,0.0104 0.41788,-0.20343 0.64252,-0.20343 0.12314,4e-5 0.19089,0.16639 0.30826,0.20356 0.1062,0.0336 0.22675,0.0292 0.3342,-1.3e-4 0.21838,-0.0597 0.40036,-0.25097 0.62646,-0.26232 m -1.5838,23.82821 c 0,0 0,0 0,0 -0.16647,0.0816 -0.31857,0.20404 -0.49945,0.24469 -1.49741,0.33649 -3.03723,0.4823 -4.51874,0.883 -0.7641,0.20663 -1.47479,0.58035 -2.18484,0.93011 -0.31809,0.15665 -0.65656,0.31629 -0.88907,0.58396 -0.52307,0.60208 -0.94074,1.29177 -1.34021,1.98205 -0.15613,0.26981 -0.24152,0.57743 -0.31622,0.88007 -0.3079,1.24768 -0.64508,2.49319 -0.83011,3.76489 -0.0931,0.64026 -0.0954,1.30112 -3e-5,1.94104 0.16968,1.13876 0.45117,2.26218 0.79034,3.36243 0.22962,0.74487 0.53736,1.46945 0.91016,2.15396 0.37997,0.69763 0.8324,1.35934 1.3374,1.97259 0.48492,0.58884 0.99713,1.17557 1.61899,1.6174 0.53287,0.37861 1.14892,0.66968 1.78869,0.80378 0.17533,0.0367 0.25589,-0.25891 0.41465,-0.34192 0.77069,-0.40299 1.59231,-0.70346 2.36139,-1.10956 0.15469,-0.0817 0.23678,-0.27072 0.39477,-0.34586 0.10388,-0.0494 0.23694,-0.0453 0.34506,-0.006 0.42859,0.15558 0.85468,0.3346 1.23841,0.58087 0.2305,0.14789 0.42285,0.35837 0.57742,0.58442 0.41861,0.61224 0.70667,1.30795 1.13196,1.91561 0.0404,0.0577 0.14837,0.0354 0.21121,0.004 0.53821,-0.27207 1.11777,-0.50147 1.56772,-0.90299 1.62198,-1.44751 3.12378,-3.02664 4.61169,-4.61163 0.21299,-0.2269 0.34674,-0.52048 0.47296,-0.80493 0.38651,-0.87104 0.95444,-1.70737 1.06205,-2.65424 0.25186,-2.21677 0.26626,-4.47803 3e-5,-6.69314 -0.11765,-0.97886 -0.67932,-1.85672 -1.13288,-2.73209 -0.3511,-0.6777 -0.82431,-1.28568 -1.26983,-1.90543 -0.0964,-0.13403 -0.20221,-0.27804 -0.35111,-0.34948 -0.86517,-0.41486 -1.79437,-0.68555 -2.66192,-1.09534 -0.1594,-0.0753 -0.22184,-0.32901 -0.39688,-0.34952 -0.84479,-0.0988 -1.73975,-0.24911 -2.55164,0.004 -0.24158,0.0754 0.13931,0.48989 0.16101,0.74206 0.0183,0.21338 0.0485,0.44699 -0.042,0.64108 -0.10446,0.22419 -0.28427,0.43613 -0.50861,0.54029 -0.96887,0.44986 -2.02408,0.68811 -3.01205,1.09442 -0.46137,0.18973 -0.85639,0.52737 -1.32788,0.69034 -0.20768,0.0718 -0.45465,0.0768 -0.65918,-0.003 -0.18433,-0.0723 -0.37116,-0.22803 -0.42005,-0.41992 -0.066,-0.25922 0.005,-0.54892 0.11051,-0.79493 0.0736,-0.17221 0.22592,-0.32321 0.39846,-0.39605 0.76484,-0.32285 1.59406,-0.47126 2.36799,-0.77167 0.51419,-0.19962 1.06417,-0.37134 1.48745,-0.72501 0.12787,-0.10681 0.0518,-0.35003 -0.0222,-0.49933 m -179.16268,4.96634 c 0,0 0,0 0,0 -0.43038,-0.0133 -0.86267,-0.0825 -1.29116,-0.04 -1.52992,0.15168 -3.06273,0.31925 -4.57022,0.62116 -1.009457,0.20215 -2.010075,0.48611 -2.958523,0.8865 -0.635445,0.26825 -1.143677,0.77576 -1.751465,1.10184 -0.761688,0.40869 -1.620308,0.63355 -2.349144,1.0983 -0.453422,0.28912 -0.73677,0.78717 -1.149086,1.13244 -0.255539,0.21393 -0.582039,0.33008 -0.843857,0.53632 -0.213966,0.16855 -0.407562,0.36585 -0.574592,0.58096 -0.190422,0.2453 -0.27095,0.57264 -0.491051,0.79166 -0.233764,0.23264 -0.58667,0.31326 -0.836067,0.52905 -0.514175,0.44489 -0.997391,0.92826 -1.442345,1.44239 -0.218109,0.25201 -0.329849,0.58221 -0.536331,0.84384 -0.754028,0.95541 -1.733742,1.74731 -2.341087,2.80206 -1.266617,2.19968 -2.288086,4.53812 -3.240334,6.89102 -0.614593,1.51856 -0.933372,3.14124 -1.449173,4.69614 -0.0695,0.20953 -0.288803,0.36822 -0.303871,0.58847 -0.01588,0.23209 0.251816,0.43274 0.218239,0.66293 -0.101708,0.69733 -0.463661,1.33481 -0.610153,2.02411 -0.257782,1.21295 -0.532448,2.4332 -0.600281,3.67136 -0.132851,2.42492 -0.130409,4.86059 0,7.28564 0.06306,1.17273 0.466255,2.30643 0.578651,3.47547 0.01279,0.13311 -0.238395,0.20971 -0.211769,0.34079 0.276131,1.35931 0.681801,2.69055 1.096436,4.01422 0.708488,2.26178 1.41996,4.52594 2.271583,6.73779 0.273316,0.70987 0.778969,1.31033 1.093796,2.00278 0.730316,1.60638 1.299294,3.28323 2.038025,4.88574 0.346779,0.75226 0.846169,1.42612 1.213791,2.1684 0.352318,0.71136 0.569901,1.48617 0.943146,2.18676 0.706634,1.32639 1.463958,2.6283 2.290703,3.88336 0.213707,0.32441 0.582656,0.52155 0.815719,0.83234 0.404427,0.53934 0.670563,1.17535 1.087197,1.70532 0.352996,0.44904 0.773948,0.84406 1.208442,1.21482 0.253533,0.21634 0.58831,0.32232 0.843842,0.53631 0.412353,0.34528 0.695007,0.84452 1.1492,1.13254 0.977455,0.61987 2.003128,1.19556 3.100807,1.56265 2.576502,0.8617 5.184222,1.71949 7.873162,2.10742 2.30649,0.33277 4.66168,0.10691 6.99101,0.0371 0.22676,-0.007 0.40395,-0.22259 0.62676,-0.26525 0.32022,-0.0613 0.68637,-0.18924 0.97723,-0.0419 0.35432,0.17947 0.4333,0.68997 0.75691,0.92025 0.13911,0.099 0.35019,0.0374 0.5119,-0.0173 1.22185,-0.41382 2.44903,-0.82956 3.61548,-1.38056 1.65218,-0.78045 3.24498,-1.68414 4.82295,-2.60546 0.45681,-0.26673 0.87983,-0.59443 1.26974,-0.95194 0.88755,-0.81384 1.78403,-1.62903 2.55443,-2.55456 0.27536,-0.33082 0.30373,-0.81434 0.54599,-1.17011 0.21341,-0.31345 0.55871,-0.51611 0.80089,-0.80792 0.0714,-0.086 0.22616,-0.25855 0.12709,-0.3103 -0.84607,-0.44202 -1.77269,-0.71103 -2.67552,-1.02106 -0.71994,-0.24722 -1.45327,-0.45539 -2.1893,-0.6496 -1.03156,-0.27219 -2.08493,-0.45938 -3.11171,-0.74911 -1.20721,-0.34064 -2.37907,-0.79905 -3.58597,-1.14081 -2.20248,-0.62372 -4.45547,-1.06857 -6.63927,-1.75485 -0.61881,-0.19446 -1.1843,-0.53775 -1.73691,-0.87745 -0.49936,-0.30691 -0.8745,-0.80957 -1.40682,-1.0549 -0.29291,-0.13498 -0.64648,-0.0768 -0.96677,-0.039 -0.33338,0.0394 -0.63851,0.31571 -0.97077,0.26792 -0.52064,-0.0749 -1.01307,-0.32749 -1.4526,-0.6164 -0.20777,-0.13659 -0.2992,-0.39895 -0.42141,-0.61548 -0.37702,-0.66797 -0.74931,-1.34011 -1.07448,-2.03482 -0.0475,-0.10138 -0.0426,-0.22244 -0.0344,-0.33404 0.0104,-0.14041 0.0211,-0.28968 0.0894,-0.41272 0.23053,-0.41498 0.90795,-0.71964 0.7959,-1.18091 -0.31893,-1.31296 -1.38222,-2.32776 -1.94643,-3.55545 -0.50382,-1.09634 -0.94675,-2.22931 -1.24884,-3.39746 -0.5998,-2.31943 -0.92538,-4.70185 -1.45012,-7.0394 -0.0683,-0.30441 -0.31392,-0.56531 -0.32699,-0.87701 -0.0227,-0.54157 0.3702,-1.08924 0.22269,-1.61084 -0.0592,-0.20939 -0.473032,0.0334 -0.624681,0.18945 -0.457451,0.4707 -0.703377,1.11352 -1.128006,1.61407 -0.190384,0.22443 -0.513275,0.31113 -0.698937,0.53946 -0.08522,0.10483 0.02089,0.29575 -0.06494,0.40009 -0.174774,0.21249 -0.417137,0.36996 -0.665596,0.48813 -0.07574,0.036 -0.180367,-0.002 -0.245537,-0.0548 -0.223335,-0.18088 -0.472588,-0.36447 -0.593887,-0.62497 -0.09154,-0.19657 -0.118523,-0.4689 -1.6e-5,-0.65045 0.34388,-0.5268 0.900368,-0.88105 1.310891,-1.35773 0.345237,-0.40088 0.673301,-0.82022 0.952057,-1.2699 0.335662,-0.54141 0.541297,-1.1575 0.885246,-1.69372 0.128227,-0.19992 0.451276,-0.26267 0.516206,-0.49112 0.0553,-0.19461 -0.222116,-0.36524 -0.215379,-0.56745 0.0077,-0.23169 0.275939,-0.41577 0.255789,-0.64672 -0.0743,-0.85193 -0.437376,-1.65992 -0.531134,-2.50992 -0.01421,-0.12885 0.197594,-0.19361 0.218826,-0.32148 0.06972,-0.41995 0.04645,-0.85052 0.04642,-1.27624 -8e-6,-0.21457 0.0039,-0.4335 -0.04655,-0.64206 -0.05314,-0.21954 -0.257301,-0.39981 -0.2603,-0.62567 -0.003,-0.22632 0.230759,-0.4079 0.243546,-0.63388 0.007,-0.12296 -0.189728,-0.19385 -0.189728,-0.31699 0,-0.12311 0.196686,-0.194 0.189728,-0.31692 -0.01279,-0.22599 -0.246536,-0.40757 -0.243546,-0.63391 0.003,-0.22586 0.215012,-0.40436 0.260155,-0.62571 0.04333,-0.2124 0.04775,-0.43887 1.37e-4,-0.65036 -0.0285,-0.12652 -0.2322,-0.19262 -0.218979,-0.32168 0.103547,-1.01087 0.303002,-2.01337 0.558895,-2.9968 0.12102,-0.46512 0.3082,-0.92047 0.56593,-1.32617 0.58465,-0.92026 1.43237,-1.66714 1.94653,-2.6286 0.18274,-0.34171 -0.12835,-0.83273 0.0795,-1.15982 0.35603,-0.56043 0.95538,-0.92917 1.49417,-1.3172 0.45411,-0.32703 0.96133,-0.57672 1.4674,-0.81555 0.10116,-0.0478 0.2253,-0.0616 0.33381,-0.0345 0.6267,0.15695 1.5067,0.0332 1.84901,0.58109 0.65022,1.04077 0.12997,2.55066 0.76399,3.60135 0.32621,0.54059 1.1596,0.55984 1.78743,0.6268 4.11987,0.43945 8.26034,0.67343 12.39812,0.88629 1.58199,0.0814 3.17248,0.11285 4.75223,-0.004 1.43365,-0.10611 2.84785,-0.4014 4.26141,-0.66299 0.0406,-0.008 0.006,-0.0866 -0.0132,-0.1233 -0.26223,-0.50256 -0.51427,-1.01315 -0.82659,-1.48623 -0.12883,-0.1951 -0.36682,-0.30405 -0.48755,-0.5043 -0.20523,-0.34046 -0.25476,-0.7631 -0.47572,-1.09357 -0.21259,-0.31793 -0.56245,-0.52213 -0.80328,-0.81925 -0.23638,-0.29159 -0.44344,-0.60858 -0.62185,-0.93884 -0.18913,-0.3501 -0.26528,-0.75729 -0.47659,-1.09448 -0.32508,-0.51871 -0.78186,-0.94504 -1.12097,-1.45471 -0.29241,-0.43946 -0.46145,-0.9552 -0.7683,-1.38471 -0.22584,-0.31607 -0.57573,-0.52691 -0.81573,-0.83236 -0.92437,-1.17661 -1.68707,-2.48057 -2.67196,-3.60703 -1.18946,-1.36044 -2.51247,-2.60031 -3.83344,-3.83344 -0.27443,-0.25622 -0.60065,-0.45935 -0.93908,-0.62182 -1.38713,-0.66611 -2.74007,-1.45761 -4.22575,-1.85828 m -12.17026,3.2504 c 0,0 0,0 0,0 0.16605,0.0969 0.42316,0.11359 0.49815,0.29059 0.39565,0.93384 0.44964,1.99124 0.86134,2.91812 0.19321,0.43503 0.49119,0.88544 0.91994,1.09213 0.18017,0.0869 0.008,-0.42728 0.13049,-0.58569 0.18799,-0.24381 0.44616,-0.46823 0.74354,-0.54788 0.41921,-0.11234 0.88112,-0.10605 1.30201,-2.2e-4 0.40727,0.10242 0.80769,0.30869 1.10482,0.60544 0.28807,0.28769 0.4507,0.68915 0.57848,1.07571 0.0691,0.20908 0.0794,0.45701 -0.004,0.66059 -0.0762,0.18493 -0.2374,0.42193 -0.43711,0.41107 -0.32097,-0.0175 -0.59212,-0.27115 -0.83617,-0.48035 -0.22324,-0.19134 -0.27583,-0.56698 -0.53891,-0.69833 -0.18998,-0.0949 -0.49163,-0.0476 -0.62628,0.11667 -0.13743,0.1676 -0.1308,0.47549 -0.003,0.65021 0.25906,0.35275 0.75071,0.46728 1.05452,0.78231 0.11663,0.12095 0.13649,0.3115 0.16061,0.47776 0.0236,0.16281 0.0853,0.3666 -0.0198,0.4931 -0.22872,0.27502 -0.7043,0.29431 -0.88949,0.60037 -0.0926,0.15311 0.20539,0.30655 0.23383,0.48322 0.0513,0.31842 0.0934,0.65887 -2.4e-4,0.96753 -0.0572,0.18869 -0.24708,0.3215 -0.41964,0.41699 -0.0973,0.0538 -0.25242,0.0758 -0.33358,-2.5e-4 -0.29697,-0.27816 -0.39471,-0.74099 -0.71947,-0.98614 -0.37856,-0.2858 -0.98586,-0.20493 -1.31311,-0.54828 -0.18424,-0.19333 -0.079,-0.55579 0.0274,-0.80075 0.20068,-0.46194 0.69942,-0.76495 0.86013,-1.24228 0.1376,-0.40872 0.12351,-0.88251 -0.006,-1.29379 -0.0446,-0.1413 -0.28669,-0.12067 -0.4333,-0.0992 -0.0996,0.0146 -0.19253,0.10263 -0.22944,0.19625 -0.4387,1.11295 -0.59361,2.34736 -1.18343,3.38813 -0.13385,0.23617 -0.56575,0.24881 -0.80535,0.12118 -0.34022,-0.18127 -0.34973,-0.75677 -0.69799,-0.92206 -0.19314,-0.0917 -0.34003,0.28992 -0.55007,0.32978 -0.318441,0.0604 -0.654012,0.0241 -0.971502,-0.0411 -0.121376,-0.0249 -0.182602,-0.17917 -0.299583,-0.22003 -0.108116,-0.0378 -0.238274,-0.0496 -0.343521,-0.005 -0.326248,0.13989 -0.589348,0.40378 -0.915337,0.54431 -0.145401,0.0627 -0.411804,-0.0928 -0.471931,0.0536 -0.348267,0.84815 -0.224236,1.86005 -0.647759,2.67322 -0.125885,0.2417 -0.543472,0.18665 -0.808357,0.12253 -0.192406,-0.0465 -0.315788,-0.25153 -0.420052,-0.41983 -0.05779,-0.0933 -0.03938,-0.21674 -0.04229,-0.32639 -0.0112,-0.42175 -0.05023,-0.84677 0,-1.26565 0.02417,-0.2016 0.332382,-0.39905 0.219879,-0.56809 -0.258789,-0.38885 -0.788162,-0.50754 -1.140137,-0.81457 -0.05154,-0.045 -0.07238,-0.15241 -0.02683,-0.20346 0.267571,-0.29972 0.761124,-0.41574 0.912018,-0.78815 0.405441,-1.00058 0.31707,-2.15125 0.689629,-3.16452 0.05305,-0.14429 0.330574,-0.0446 0.459564,0.0391 0.291038,0.18875 0.590919,0.42081 0.735679,0.73605 0.1334,0.2905 0.08679,0.64151 0.04227,0.9581 -0.03158,0.22464 -0.219497,0.40458 -0.265098,0.6268 -0.04362,0.21253 -0.161217,0.50901 0.0029,0.65094 0.229378,0.19834 0.69899,0.35691 0.900376,0.13019 0.541984,-0.61017 0.509506,-1.5762 0.97776,-2.24463 0.281983,-0.40255 0.91346,-0.45922 1.19738,-0.86041 0.107788,-0.15228 -0.192505,-0.32858 -0.226021,-0.51214 -0.05737,-0.31421 -0.114898,-0.64628 -0.0423,-0.95734 0.09767,-0.41858 0.292221,-0.81952 0.539063,-1.17139 0.23254,-0.33145 0.52057,-0.64621 0.87427,-0.84332 m 0.21987,2.96072 c 0,0 0,0 0,0 0.071,0.004 0.20277,0.0827 0.21299,0.0124 0.0358,-0.24637 0.141,-0.72464 -0.10754,-0.73907 m -1.57984,3.16025 c 0,0 0,0 0,0 -0.03866,0.24914 -0.181968,0.50412 -0.115982,0.74749 0.0513,0.18918 0.231987,0.40326 0.428032,0.40335 0.19534,3e-5 0.32775,-0.23388 0.42536,-0.4031 0.0557,-0.0966 0.0542,-0.237 0,-0.33441 -0.0959,-0.17221 -0.24675,-0.32123 -0.41871,-0.41761 m 3.16276,11.4108 c 0,0 0,0 0,0 -0.39675,0.38342 -0.93628,0.6604 -1.19026,1.15024 -0.43958,0.84775 -0.75541,1.79037 -0.82822,2.74255 -0.21795,2.85004 -0.15977,5.71927 -0.0372,8.57501 0.054,1.25901 0.0314,2.59665 0.5656,3.73798 0.4437,0.94791 1.44373,1.51865 2.22231,2.21805 0.24795,0.22275 0.58222,0.32992 0.84388,0.53638 0.1688,0.1332 0.36737,0.27096 0.43713,0.47433 0.0911,0.26575 0.14698,0.59494 0.0146,0.84274 -0.14493,0.27121 -0.44658,0.57807 -0.75114,0.53556 -0.47103,-0.0657 -0.81751,-0.49472 -1.17815,-0.80481 -0.13378,-0.11502 -0.15459,-0.32517 -0.28022,-0.44904 -0.28468,-0.28076 -0.59836,-0.53592 -0.9359,-0.75027 -0.0724,-0.046 -0.19817,-0.0696 -0.25702,-0.007 -0.0747,0.0791 -0.0616,0.21668 -0.0417,0.32361 0.48026,2.58267 0.89932,5.18125 1.53916,7.72907 0.28411,1.13131 0.74277,2.21582 1.22505,3.27789 0.36282,0.79898 0.91534,1.50027 1.30228,2.28787 0.0702,0.14288 -0.0906,0.40964 0.0548,0.4744 0.88624,0.39465 1.89333,0.44955 2.79927,0.7966 0.37359,0.14309 0.78056,0.32693 1.00256,0.65976 0.43757,0.656 0.71563,1.42154 0.89753,2.18884 0.0525,0.2215 -0.19431,0.41901 -0.22586,0.64444 -0.0447,0.31937 -0.13449,0.67444 2.2e-4,0.96744 0.16983,0.36938 0.53296,0.6196 0.84772,0.87695 0.18021,0.14734 0.40583,0.22989 0.61937,0.32257 0.48235,0.20929 0.96112,0.43543 1.46597,0.58234 2.2092,0.64285 4.45969,1.138 6.66781,1.78451 1.03662,0.3035 2.01979,0.77576 3.06078,1.06388 0.91396,0.25296 1.88217,0.28201 2.79019,0.55551 1.45949,0.43963 2.83139,1.14175 4.29195,1.57782 0.31205,0.0932 0.70066,0.16763 0.977,-0.005 0.4021,-0.25073 0.70398,-0.6872 0.85353,-1.13684 1.29866,-3.90412 2.45268,-7.85904 3.4654,-11.8469 0.53729,-2.11578 0.87623,-4.27993 1.17897,-6.44177 0.10342,-0.73868 0.0706,-1.49225 0.0364,-2.2373 -0.008,-0.16831 -0.0408,-0.36112 -0.16107,-0.4791 -0.26101,-0.25607 -0.59874,-0.42508 -0.92624,-0.58771 -0.10099,-0.0501 -0.22322,-0.0393 -0.33596,-0.0391 -0.31941,7.9e-4 -0.64477,-0.0236 -0.95729,0.0423 -0.12207,0.0258 -0.18037,0.1893 -0.30044,0.22317 -0.20575,0.0581 -0.42629,0.0495 -0.63993,0.0422 -5.96395,-0.20404 -11.94121,-0.19882 -17.88953,-0.67615 -1.70827,-0.13708 -3.34968,-0.73047 -5.0084,-1.16131 -1.03963,-0.27005 -2.06566,-0.59311 -3.08217,-0.94019 -0.59084,-0.20175 -1.17277,-0.43402 -1.73536,-0.70471 -0.0412,-0.0198 -0.0227,-0.0919 -0.013,-0.13651 0.0367,-0.16708 0.0625,-0.34393 0.15053,-0.49063 0.0711,-0.11853 0.1733,-0.25229 0.30949,-0.27603 0.42463,-0.074 0.86754,-0.0718 1.29312,-0.003 0.21776,0.035 0.3768,0.23838 0.58681,0.30579 1.19087,0.38239 2.39054,0.74188 3.6052,1.04016 2.17841,0.53498 4.35108,1.12622 6.56948,1.45844 1.04379,0.15631 2.11345,0.0733 3.16629,-4.3e-4 0.22631,-0.0159 0.40416,-0.22147 0.62675,-0.26526 0.31406,-0.0618 0.63905,-0.0441 0.95912,-0.0469 1.2674,-0.0112 2.5376,-0.0782 3.80232,0.005 0.33307,0.0219 0.62118,0.27154 0.95306,0.30731 0.62952,0.0678 1.26996,0.0678 1.89949,0 0.33187,-0.0357 0.62386,-0.25223 0.95311,-0.30704 0.21121,-0.0351 0.43289,-0.009 0.64099,0.0418 0.22049,0.0534 0.4002,0.25412 0.62679,0.26529 1.52482,0.0751 3.15887,0.54904 4.58002,-0.009 0.65658,-0.25766 0.48388,-1.33255 0.60716,-2.02704 0.0934,-0.526 0.0908,-1.07074 0.037,-1.60223 -0.21335,-2.10956 -0.46738,-4.21777 -0.83684,-6.30563 -0.25032,-1.41458 -0.55905,-2.82663 -1.01992,-4.18726 -0.63545,-1.8761 -1.22726,-3.80554 -2.25984,-5.49588 -0.19229,-0.31482 -0.73901,-0.0465 -1.10656,-0.0151 -2.01224,0.17212 -4.01262,0.47239 -6.02642,0.62516 -0.73598,0.0558 -1.47725,0.0397 -2.21428,3e-5 -2.85116,-0.15363 -5.69329,-0.46417 -8.54624,-0.57978 -0.13003,-0.005 -0.19671,0.18619 -0.32227,0.22043 -0.20628,0.0563 -0.42819,0.0708 -0.64005,0.0421 -1.20669,-0.16376 -2.41686,-0.33216 -3.60067,-0.61762 -0.50984,-0.12292 -0.94527,-0.47354 -1.45391,-0.60132 -0.16207,-0.0407 -0.34707,0.0241 -0.48828,0.11353 -0.22384,0.14166 -0.34308,0.4162 -0.56855,0.55527 -0.3603,0.22223 -0.7522,0.40643 -1.16209,0.51223 -0.31275,0.0807 -0.64632,0.0635 -0.96831,0.0378 -0.16447,-0.0131 -0.33929,-0.0532 -0.47078,-0.15289 -0.33432,-0.25342 -0.56843,-0.62179 -0.89637,-0.88339 -0.25369,-0.20239 -0.53721,-0.37244 -0.83617,-0.49869 m 122.02344,0.64499 c 0,0 0,0 0,0 -0.21815,-0.003 -0.44154,-0.0572 -0.65445,-0.01 -0.12216,0.0274 -0.17932,0.19736 -0.30172,0.2236 -0.31299,0.0671 -0.63906,0.0465 -0.95916,0.0465 -0.21458,0 -0.43371,0.005 -0.6421,-0.0465 -0.22031,-0.0541 -0.40004,-0.25668 -0.62673,-0.26529 -2.11074,-0.0804 -4.22606,-0.0795 -6.33685,-3e-5 -0.2262,0.009 -0.40016,0.25418 -0.62637,0.26227 -0.23006,0.008 -0.42571,-0.22272 -0.65583,-0.21643 -0.92543,0.0254 -1.8366,0.24322 -2.75999,0.30997 -6.1516,0.44461 -12.30579,0.85504 -18.46239,1.22384 -0.63208,0.0379 -1.2689,0.0518 -1.89964,-0.004 -1.59109,-0.14093 -3.15874,-0.58551 -4.75604,-0.58551 -1.28359,0 -2.52326,0.53815 -3.80594,0.58551 -4.01091,0.1481 -8.02815,0.0837 -12.04091,-4.2e-4 -0.22681,-0.005 -0.40416,-0.22147 -0.62675,-0.26526 -0.31406,-0.0618 -0.63901,-0.0469 -0.9591,-0.0469 -0.32009,-3e-5 -0.64526,-0.016 -0.95916,0.0467 -0.1214,0.0243 -0.18486,0.20655 -0.30866,0.20655 -0.12379,0 -0.1889,-0.17523 -0.30868,-0.20652 -0.20717,-0.0541 -0.43015,-0.0788 -0.64101,-0.0416 -0.2234,0.0393 -0.40424,0.22119 -0.62682,0.26495 -0.31405,0.0617 -0.63903,0.0433 -0.95909,0.0468 -0.95042,0.0105 -1.90382,0.0688 -2.85147,-0.005 -0.22618,-0.0176 -0.40646,-0.21112 -0.62677,-0.26526 -0.20839,-0.0512 -0.4275,-0.0466 -0.64209,-0.0466 -0.53126,0 -1.06685,-0.0262 -1.59309,0.0466 -0.22374,0.0309 -0.39977,0.25726 -0.62561,0.26028 -0.22632,0.003 -0.40755,-0.2435 -0.6339,-0.2435 -0.22635,0 -0.40768,0.25119 -0.63389,0.2435 -0.33191,-0.0113 -0.61878,-0.29745 -0.95087,-0.29739 -0.33179,6e-5 -0.6183,0.31204 -0.94978,0.29776 -6.7667,-0.29178 -13.5125,-1.01935 -20.2827,-1.21332 -0.50586,-0.0145 -1.20969,0.12238 -1.39797,0.5921 -0.17058,0.42563 0.5044,0.77191 0.68184,1.19473 0.46935,1.11826 0.87734,2.26261 1.25317,3.41568 0.35566,1.0911 0.69906,2.18998 0.93976,3.31205 0.37093,1.72915 0.73999,3.46795 0.89266,5.22982 0.14583,1.68305 0.0841,3.38083 -4.1e-4,5.06806 -0.0187,0.3728 -0.67005,0.98868 -0.30732,1.07684 2.58618,0.62869 5.30773,0.43167 7.94631,0.78015 4.8454,0.63999 9.66006,1.49588 14.49879,2.18436 1.74417,0.24817 3.4952,0.44901 5.24809,0.62534 2.92331,0.29403 5.85955,0.45626 8.77907,0.78564 2.36982,0.26733 4.70888,0.78601 7.08374,1.00394 0.33405,0.0306 0.63549,-0.2714 0.97086,-0.26483 0.33288,0.006 0.61919,0.29211 0.95196,0.30236 2.9561,0.091 5.91604,0.0789 8.87247,0 0.33179,-0.009 0.62863,-0.26226 0.96053,-0.26226 0.22638,0 0.40027,0.25222 0.62642,0.26226 1.79394,0.0796 3.59144,0.017 5.38711,0.004 0.21459,-0.002 0.4337,0.005 0.64209,-0.0465 0.22031,-0.0541 0.40073,-0.246 0.62676,-0.26529 0.84179,-0.0718 1.68975,-0.0156 2.53453,-0.004 0.2146,0.003 0.43478,-0.009 0.64218,0.0464 0.11964,0.0318 0.18487,0.2059 0.30868,0.20655 0.12288,6.4e-4 0.1906,-0.1655 0.30751,-0.20331 0.1099,-0.0356 0.23131,-0.0178 0.34641,-0.008 2.21374,0.18368 4.41801,0.51251 6.63809,0.5878 3.59798,0.12198 7.98569,2.24829 10.80016,0.003 2.40715,-1.91993 0.45239,-6.14185 0.73947,-9.20746 0.25453,-2.71805 0.53056,-5.43506 0.88515,-8.14185 0.15127,-1.15481 0.37139,-2.30124 0.63159,-3.43649 0.38752,-1.69089 0.91096,-3.34839 1.31038,-5.0365 m -133.079893,9.49286 c 0,0 0,0 0,0 0.194313,0.21371 0.565689,0.35284 0.582939,0.6412 0.01615,0.26999 -0.420945,0.37723 -0.506684,0.63376 -0.03902,0.11676 0.164688,0.19672 0.188721,0.31745 0.0097,0.0486 -0.05563,0.11529 -0.104385,0.10607 -0.738182,-0.1394 -1.446755,-0.4187 -2.188286,-0.53903 -0.147003,-0.0239 -0.361939,-0.0176 -0.43203,0.11383 -0.05833,0.10935 0.166252,0.19202 0.206337,0.3093 0.0512,0.14984 -0.07629,0.3912 0.06038,0.47119 0.572014,0.33472 1.328354,0.28665 1.875031,0.66135 0.170433,0.11682 0.154014,0.4888 -0.0057,0.61984 -0.528648,0.43378 -1.306244,0.47629 -1.844421,0.89816 -0.141129,0.11063 -0.09029,0.39093 0.0126,0.53781 0.08507,0.12143 0.287201,0.12268 0.433602,0.0992 0.121589,-0.0196 0.182686,-0.17666 0.299072,-0.21691 0.108696,-0.0376 0.235947,-0.0424 0.344978,-0.006 0.401146,0.13461 0.790238,0.30899 1.161812,0.51141 0.08877,0.0483 0.17598,0.13086 0.198242,0.22946 0.04768,0.21118 0.07925,0.44797 1.68e-4,0.64951 -0.0723,0.18426 -0.230377,0.36261 -0.419838,0.42001 -0.308632,0.0935 -0.649177,0.0522 -0.967453,2.4e-4 -0.222923,-0.0364 -0.399765,-0.25982 -0.625641,-0.26028 -0.331131,-6.7e-4 -0.632675,0.31 -0.959556,0.25711 -0.240631,-0.0389 -0.443466,-0.2728 -0.534691,-0.49884 -0.27314,-0.67673 -0.45771,-1.39883 -0.524559,-2.12552 -0.107315,-1.16656 -0.120308,-2.34979 0.0057,-3.51446 0.0213,-0.19684 0.251671,-0.31574 0.419998,-0.41999 0.09327,-0.0578 0.216706,-0.0407 0.326401,-0.0423 0.844322,-0.0125 1.689827,-0.0412 2.533234,-3e-5 m -8.897163,3.4927 c 0,0 0,0 0,0 0.166778,0.0511 0.366378,0.0415 0.500328,0.15323 0.2276,0.18985 0.241325,0.66937 0.534881,0.7103 0.33448,0.0467 0.547608,-0.42392 0.873108,-0.51395 0.316513,-0.0875 0.677795,-0.11551 0.985214,3e-5 0.449242,0.16882 0.718186,0.70966 1.186173,0.81598 0.211952,0.0482 0.270111,-0.47235 0.484466,-0.4364 0.386185,0.0648 0.78019,0.33011 0.959015,0.67847 0.193939,0.37777 0.0841,0.85058 0.04287,1.27325 -0.13015,1.33447 -0.317955,2.66428 -0.555603,3.98386 -0.157044,0.87194 -0.366104,1.73626 -0.627037,2.58294 -0.03013,0.0978 -0.132843,0.17371 -0.231194,0.20188 -0.168457,0.0482 -0.381988,0.11545 -0.525505,0.0149 -0.256019,-0.17938 -0.543838,-0.45148 -0.54377,-0.7641 1.68e-4,-0.7536 0.439377,-1.44803 0.544403,-2.19427 0.07494,-0.53248 0.126015,-1.09253 -0.0085,-1.61316 -0.03716,-0.14377 -0.287536,-0.12317 -0.434158,-0.0997 -0.121643,0.0195 -0.182716,0.17684 -0.299194,0.21697 -0.108254,0.0373 -0.237763,0.0485 -0.343491,0.005 -0.296226,-0.12314 -0.615654,-0.25043 -0.827545,-0.4913 -0.312828,-0.35559 -0.224014,-1.18851 -0.694908,-1.23938 -0.424744,-0.0459 -0.329376,0.83554 -0.671143,1.09189 -0.153511,0.11514 -0.4823,0.003 -0.547554,-0.17774 -0.31942,-0.88336 -0.42305,-1.83542 -0.518318,-2.76989 -0.01308,-0.12836 0.201294,-0.20099 0.202324,-0.33002 0.001,-0.12695 -0.235092,-0.20477 -0.19709,-0.3259 0.09195,-0.29312 0.326523,-0.52478 0.53479,-0.75061 m 3.068642,1.92075 c 0,0 0,0 0,0 -0.218186,-2.2e-4 -0.438897,-0.0337 -0.654557,-6.1e-4 -0.05014,0.008 -0.113594,0.0676 -0.09847,0.11602 0.126632,0.40549 0.276519,0.81107 0.500702,1.17191 0.131683,0.21194 0.329834,0.3873 0.545745,0.51239 0.09656,0.056 0.256264,0.0771 0.334809,-0.002 0.106552,-0.10757 0.14228,-0.29513 0.105087,-0.44189 -0.10395,-0.41022 -0.310158,-0.78974 -0.511505,-1.16196 m -2.626892,4.65988 c 0,0 0,0 0,0 0.09141,0.11057 0.302093,0.19095 0.274238,0.33167 -0.0554,0.27994 -0.194831,0.71026 -0.480186,0.70871 -0.40596,-0.002 -0.800705,-0.35486 -0.984642,-0.71677 -0.08875,-0.17459 0.214081,-0.3761 0.403076,-0.42749 m 55.228266,2.24268 c 0,0 0,0 0,0 -0.20255,2.00207 -0.3559,4.0097 -0.60762,6.00616 -0.11666,0.92526 -0.31014,1.83957 -0.49677,2.7533 -0.18811,0.92096 -0.36003,1.84811 -0.62721,2.74933 -0.40872,1.37869 -0.97621,2.70648 -1.39777,4.08133 -0.63856,2.08252 -1.09474,4.22003 -1.78149,6.28717 -0.12189,0.36688 -0.55167,0.59494 -0.63061,0.97338 -0.0304,0.14573 0.23631,0.19202 0.37791,0.23792 1.18814,0.38507 2.38358,0.7533 3.59676,1.0502 2.85595,0.69904 5.75257,1.22556 8.60562,1.9364 3.03791,0.75693 6.02659,1.70261 9.06294,2.46585 1.25684,0.31592 2.54733,0.4816 3.81073,0.77014 1.02722,0.23459 2.02798,0.5788 3.05847,0.79865 2.21256,0.47208 4.4339,0.90741 6.66602,1.27615 4.09068,0.67572 8.18145,1.37079 12.29901,1.85663 5.57539,0.65781 11.17042,1.15076 16.76858,1.57297 5.44149,0.41037 10.89441,0.65475 16.34468,0.92435 0.53363,0.0264 1.07177,0.0255 1.60244,-0.0365 3.06414,-0.358 6.10315,-0.92603 9.17384,-1.22254 1.15573,-0.11157 2.32497,-0.0798 3.48328,4.3e-4 0.33296,0.0231 0.62051,0.27847 0.95306,0.30701 0.25066,0.0215 0.80682,0.0797 0.73714,-0.16202 -0.52048,-1.80533 -1.64139,-3.38861 -2.27111,-5.15881 -0.76077,-2.13868 -1.34874,-4.3378 -1.89119,-6.54197 -0.30563,-1.24188 -0.46653,-2.51565 -0.64946,-3.78143 -0.63375,-4.38574 -0.43229,-8.9566 -1.80029,-13.17145 -0.2818,-0.86825 -1.76295,-0.51059 -2.67093,-0.60455 -0.23161,-0.024 -0.41575,0.24365 -0.64796,0.26102 -0.94711,0.0708 -1.90109,0.0546 -2.84931,4.2e-4 -2.42985,-0.13894 -4.84661,-0.48071 -7.27845,-0.57962 -0.23204,-0.009 -0.41533,0.2638 -0.64748,0.25727 -0.33282,-0.009 -0.61919,-0.29273 -0.952,-0.30237 -3.16745,-0.0916 -6.33862,-0.0829 -9.50631,0 -0.22678,0.006 -0.40416,0.22149 -0.62676,0.26529 -0.31408,0.0617 -0.63907,0.0465 -0.95916,0.0465 -0.2146,0 -0.43372,0.005 -0.64211,-0.0465 -0.22032,-0.0541 -0.40004,-0.25739 -0.62677,-0.26529 -2.32214,-0.0811 -4.64883,-0.0888 -6.9707,0 -0.3324,0.0127 -0.61846,0.31363 -0.95093,0.30273 -2.79129,-0.0915 -5.57588,-0.34527 -8.35632,-0.60772 -2.00994,-0.18973 -4.00225,-0.53879 -6.01023,-0.74833 -2.70599,-0.28234 -5.42914,-0.39587 -8.12958,-0.72705 -4.43165,-0.54348 -8.84776,-1.21054 -13.25967,-1.89605 -1.18784,-0.18457 -2.34277,-0.55967 -3.53499,-0.71341 -0.13331,-0.0172 -0.20778,0.21743 -0.34215,0.21344 -0.61224,-0.0182 -1.20628,-0.22406 -1.81645,-0.27768 m 99.7818,5.45575 c 0,0 0,0 0,0 -0.32458,-0.003 -0.67245,-0.12928 -0.97371,-0.008 -0.47725,0.19147 -0.89134,0.5347 -1.25194,0.90131 -0.11631,0.11826 -0.13476,0.32068 -0.11169,0.48495 0.009,0.0648 0.12535,0.0773 0.18784,0.0577 0.37881,-0.11914 0.74757,-0.27542 1.09806,-0.46209 0.33136,-0.17649 0.64132,-0.39331 0.93856,-0.62268 0.0839,-0.0647 0.16195,-0.15064 0.19442,-0.25153 M 96.274559,470.47302 c 0,0 0,0 0,0 0.483147,0.16757 1.06926,0.16068 1.449425,0.50269 0.392128,0.35278 0.187973,1.26593 0.691406,1.42334 0.378319,0.11828 0.314423,-0.7652 0.624733,-1.01184 0.169144,-0.13446 0.434586,-0.0323 0.648239,0 0.06589,0.01 0.137894,0.0586 0.158386,0.12201 0.350112,1.08361 0.463512,2.25055 0.942042,3.2839 0.0736,0.15894 0.29607,-0.20883 0.46892,-0.237 0.31848,-0.0519 0.69983,-0.17645 0.96801,0.003 0.20925,0.14002 0.14783,0.48963 0.14448,0.7414 -0.002,0.16845 -0.0405,0.36111 -0.16074,0.47912 -0.26097,0.25611 -0.57672,0.48035 -0.92626,0.58768 -0.31112,0.0956 -0.68464,0.14087 -0.97637,-0.003 -0.430075,-0.21271 -0.667685,-0.69263 -1.040885,-0.99417 -0.235519,-0.19031 -0.632171,-0.20648 -0.775314,-0.4733 -0.305015,-0.56854 0.124016,-1.65832 -0.484039,-1.87414 -0.556397,-0.19748 -1.213982,0.67117 -1.244011,1.2608 -0.02568,0.50418 0.878807,0.57141 1.128349,1.01025 0.15918,0.27994 0.05572,0.64972 -0.0046,0.96607 -0.01243,0.0652 -0.128273,0.0809 -0.19056,0.0579 -0.584922,-0.21551 -1.214195,-0.37967 -1.709533,-0.75809 -0.390091,-0.29803 -0.647972,-0.75436 -0.853585,-1.20013 -0.09081,-0.19687 -0.133712,-0.47977 1.6e-5,-0.65045 0.385025,-0.49146 1.377144,-0.57205 1.444069,-1.19278 0.0519,-0.48139 -0.835915,-0.49085 -1.232636,-0.76837 -0.08769,-0.0613 -0.168213,-0.14377 -0.211281,-0.24176 -0.04381,-0.0997 -0.05257,-0.21662 -0.03759,-0.32444 0.02257,-0.16244 0.06204,-0.32952 0.147835,-0.46929 0.0723,-0.1178 0.174896,-0.24469 0.309547,-0.27591 m 10.296518,1.37176 c 0,0 0,0 0,0 0.30448,0.3165 0.65884,0.59165 0.91344,0.94949 0.0646,0.0908 0.0642,0.24323 0,0.33436 -0.1984,0.28186 -0.41691,0.60604 -0.74219,0.72006 -0.18601,0.0652 -0.36889,-0.15329 -0.52253,-0.2768 -0.20557,-0.16522 -0.2935,-0.48556 -0.54063,-0.57769 -0.21411,-0.0798 -0.46622,0.0299 -0.67402,0.12487 -0.12571,0.0575 -0.25657,0.17261 -0.27604,0.30945 -0.0751,0.52826 -0.14238,1.08771 0.004,1.60071 0.04,0.13986 0.287,-0.15091 0.42416,-0.10248 0.18491,0.0653 0.37004,0.21619 0.42813,0.4035 0.0956,0.3082 0.11349,0.667 -0.003,0.96802 -0.0541,0.14014 -0.27699,0.13352 -0.4268,0.14463 -0.31877,0.0236 -0.66756,0.0914 -0.95799,-0.0421 -0.31565,-0.14508 -0.67282,-0.39551 -0.73695,-0.73694 -0.19609,-1.04382 -0.19609,-2.14239 0,-3.18622 0.0641,-0.34143 0.40371,-0.63879 0.73695,-0.73693 0.61049,-0.17981 1.27297,-0.0702 1.90878,-0.0423 m 137.8806,17.4938 c 0,0 0,0 0,0 -0.13905,0.13639 -0.35892,0.22327 -0.41714,0.40912 -0.0368,0.1175 0.18976,0.19388 0.18966,0.31702 -1e-4,0.12372 -0.16084,0.19855 -0.19015,0.31876 -0.0106,0.0437 0.0424,0.1029 0.0873,0.10281 0.16271,-2.8e-4 0.33442,-0.0254 0.47695,-0.10382 0.12048,-0.0663 0.24495,-0.17447 0.2733,-0.30902 0.0336,-0.15967 -0.0265,-0.33588 -0.10751,-0.47754 m -146.658869,5.16443 c 0,0 0,0 0,0 0.464515,0.25305 0.966514,0.44702 1.393547,0.75921 0.368057,0.26905 0.807594,0.53983 0.967483,0.9668 0.556427,1.48584 0.646897,3.11221 1.126409,4.62463 0.11948,0.37683 0.50726,0.62235 0.65359,0.98957 0.0803,0.20141 0.0849,0.45099 -1e-5,0.65048 -0.10702,0.25146 -0.39621,0.38464 -0.53957,0.61731 -0.0576,0.0934 -0.0545,0.2175 -0.042,0.32651 0.18205,1.58828 0.49368,3.16186 0.62443,4.75518 0.0777,0.9466 0.0434,1.90055 -4.4e-4,2.84931 -0.008,0.1647 -0.0658,0.33035 -0.15283,0.47037 -0.0726,0.11679 -0.17162,0.27468 -0.30909,0.27307 -0.29052,-0.003 -0.698176,-0.0242 -0.823206,-0.28644 -0.571328,-1.19849 -0.653374,-2.5806 -1.133606,-3.81839 -0.22683,-0.58469 -0.607514,-1.10062 -0.972618,-1.6105 -0.148796,-0.20783 -0.323182,-0.42432 -0.557473,-0.5264 -0.198761,-0.0866 -0.448593,-0.0792 -0.650428,0 -0.184304,0.0723 -0.315804,0.25155 -0.420075,0.41983 -0.05778,0.0933 -0.04081,0.2167 -0.04228,0.32638 -0.01272,0.94983 -0.134048,1.90927 -2.59e-4,2.84967 0.06487,0.45597 0.463302,0.80771 0.583847,1.25217 0.04359,0.16074 -0.01646,0.35062 -0.112198,0.48688 -0.164261,0.23382 -0.348923,0.57477 -0.634667,0.57629 -0.283828,0.002 -0.425529,-0.37579 -0.632995,-0.56949 -0.08015,-0.0748 -0.191605,-0.13275 -0.229492,-0.23565 -0.2165,-0.58802 -0.448136,-1.18363 -0.522187,-1.80585 -0.101387,-0.85187 -0.115799,-1.72376 9.62e-4,-2.57367 0.05762,-0.4194 0.283584,-0.80585 0.512268,-1.16211 0.166221,-0.25894 0.409439,-0.46439 0.652725,-0.65283 0.256576,-0.19873 0.527527,-0.39752 0.835503,-0.49991 0.211334,-0.0702 0.456794,-0.0702 0.668144,0 0.30796,0.10242 0.581718,0.29761 0.835495,0.49991 0.328232,0.26169 0.565849,0.62634 0.89843,0.88244 0.06809,0.0524 0.248878,0.0933 0.257675,0.008 0.08717,-0.84604 0.145248,-1.7128 0.0044,-2.55155 -0.04234,-0.25207 -0.327415,-0.39718 -0.526542,-0.5574 -0.292526,-0.23535 -0.609017,-0.44302 -0.939141,-0.62189 -0.587127,-0.31808 -1.257072,-0.48623 -1.806602,-0.8656 -0.47052,-0.32483 -0.879601,-0.74933 -1.209335,-1.21643 -0.458886,-0.65008 -0.831406,-1.3649 -1.132668,-2.10141 -0.0832,-0.2034 -0.08839,-0.45962 0.0034,-0.6593 0.20478,-0.44519 0.507759,-0.84903 0.851165,-1.19861 0.258538,-0.26315 0.584755,-0.46448 0.924309,-0.6087 m 1.527794,1.07248 c 0,0 0,0 0,0 -0.145287,0.017 -0.300766,-0.005 -0.435883,0.0509 -0.269912,0.11194 -0.525917,0.26358 -0.756156,0.44351 -0.200669,0.1568 -0.394585,0.33685 -0.523468,0.55652 -0.05796,0.0987 -0.05138,0.23895 -0.0047,0.34351 0.228165,0.51055 0.512398,0.99603 0.813782,1.46707 0.08858,0.13846 0.217018,0.25012 0.348236,0.34909 0.299667,0.22604 0.607452,0.44549 0.93885,0.62179 0.375412,0.19971 0.748436,0.47641 1.17292,0.50159 0.150544,0.009 0.150979,-0.272 0.162033,-0.42242 0.03142,-0.42774 0.03973,-0.86411 -0.03652,-1.28617 -0.111405,-0.6166 -0.184517,-1.27795 -0.522133,-1.80581 m 8.084014,0.16021 c 0,0 0,0 0,0 0.81752,0.1828 1.67664,0.23267 2.45257,0.54843 0.15904,0.0647 0.17919,0.33741 0.12393,0.5 -0.0988,0.29078 -0.33406,0.51996 -0.54615,0.74213 -0.043,0.0451 -0.12475,0.0386 -0.18528,0.024 -0.32837,-0.0796 -0.63012,-0.28037 -0.96723,-0.3031 -0.95138,-0.0641 -1.91826,-0.10291 -2.86028,0.045 -0.14839,0.0233 -0.13824,0.27673 -0.14465,0.42679 -0.0272,0.63608 -0.0976,1.28888 0.0448,1.90939 0.0336,0.14639 0.27676,0.1373 0.42679,0.14462 0.84343,0.0413 1.6916,0.0679 2.53331,1.9e-4 0.23022,-0.0185 0.41748,-0.30121 0.64394,-0.2558 0.30144,0.0605 0.60606,0.26437 0.75095,0.53555 0.13239,0.2478 0.0769,0.57706 -0.0146,0.84268 -0.0644,0.18723 -0.25169,0.3158 -0.42001,0.42005 -0.0933,0.0578 -0.21669,0.0423 -0.32641,0.0423 -0.42521,7e-5 -0.85517,0.0257 -1.27494,-0.042 -0.22395,-0.0362 -0.4035,-0.22522 -0.62685,-0.26498 -0.21407,-0.0381 -0.44648,-0.0356 -0.6512,0.0376 -0.38037,0.13604 -0.83772,0.24331 -1.06596,0.57662 -0.18458,0.26954 -0.18458,0.71048 0,0.98002 0.22824,0.33334 0.67696,0.46768 1.06596,0.57666 0.31381,0.0879 0.65641,0.0507 0.97768,-0.004 0.12719,-0.0217 0.19298,-0.23764 0.32038,-0.2172 0.51891,0.0833 1.0105,0.29877 1.49248,0.50833 0.0901,0.0392 0.17051,0.1279 0.19157,0.22385 0.0464,0.21143 0.0793,0.44791 1.8e-4,0.64941 -0.0723,0.18427 -0.25132,0.3162 -0.41995,0.41993 -0.0926,0.057 -0.21595,0.0491 -0.32413,0.0377 -1.56599,-0.16394 -3.1351,-0.31485 -4.69001,-0.56275 -0.0911,-0.0145 -0.15363,-0.12378 -0.17653,-0.21313 -0.0531,-0.20706 -0.0772,-0.42899 -0.0421,-0.6398 0.0547,-0.32929 0.27125,-0.62128 0.30702,-0.95313 0.0678,-0.62918 0.0759,-1.27017 4.2e-4,-1.89847 -0.11294,-0.93978 -0.30418,-1.8728 -0.563,-2.78329 -0.0463,-0.16269 -0.28376,-0.21924 -0.33625,-0.38004 -0.0672,-0.20578 -0.0466,-0.43808 2.1e-4,-0.64941 0.0214,-0.0966 0.10204,-0.18756 0.19363,-0.22501 0.37583,-0.15359 0.77746,-0.23571 1.17163,-0.33303 0.73429,-0.18134 1.46565,-0.38422 2.21265,-0.50269 m 204.59909,0.4267 c 0,0 0,0 0,0 0.30112,0.29666 0.58023,0.61743 0.90332,0.89001 0.34741,0.29312 0.80933,0.45511 1.1026,0.80237 0.36075,0.42712 0.75684,0.91043 0.81372,1.46661 0.0647,0.63291 -0.2749,1.24466 -0.47467,1.84873 -0.1756,0.53094 -0.31897,1.09552 -0.64856,1.5473 -0.20187,0.2767 -0.56488,0.39291 -0.8742,0.53998 -0.10102,0.0481 -0.22504,0.0605 -0.33384,0.0344 -0.61682,-0.14792 -1.27533,-0.22842 -1.82138,-0.55121 -0.52032,-0.30758 -0.91494,-0.80233 -1.2814,-1.28299 -0.33929,-0.445 -0.57593,-0.9617 -0.81564,-1.46734 -0.0483,-0.10187 -0.039,-0.22318 -0.0391,-0.33588 -2.7e-4,-0.32281 -0.0399,-0.65439 0.038,-0.96765 0.10153,-0.40823 0.29681,-0.78949 0.49167,-1.16229 0.16235,-0.31061 0.35363,-0.60868 0.57571,-0.87985 0.18097,-0.22101 0.35379,-0.49659 0.62497,-0.58631 0.40369,-0.13357 0.85043,-0.0677 1.27487,-0.0423 m -14.49435,41.92063 c 0,0 0,0 0,0 0.57159,0.25659 1.20614,0.40393 1.71475,0.76983 0.64371,0.46314 1.16147,1.08356 1.68692,1.67749 0.23224,0.26246 0.41333,0.56922 0.57565,0.87977 0.19489,0.37286 0.44135,0.74469 0.4917,1.16229 0.11487,0.95294 0.20011,1.94177 -0.004,2.87958 -0.10932,0.50109 -0.56717,0.85742 -0.89655,1.25061 -0.27081,0.3233 -0.5729,0.62262 -0.89786,0.89148 -0.2807,0.2323 -1.25387,0.48297 -0.91049,0.60479 1.56644,0.55591 3.2938,0.46894 4.91895,0.81769 0.0783,0.0168 0.0481,0.16974 0.01,0.24005 -0.14849,0.27222 -0.26077,0.63861 -0.55007,0.75031 -0.456,0.17608 -0.98014,0.0806 -1.4661,0.0281 -1.83289,-0.19806 -3.66132,-0.45147 -5.47571,-0.77813 -0.51245,-0.0923 -1.0227,-0.24176 -1.48794,-0.47559 -0.19175,-0.0964 -0.38446,-0.27399 -0.42331,-0.48505 -0.0311,-0.16912 0.0889,-0.39349 0.25107,-0.45074 1.15179,-0.40668 2.42239,-0.43292 3.55401,-0.8927 0.50437,-0.20496 0.86255,-0.66962 1.2449,-1.05713 0.323,-0.32739 0.72053,-0.63989 0.86146,-1.07758 0.16464,-0.51141 0.0974,-1.08258 0.004,-1.61175 -0.0727,-0.41431 -0.30936,-0.78314 -0.49164,-1.16223 -0.11868,-0.24683 -0.23251,-0.50336 -0.4096,-0.71222 -0.37177,-0.43854 -0.71271,-0.95239 -1.22416,-1.21497 -0.84323,-0.43292 -1.80581,-0.5813 -2.72506,-0.8125 -0.21091,-0.053 -0.43634,-0.0691 -0.65137,-0.0367 -0.99881,0.15094 -1.99439,0.33618 -2.97354,0.58441 -0.58084,0.14728 -1.18851,0.27887 -1.69486,0.59931 -0.51342,0.32495 -0.91568,0.80951 -1.28891,1.289 -0.37506,0.48187 -0.70422,1.00934 -0.93887,1.57312 -0.37125,0.89203 -0.68649,1.81671 -0.86688,2.76593 -0.0998,0.52496 -0.0352,1.07312 0.0365,1.6026 0.21374,1.57757 0.47601,3.15057 0.81811,4.70538 0.13953,0.6341 0.38422,1.2417 0.62329,1.84534 0.16162,0.4082 0.37122,0.79608 0.57645,1.18414 0.14377,0.27191 0.27594,0.55542 0.4697,0.79425 0.26568,0.32752 0.57635,0.61835 0.89767,0.89142 0.39856,0.33875 0.80829,0.67041 1.25674,0.93964 0.36295,0.21783 0.75031,0.41394 1.16205,0.5122 0.32071,0.0766 0.66416,0.057 0.98914,10e-4 0.76398,-0.13104 1.51712,-0.32836 2.25738,-0.55816 0.49509,-0.15369 0.9776,-0.35333 1.43915,-0.58924 0.15659,-0.0801 0.22901,-0.29315 0.39585,-0.34875 0.20575,-0.0685 0.44873,-0.0792 0.6506,6e-5 0.18423,0.0723 0.31628,0.25116 0.4198,0.41986 0.0571,0.093 0.0627,0.21906 0.0375,0.32526 -0.0476,0.20056 -0.073,0.45862 -0.24888,0.5661 -0.9613,0.58716 -1.94995,1.21832 -3.05221,1.45038 -1.2518,0.26349 -2.595,0.30353 -3.83771,6e-5 -0.82736,-0.20209 -1.44424,-0.91126 -2.10324,-1.45081 -0.55753,-0.45648 -1.10467,-0.94494 -1.53165,-1.52533 -0.44217,-0.60101 -0.74783,-1.29504 -1.04638,-1.97882 -0.26905,-0.61621 -0.47434,-1.26043 -0.65128,-1.90912 -0.30386,-1.11419 -0.6785,-2.224 -0.78946,-3.37359 -0.15347,-1.59009 -0.18957,-3.20642 0.001,-4.79248 0.0904,-0.7511 0.50058,-1.43128 0.82947,-2.11261 0.36777,-0.7619 0.78494,-1.50269 1.25519,-2.206 0.17435,-0.26074 0.4205,-0.46936 0.66504,-0.66583 0.29876,-0.24011 0.60629,-0.48279 0.95688,-0.63769 0.9909,-0.43775 1.97433,-0.97767 3.04669,-1.13117"
             style="fill:#000000;fill-opacity:1;fill-rule:nonzero;stroke:none"
             id="path52" />
        </g>
      </g>
    </g>
  </g>
</svg>
