<?xml version="1.0" encoding="UTF-8" standalone="no"?>
<!-- Created with Inkscape (http://www.inkscape.org/) -->

<svg
   version="1.1"
   id="svg2"
   width="206.45467"
   height="154.72"
   viewBox="0 0 206.45467 154.72"
   sodipodi:docname="uwd.pdf"
   xmlns:inkscape="http://www.inkscape.org/namespaces/inkscape"
   xmlns:sodipodi="http://sodipodi.sourceforge.net/DTD/sodipodi-0.dtd"
   xmlns="http://www.w3.org/2000/svg"
   xmlns:svg="http://www.w3.org/2000/svg">
  <defs
     id="defs6" />
  <sodipodi:namedview
     id="namedview4"
     pagecolor="#ffffff"
     bordercolor="#000000"
     borderopacity="0.25"
     inkscape:showpageshadow="2"
     inkscape:pageopacity="0.0"
     inkscape:pagecheckerboard="0"
     inkscape:deskcolor="#d1d1d1" />
  <g
     id="g8"
     inkscape:groupmode="layer"
     inkscape:label="uwd"
     transform="matrix(1.3333333,0,0,-1.3333333,0,154.72)">
    <g
       id="g10"
       transform="translate(13.308,43.847)">
      <g
         id="g12">
        <g
           id="g14">
          <g
             id="g16">
            <path
               d="M 41.36975,45.35486 H 15.32387 c -2.20095,0 -3.98511,-1.78416 -3.98511,-3.98511 V 15.32387 c 0,-2.20095 1.78416,-3.98511 3.98511,-3.98511 h 26.04588 c 2.20095,0 3.98511,1.78416 3.98511,3.98511 v 26.04588 c 0,2.20095 -1.78416,3.98511 -3.98511,3.98511 z"
               style="fill:none;stroke:#000000;stroke-width:0.3985;stroke-linecap:butt;stroke-linejoin:miter;stroke-miterlimit:10;stroke-dasharray:none;stroke-opacity:1"
               id="path18" />
            <g
               id="g20"
               transform="translate(21.985,25.689)">
              <g
                 id="g22">
                <g
                   id="g24"
                   transform="translate(-35.293,-69.536)">
                  <text
                     xml:space="preserve"
                     transform="matrix(1,0,0,-1,35.293,69.536)"
                     style="font-variant:normal;font-weight:normal;font-size:9.96264px;font-family:CMMI10;-inkscape-font-specification:CMMI10;writing-mode:lr-tb;fill:#000000;fill-opacity:1;fill-rule:nonzero;stroke:none"
                     id="text28"><tspan
                       x="0"
                       y="0"
                       id="tspan26">X</tspan></text>
                  <text
                     xml:space="preserve"
                     transform="matrix(1,0,0,-1,43.547,68.042)"
                     style="font-variant:normal;font-weight:normal;font-size:6.97385px;font-family:CMR7;-inkscape-font-specification:CMR7;writing-mode:lr-tb;fill:#000000;fill-opacity:1;fill-rule:nonzero;stroke:none"
                     id="text32"><tspan
                       x="0"
                       y="0"
                       id="tspan30">1</tspan></text>
                  <g
                     id="g34"
                     transform="translate(35.293,69.536)" />
                </g>
              </g>
              <g
                 id="g36"
                 transform="translate(-21.985,-25.689)" />
            </g>
          </g>
          <g
             id="g38">
            <path
               d="M 98.06337,17.00804 H 72.01749 c -2.20095,0 -3.98511,-1.78416 -3.98511,-3.98511 v -26.04586 c 0,-2.20095 1.78416,-3.98511 3.98511,-3.98511 h 26.04588 c 2.20094,0 3.98511,1.78416 3.98511,3.98511 v 26.04586 c 0,2.20095 -1.78417,3.98511 -3.98511,3.98511 z"
               style="fill:none;stroke:#000000;stroke-width:0.3985;stroke-linecap:butt;stroke-linejoin:miter;stroke-miterlimit:10;stroke-dasharray:none;stroke-opacity:1"
               id="path40" />
            <g
               id="g42"
               transform="translate(78.678,-2.657)">
              <g
                 id="g44">
                <g
                   id="g46"
                   transform="translate(-91.986,-41.19)">
                  <text
                     xml:space="preserve"
                     transform="matrix(1,0,0,-1,91.986,41.19)"
                     style="font-variant:normal;font-weight:normal;font-size:9.96264px;font-family:CMMI10;-inkscape-font-specification:CMMI10;writing-mode:lr-tb;fill:#000000;fill-opacity:1;fill-rule:nonzero;stroke:none"
                     id="text50"><tspan
                       x="0"
                       y="0"
                       id="tspan48">X</tspan></text>
                  <text
                     xml:space="preserve"
                     transform="matrix(1,0,0,-1,100.24,39.696)"
                     style="font-variant:normal;font-weight:normal;font-size:6.97385px;font-family:CMR7;-inkscape-font-specification:CMR7;writing-mode:lr-tb;fill:#000000;fill-opacity:1;fill-rule:nonzero;stroke:none"
                     id="text54"><tspan
                       x="0"
                       y="0"
                       id="tspan52">2</tspan></text>
                  <g
                     id="g56"
                     transform="translate(91.986,41.19)" />
                </g>
              </g>
              <g
                 id="g58"
                 transform="translate(-78.678,2.657)" />
            </g>
          </g>
          <g
             id="g60">
            <path
               d="M 119.52272,66.8142 H -6.13548 c -2.20095,0 -3.98511,-1.78417 -3.98511,-3.98511 v -97.31137 c 0,-2.20095 1.78416,-3.98511 3.98511,-3.98511 h 125.6582 c 2.20094,0 3.98511,1.78416 3.98511,3.98511 v 97.31137 c 0,2.20094 -1.78417,3.98511 -3.98511,3.98511 z"
               style="fill:none;stroke:#000000;stroke-width:0.3985;stroke-linecap:butt;stroke-linejoin:miter;stroke-miterlimit:10;stroke-dasharray:none;stroke-opacity:1"
               id="path62" />
            <g
               id="g64"
               transform="translate(11.14,14.173)">
              <g
                 id="g66" />
              <g
                 id="g68"
                 transform="translate(-11.14,-14.173)" />
            </g>
          </g>
          <g
             id="g70">
            <g
               id="g72"
               transform="translate(127.226,10.769)">
              <g
                 id="g74">
                <g
                   id="g76"
                   transform="translate(-140.534,-54.616)">
                  <text
                     xml:space="preserve"
                     transform="matrix(1,0,0,-1,140.534,54.616)"
                     style="font-variant:normal;font-weight:normal;font-size:9.96264px;font-family:CMMI10;-inkscape-font-specification:CMMI10;writing-mode:lr-tb;fill:#000000;fill-opacity:1;fill-rule:nonzero;stroke:none"
                     id="text80"><tspan
                       x="0"
                       y="0"
                       id="tspan78">Y</tspan></text>
                  <g
                     id="g82"
                     transform="translate(140.534,54.616)" />
                </g>
              </g>
              <g
                 id="g84"
                 transform="translate(-127.226,-10.769)" />
            </g>
          </g>
          <g
             id="g86">
            <g
               id="g88">
              <path
                 d="m 47.54666,38.2819 c 0,1.10047 -0.89209,1.99256 -1.99255,1.99256 -1.10048,0 -1.99256,-0.89209 -1.99256,-1.99256 0,-1.10047 0.89208,-1.99255 1.99256,-1.99255 1.10046,0 1.99255,0.89208 1.99255,1.99255 z"
                 style="fill:#ffffff;fill-opacity:1;fill-rule:nonzero;stroke:#000000;stroke-width:0.3985;stroke-linecap:butt;stroke-linejoin:miter;stroke-miterlimit:10;stroke-dasharray:none;stroke-opacity:1"
                 id="path90" />
            </g>
            <g
               id="g92"
               transform="translate(45.554,38.281)">
              <g
                 id="g94" />
              <g
                 id="g96"
                 transform="translate(-45.554,-38.281)" />
            </g>
          </g>
          <g
             id="g98">
            <g
               id="g100">
              <path
                 d="m 30.33936,11.1395 c 0,1.10047 -0.89208,1.99255 -1.99256,1.99255 -1.10046,0 -1.99255,-0.89208 -1.99255,-1.99255 0,-1.10047 0.89209,-1.99256 1.99255,-1.99256 1.10048,0 1.99256,0.89209 1.99256,1.99256 z"
                 style="fill:#ffffff;fill-opacity:1;fill-rule:nonzero;stroke:#000000;stroke-width:0.3985;stroke-linecap:butt;stroke-linejoin:miter;stroke-miterlimit:10;stroke-dasharray:none;stroke-opacity:1"
                 id="path102" />
            </g>
            <g
               id="g104"
               transform="translate(28.347,11.139)">
              <g
                 id="g106" />
              <g
                 id="g108"
                 transform="translate(-28.347,-11.139)" />
            </g>
          </g>
          <g
             id="g110">
            <g
               id="g112">
              <path
                 d="m 24.07646,45.55411 c 0,1.10046 -0.89209,1.99255 -1.99255,1.99255 -1.10048,0 -1.99256,-0.89209 -1.99256,-1.99255 0,-1.10048 0.89208,-1.99256 1.99256,-1.99256 1.10046,0 1.99255,0.89208 1.99255,1.99256 z"
                 style="fill:#ffffff;fill-opacity:1;fill-rule:nonzero;stroke:#000000;stroke-width:0.3985;stroke-linecap:butt;stroke-linejoin:miter;stroke-miterlimit:10;stroke-dasharray:none;stroke-opacity:1"
                 id="path114" />
            </g>
            <g
               id="g116"
               transform="translate(22.084,45.553)">
              <g
                 id="g118" />
              <g
                 id="g120"
                 transform="translate(-22.084,-45.553)" />
            </g>
          </g>
          <g
             id="g122">
            <g
               id="g124">
              <path
                 d="m 13.13205,34.6097 c 0,1.10047 -0.89208,1.99255 -1.99255,1.99255 -1.10047,0 -1.99256,-0.89208 -1.99256,-1.99255 0,-1.10047 0.89209,-1.99256 1.99256,-1.99256 1.10047,0 1.99255,0.89209 1.99255,1.99256 z"
                 style="fill:#ffffff;fill-opacity:1;fill-rule:nonzero;stroke:#000000;stroke-width:0.3985;stroke-linecap:butt;stroke-linejoin:miter;stroke-miterlimit:10;stroke-dasharray:none;stroke-opacity:1"
                 id="path126" />
            </g>
            <g
               id="g128"
               transform="translate(11.14,34.609)">
              <g
                 id="g130" />
              <g
                 id="g132"
                 transform="translate(-11.14,-34.609)" />
            </g>
          </g>
          <g
             id="g134">
            <g
               id="g136">
              <path
                 d="m 80.77008,17.20729 c 0,1.10048 -0.89209,1.99255 -1.99255,1.99255 -1.10048,0 -1.99256,-0.89207 -1.99256,-1.99255 0,-1.10046 0.89208,-1.99255 1.99256,-1.99255 1.10046,0 1.99255,0.89209 1.99255,1.99255 z"
                 style="fill:#ffffff;fill-opacity:1;fill-rule:nonzero;stroke:#000000;stroke-width:0.3985;stroke-linecap:butt;stroke-linejoin:miter;stroke-miterlimit:10;stroke-dasharray:none;stroke-opacity:1"
                 id="path138" />
            </g>
            <g
               id="g140"
               transform="translate(78.777,17.207)">
              <g
                 id="g142" />
              <g
                 id="g144"
                 transform="translate(-78.777,-17.207)" />
            </g>
          </g>
          <g
             id="g146">
            <g
               id="g148">
              <path
                 d="m 69.82567,-3.03415 c 0,1.10046 -0.89207,1.99255 -1.99256,1.99255 -1.10046,0 -1.99255,-0.89209 -1.99255,-1.99255 0,-1.10048 0.89209,-1.99255 1.99255,-1.99255 1.10049,0 1.99256,0.89207 1.99256,1.99255 z"
                 style="fill:#ffffff;fill-opacity:1;fill-rule:nonzero;stroke:#000000;stroke-width:0.3985;stroke-linecap:butt;stroke-linejoin:miter;stroke-miterlimit:10;stroke-dasharray:none;stroke-opacity:1"
                 id="path150" />
            </g>
            <g
               id="g152"
               transform="translate(67.833,-3.034)">
              <g
                 id="g154" />
              <g
                 id="g156"
                 transform="translate(-67.833,3.034)" />
            </g>
          </g>
          <g
             id="g158">
            <g
               id="g160">
              <path
                 d="m 93.29587,17.20729 c 0,1.10048 -0.89207,1.99255 -1.99256,1.99255 -1.10046,0 -1.99255,-0.89207 -1.99255,-1.99255 0,-1.10046 0.89209,-1.99255 1.99255,-1.99255 1.10049,0 1.99256,0.89209 1.99256,1.99255 z"
                 style="fill:#ffffff;fill-opacity:1;fill-rule:nonzero;stroke:#000000;stroke-width:0.3985;stroke-linecap:butt;stroke-linejoin:miter;stroke-miterlimit:10;stroke-dasharray:none;stroke-opacity:1"
                 id="path162" />
            </g>
            <g
               id="g164"
               transform="translate(91.303,17.207)">
              <g
                 id="g166" />
              <g
                 id="g168"
                 transform="translate(-91.303,-17.207)" />
            </g>
          </g>
          <g
             id="g170">
            <g
               id="g172">
              <path
                 d="m 49.36885,-38.66666 c 0,1.10048 -0.89207,1.99256 -1.99255,1.99256 -1.10047,0 -1.99256,-0.89208 -1.99256,-1.99256 0,-1.10046 0.89209,-1.99255 1.99256,-1.99255 1.10048,0 1.99255,0.89209 1.99255,1.99255 z"
                 style="fill:#ffffff;fill-opacity:1;fill-rule:nonzero;stroke:#000000;stroke-width:0.3985;stroke-linecap:butt;stroke-linejoin:miter;stroke-miterlimit:10;stroke-dasharray:none;stroke-opacity:1"
                 id="path174" />
            </g>
            <g
               id="g176"
               transform="translate(47.376,-38.666)">
              <g
                 id="g178" />
              <g
                 id="g180"
                 transform="translate(-47.376,38.666)" />
            </g>
          </g>
          <g
             id="g182">
            <g
               id="g184">
              <path
                 d="m 68.00348,67.01344 c 0,1.10048 -0.89209,1.99256 -1.99255,1.99256 -1.10048,0 -1.99256,-0.89208 -1.99256,-1.99256 0,-1.10046 0.89208,-1.99255 1.99256,-1.99255 1.10046,0 1.99255,0.89209 1.99255,1.99255 z"
                 style="fill:#ffffff;fill-opacity:1;fill-rule:nonzero;stroke:#000000;stroke-width:0.3985;stroke-linecap:butt;stroke-linejoin:miter;stroke-miterlimit:10;stroke-dasharray:none;stroke-opacity:1"
                 id="path186" />
            </g>
            <g
               id="g188"
               transform="translate(66.011,67.012)">
              <g
                 id="g190" />
              <g
                 id="g192"
                 transform="translate(-66.011,-67.012)" />
            </g>
          </g>
          <path
             d="M 28.3468,8.9477 V -3.03415 h 37.29451"
             style="fill:none;stroke:#000000;stroke-width:0.3985;stroke-linecap:butt;stroke-linejoin:miter;stroke-miterlimit:10;stroke-dasharray:none;stroke-opacity:1"
             id="path194" />
          <g
             id="g196">
            <g
               id="g198">
              <path
                 d="m 30.33936,-3.03415 c 0,1.10046 -0.89208,1.99255 -1.99256,1.99255 -1.10046,0 -1.99255,-0.89209 -1.99255,-1.99255 0,-1.10048 0.89209,-1.99255 1.99255,-1.99255 1.10048,0 1.99256,0.89207 1.99256,1.99255 z"
                 style="fill:#000000;fill-opacity:1;fill-rule:nonzero;stroke:#000000;stroke-width:0.3985;stroke-linecap:butt;stroke-linejoin:miter;stroke-miterlimit:10;stroke-dasharray:none;stroke-opacity:1"
                 id="path200" />
            </g>
            <g
               id="g202"
               transform="translate(28.347,-3.034)">
              <g
                 id="g204" />
              <g
                 id="g206"
                 transform="translate(-28.347,3.034)" />
            </g>
          </g>
          <g
             id="g208" />
          <path
             d="M 28.3468,-5.22597 V -17.20782 H 47.3763 V -36.47484"
             style="fill:none;stroke:#000000;stroke-width:0.3985;stroke-linecap:butt;stroke-linejoin:miter;stroke-miterlimit:10;stroke-dasharray:none;stroke-opacity:1"
             id="path210" />
          <path
             d="M 91.30331,19.3991 V 38.2819 H 78.77753 47.74591"
             style="fill:none;stroke:#000000;stroke-width:0.3985;stroke-linecap:butt;stroke-linejoin:miter;stroke-miterlimit:10;stroke-dasharray:none;stroke-opacity:1"
             id="path212" />
          <g
             id="g214">
            <g
               id="g216">
              <path
                 d="m 80.77008,38.2819 c 0,1.10047 -0.89209,1.99256 -1.99255,1.99256 -1.10048,0 -1.99256,-0.89209 -1.99256,-1.99256 0,-1.10047 0.89208,-1.99255 1.99256,-1.99255 1.10046,0 1.99255,0.89208 1.99255,1.99255 z"
                 style="fill:#000000;fill-opacity:1;fill-rule:nonzero;stroke:#000000;stroke-width:0.3985;stroke-linecap:butt;stroke-linejoin:miter;stroke-miterlimit:10;stroke-dasharray:none;stroke-opacity:1"
                 id="path218" />
            </g>
            <g
               id="g220"
               transform="translate(78.777,38.281)">
              <g
                 id="g222" />
              <g
                 id="g224"
                 transform="translate(-78.777,-38.281)" />
            </g>
          </g>
          <g
             id="g226" />
          <path
             d="m 78.77753,19.3991 v 16.691 m 0,4.38361 v 12.56036 h -12.7666 v 11.78757"
             style="fill:none;stroke:#000000;stroke-width:0.3985;stroke-linecap:butt;stroke-linejoin:miter;stroke-miterlimit:10;stroke-dasharray:none;stroke-opacity:1"
             id="path228" />
          <g
             id="g230" />
          <g
             id="g232">
            <g
               id="g234">
              <path
                 d="m 4.92374,53.7624 c 0,1.10048 -0.89209,1.99256 -1.99256,1.99256 -1.10048,0 -1.99255,-0.89208 -1.99255,-1.99256 0,-1.10046 0.89207,-1.99255 1.99255,-1.99255 1.10047,0 1.99256,0.89209 1.99256,1.99255 z"
                 style="fill:#000000;fill-opacity:1;fill-rule:nonzero;stroke:#000000;stroke-width:0.3985;stroke-linecap:butt;stroke-linejoin:miter;stroke-miterlimit:10;stroke-dasharray:none;stroke-opacity:1"
                 id="path236" />
            </g>
            <g
               id="g238"
               transform="translate(2.932,53.761)">
              <g
                 id="g240" />
              <g
                 id="g242"
                 transform="translate(-2.932,-53.761)" />
            </g>
          </g>
          <path
             d="M 22.08391,47.74591 V 53.7624 H 5.12299 M 2.93118,51.5706 V 34.6097 H 8.9477"
             style="fill:none;stroke:#000000;stroke-width:0.3985;stroke-linecap:butt;stroke-linejoin:miter;stroke-miterlimit:10;stroke-dasharray:none;stroke-opacity:1"
             id="path244" />
        </g>
      </g>
    </g>
  </g>
</svg>
