<?xml version="1.0" encoding="UTF-8" standalone="no"?>
<!-- Created with Inkscape (http://www.inkscape.org/) -->

<svg
   version="1.1"
   id="svg2"
   width="225.03333"
   height="216.95866"
   viewBox="0 0 225.03333 216.95866"
   sodipodi:docname="uwd_fincospan_equiv.pdf"
   xmlns:inkscape="http://www.inkscape.org/namespaces/inkscape"
   xmlns:sodipodi="http://sodipodi.sourceforge.net/DTD/sodipodi-0.dtd"
   xmlns="http://www.w3.org/2000/svg"
   xmlns:svg="http://www.w3.org/2000/svg">
  <defs
     id="defs6" />
  <sodipodi:namedview
     id="namedview4"
     pagecolor="#ffffff"
     bordercolor="#000000"
     borderopacity="0.25"
     inkscape:showpageshadow="2"
     inkscape:pageopacity="0.0"
     inkscape:pagecheckerboard="0"
     inkscape:deskcolor="#d1d1d1" />
  <g
     id="g8"
     inkscape:groupmode="layer"
     inkscape:label="uwd_fincospan_equiv"
     transform="matrix(1.3333333,0,0,-1.3333333,0,216.95867)">
    <g
       id="g10"
       transform="translate(86.75,81.36)">
      <g
         id="g12">
        <g
           id="g14" />
        <g
           id="g16">
          <g
             id="g18">
            <path
               d="M -53.69463,4.46259 -3.29887,-39.6337"
               style="fill:none;stroke:#000000;stroke-width:0.3985;stroke-linecap:butt;stroke-linejoin:miter;stroke-miterlimit:10;stroke-dasharray:none;stroke-opacity:1"
               id="path20" />
            <g
               id="g22"
               transform="matrix(0.75255,-0.65848,0.65848,0.75255,-3.14893,-39.7649)">
              <g
                 id="g24">
                <path
                   d="M -2.07224,2.39104 C -1.69365,0.95639 -0.84999,0.27895 0,0 -0.84999,-0.27895 -1.69365,-0.95639 -2.07224,-2.39104"
                   style="fill:none;stroke:#000000;stroke-width:0.3985;stroke-linecap:round;stroke-linejoin:round;stroke-miterlimit:10;stroke-dasharray:none;stroke-opacity:1"
                   id="path26" />
              </g>
            </g>
          </g>
          <g
             id="g28">
            <path
               d="m -52.73933,-49.11266 48.38964,6.04879"
               style="fill:none;stroke:#000000;stroke-width:0.3985;stroke-linecap:butt;stroke-linejoin:miter;stroke-miterlimit:10;stroke-dasharray:none;stroke-opacity:1"
               id="path30" />
            <g
               id="g32"
               transform="matrix(0.99226,0.12402,-0.12402,0.99226,-4.15198,-43.03917)">
              <g
                 id="g34">
                <path
                   d="M -2.07224,2.39104 C -1.69365,0.95639 -0.84999,0.27895 0,0 -0.84999,-0.27895 -1.69365,-0.95639 -2.07224,-2.39104"
                   style="fill:none;stroke:#000000;stroke-width:0.3985;stroke-linecap:round;stroke-linejoin:round;stroke-miterlimit:10;stroke-dasharray:none;stroke-opacity:1"
                   id="path36" />
              </g>
            </g>
          </g>
          <g
             id="g38">
            <path
               d="m -53.12947,-69.08498 49.20895,24.60454"
               style="fill:none;stroke:#000000;stroke-width:0.3985;stroke-linecap:butt;stroke-linejoin:miter;stroke-miterlimit:10;stroke-dasharray:none;stroke-opacity:1"
               id="path40" />
            <g
               id="g42"
               transform="matrix(0.89436,0.44717,-0.44717,0.89436,-3.74234,-44.39134)">
              <g
                 id="g44">
                <path
                   d="M -2.07224,2.39104 C -1.69365,0.95639 -0.84999,0.27895 0,0 -0.84999,-0.27895 -1.69365,-0.95639 -2.07224,-2.39104"
                   style="fill:none;stroke:#000000;stroke-width:0.3985;stroke-linecap:round;stroke-linejoin:round;stroke-miterlimit:10;stroke-dasharray:none;stroke-opacity:1"
                   id="path46" />
              </g>
            </g>
          </g>
          <g
             id="g48">
            <path
               d="M 52.8275,-29.31322 4.2527,-41.45714"
               style="fill:none;stroke:#000000;stroke-width:0.3985;stroke-linecap:butt;stroke-linejoin:miter;stroke-miterlimit:10;stroke-dasharray:none;stroke-opacity:1"
               id="path50" />
            <g
               id="g52"
               transform="matrix(-0.97014,-0.24251,0.24251,-0.97014,4.05939,-41.50545)">
              <g
                 id="g54">
                <path
                   d="M -2.07224,2.39104 C -1.69365,0.95639 -0.84999,0.27895 0,0 -0.84999,-0.27895 -1.69365,-0.95639 -2.07224,-2.39104"
                   style="fill:none;stroke:#000000;stroke-width:0.3985;stroke-linecap:round;stroke-linejoin:round;stroke-miterlimit:10;stroke-dasharray:none;stroke-opacity:1"
                   id="path56" />
              </g>
            </g>
          </g>
          <g
             id="g58">
            <path
               d="M -53.12947,-26.56476 -3.92052,-1.96022"
               style="fill:none;stroke:#000000;stroke-width:0.3985;stroke-linecap:butt;stroke-linejoin:miter;stroke-miterlimit:10;stroke-dasharray:none;stroke-opacity:1"
               id="path60" />
            <g
               id="g62"
               transform="matrix(0.89436,0.44717,-0.44717,0.89436,-3.74234,-1.87112)">
              <g
                 id="g64">
                <path
                   d="M -2.07224,2.39104 C -1.69365,0.95639 -0.84999,0.27895 0,0 -0.84999,-0.27895 -1.69365,-0.95639 -2.07224,-2.39104"
                   style="fill:none;stroke:#000000;stroke-width:0.3985;stroke-linecap:round;stroke-linejoin:round;stroke-miterlimit:10;stroke-dasharray:none;stroke-opacity:1"
                   id="path66" />
              </g>
            </g>
          </g>
          <g
             id="g68">
            <path
               d="M -53.12947,26.56476 -3.92052,1.96022"
               style="fill:none;stroke:#000000;stroke-width:0.3985;stroke-linecap:butt;stroke-linejoin:miter;stroke-miterlimit:10;stroke-dasharray:none;stroke-opacity:1"
               id="path70" />
            <g
               id="g72"
               transform="matrix(0.89436,-0.44717,0.44717,0.89436,-3.74234,1.87112)">
              <g
                 id="g74">
                <path
                   d="M -2.07224,2.39104 C -1.69365,0.95639 -0.84999,0.27895 0,0 -0.84999,-0.27895 -1.69365,-0.95639 -2.07224,-2.39104"
                   style="fill:none;stroke:#000000;stroke-width:0.3985;stroke-linecap:round;stroke-linejoin:round;stroke-miterlimit:10;stroke-dasharray:none;stroke-opacity:1"
                   id="path76" />
              </g>
            </g>
          </g>
          <g
             id="g78">
            <path
               d="M 53.12947,26.56476 3.92052,1.96022"
               style="fill:none;stroke:#000000;stroke-width:0.3985;stroke-linecap:butt;stroke-linejoin:miter;stroke-miterlimit:10;stroke-dasharray:none;stroke-opacity:1"
               id="path80" />
            <g
               id="g82"
               transform="matrix(-0.89436,-0.44717,0.44717,-0.89436,3.74234,1.87112)">
              <g
                 id="g84">
                <path
                   d="M -2.07224,2.39104 C -1.69365,0.95639 -0.84999,0.27895 0,0 -0.84999,-0.27895 -1.69365,-0.95639 -2.07224,-2.39104"
                   style="fill:none;stroke:#000000;stroke-width:0.3985;stroke-linecap:round;stroke-linejoin:round;stroke-miterlimit:10;stroke-dasharray:none;stroke-opacity:1"
                   id="path86" />
              </g>
            </g>
          </g>
          <g
             id="g88">
            <path
               d="M -53.12947,69.08498 -3.92052,44.48044"
               style="fill:none;stroke:#000000;stroke-width:0.3985;stroke-linecap:butt;stroke-linejoin:miter;stroke-miterlimit:10;stroke-dasharray:none;stroke-opacity:1"
               id="path90" />
            <g
               id="g92"
               transform="matrix(0.89436,-0.44717,0.44717,0.89436,-3.74234,44.39134)">
              <g
                 id="g94">
                <path
                   d="M -2.07224,2.39104 C -1.69365,0.95639 -0.84999,0.27895 0,0 -0.84999,-0.27895 -1.69365,-0.95639 -2.07224,-2.39104"
                   style="fill:none;stroke:#000000;stroke-width:0.3985;stroke-linecap:round;stroke-linejoin:round;stroke-miterlimit:10;stroke-dasharray:none;stroke-opacity:1"
                   id="path96" />
              </g>
            </g>
          </g>
          <g
             id="g98">
            <path
               d="M -52.73933,49.11266 -4.34969,43.06387"
               style="fill:none;stroke:#000000;stroke-width:0.3985;stroke-linecap:butt;stroke-linejoin:miter;stroke-miterlimit:10;stroke-dasharray:none;stroke-opacity:1"
               id="path100" />
            <g
               id="g102"
               transform="matrix(0.99226,-0.12402,0.12402,0.99226,-4.15198,43.03917)">
              <g
                 id="g104">
                <path
                   d="M -2.07224,2.39104 C -1.69365,0.95639 -0.84999,0.27895 0,0 -0.84999,-0.27895 -1.69365,-0.95639 -2.07224,-2.39104"
                   style="fill:none;stroke:#000000;stroke-width:0.3985;stroke-linecap:round;stroke-linejoin:round;stroke-miterlimit:10;stroke-dasharray:none;stroke-opacity:1"
                   id="path106" />
              </g>
            </g>
          </g>
        </g>
        <g
           id="g108">
          <g
             id="g110">
            <g
               id="g112">
              <path
                 d="m 1.99255,42.5202 c 0,1.10047 -0.89209,1.99256 -1.99255,1.99256 -1.10046,0 -1.99255,-0.89209 -1.99255,-1.99256 0,-1.10048 0.89209,-1.99255 1.99255,-1.99255 1.10046,0 1.99255,0.89207 1.99255,1.99255 z"
                 style="fill:#000000;fill-opacity:1;fill-rule:nonzero;stroke:none"
                 id="path114" />
            </g>
            <g
               id="g116"
               transform="translate(0,42.519)">
              <g
                 id="g118" />
              <g
                 id="g120"
                 transform="translate(0,-42.519)" />
            </g>
          </g>
          <g
             id="g122">
            <g
               id="g124">
              <path
                 d="m 1.99255,-42.5202 c 0,1.10048 -0.89209,1.99255 -1.99255,1.99255 -1.10046,0 -1.99255,-0.89207 -1.99255,-1.99255 0,-1.10047 0.89209,-1.99256 1.99255,-1.99256 1.10046,0 1.99255,0.89209 1.99255,1.99256 z"
                 style="fill:#000000;fill-opacity:1;fill-rule:nonzero;stroke:none"
                 id="path126" />
            </g>
            <g
               id="g128"
               transform="translate(0,-42.52)">
              <g
                 id="g130" />
              <g
                 id="g132"
                 transform="translate(0,42.52)" />
            </g>
          </g>
          <g
             id="g134">
            <g
               id="g136">
              <path
                 d="M 1.99255,0 C 1.99255,1.10046 1.10046,1.99255 0,1.99255 -1.10046,1.99255 -1.99255,1.10046 -1.99255,0 c 0,-1.10046 0.89209,-1.99255 1.99255,-1.99255 1.10046,0 1.99255,0.89209 1.99255,1.99255 z"
                 style="fill:#000000;fill-opacity:1;fill-rule:nonzero;stroke:none"
                 id="path138" />
            </g>
            <g
               id="g140">
              <g
                 id="g142" />
            </g>
          </g>
          <g
             id="g144">
            <g
               id="g146">
              <path
                 d="m -54.70107,70.867 c 0,1.10048 -0.89207,1.99256 -1.99255,1.99256 -1.10046,0 -1.99255,-0.89208 -1.99255,-1.99256 0,-1.10046 0.89209,-1.99255 1.99255,-1.99255 1.10048,0 1.99255,0.89209 1.99255,1.99255 z"
                 style="fill:#000000;fill-opacity:1;fill-rule:nonzero;stroke:none"
                 id="path148" />
            </g>
            <g
               id="g150"
               transform="translate(-56.693,70.866)">
              <g
                 id="g152" />
              <g
                 id="g154"
                 transform="translate(56.693,-70.866)" />
            </g>
          </g>
          <g
             id="g156">
            <g
               id="g158">
              <path
                 d="m -54.70107,49.6069 c 0,1.10048 -0.89207,1.99256 -1.99255,1.99256 -1.10046,0 -1.99255,-0.89208 -1.99255,-1.99256 0,-1.10046 0.89209,-1.99255 1.99255,-1.99255 1.10048,0 1.99255,0.89209 1.99255,1.99255 z"
                 style="fill:#000000;fill-opacity:1;fill-rule:nonzero;stroke:none"
                 id="path160" />
            </g>
            <g
               id="g162"
               transform="translate(-56.693,49.606)">
              <g
                 id="g164" />
              <g
                 id="g166"
                 transform="translate(56.693,-49.606)" />
            </g>
          </g>
          <g
             id="g168">
            <g
               id="g170">
              <path
                 d="m -54.70107,28.3468 c 0,1.10048 -0.89207,1.99256 -1.99255,1.99256 -1.10046,0 -1.99255,-0.89208 -1.99255,-1.99256 0,-1.10046 0.89209,-1.99255 1.99255,-1.99255 1.10048,0 1.99255,0.89209 1.99255,1.99255 z"
                 style="fill:#000000;fill-opacity:1;fill-rule:nonzero;stroke:none"
                 id="path172" />
            </g>
            <g
               id="g174"
               transform="translate(-56.693,28.346)">
              <g
                 id="g176" />
              <g
                 id="g178"
                 transform="translate(56.693,-28.346)" />
            </g>
          </g>
          <g
             id="g180">
            <g
               id="g182">
              <path
                 d="m -54.70107,7.08669 c 0,1.10046 -0.89207,1.99255 -1.99255,1.99255 -1.10046,0 -1.99255,-0.89209 -1.99255,-1.99255 0,-1.10049 0.89209,-1.99256 1.99255,-1.99256 1.10048,0 1.99255,0.89207 1.99255,1.99256 z"
                 style="fill:#000000;fill-opacity:1;fill-rule:nonzero;stroke:none"
                 id="path184" />
            </g>
            <g
               id="g186"
               transform="translate(-56.693,7.086)">
              <g
                 id="g188" />
              <g
                 id="g190"
                 transform="translate(56.693,-7.086)" />
            </g>
          </g>
          <g
             id="g192">
            <g
               id="g194">
              <path
                 d="m -54.70107,-28.3468 c 0,1.10046 -0.89207,1.99255 -1.99255,1.99255 -1.10046,0 -1.99255,-0.89209 -1.99255,-1.99255 0,-1.10048 0.89209,-1.99256 1.99255,-1.99256 1.10048,0 1.99255,0.89208 1.99255,1.99256 z"
                 style="fill:#000000;fill-opacity:1;fill-rule:nonzero;stroke:none"
                 id="path196" />
            </g>
            <g
               id="g198"
               transform="translate(-56.693,-28.347)">
              <g
                 id="g200" />
              <g
                 id="g202"
                 transform="translate(56.693,28.347)" />
            </g>
          </g>
          <g
             id="g204">
            <g
               id="g206">
              <path
                 d="m -54.70107,-49.6069 c 0,1.10046 -0.89207,1.99255 -1.99255,1.99255 -1.10046,0 -1.99255,-0.89209 -1.99255,-1.99255 0,-1.10048 0.89209,-1.99256 1.99255,-1.99256 1.10048,0 1.99255,0.89208 1.99255,1.99256 z"
                 style="fill:#000000;fill-opacity:1;fill-rule:nonzero;stroke:none"
                 id="path208" />
            </g>
            <g
               id="g210"
               transform="translate(-56.693,-49.607)">
              <g
                 id="g212" />
              <g
                 id="g214"
                 transform="translate(56.693,49.607)" />
            </g>
          </g>
          <g
             id="g216">
            <g
               id="g218">
              <path
                 d="m -54.70107,-70.867 c 0,1.10046 -0.89207,1.99255 -1.99255,1.99255 -1.10046,0 -1.99255,-0.89209 -1.99255,-1.99255 0,-1.10048 0.89209,-1.99256 1.99255,-1.99256 1.10048,0 1.99255,0.89208 1.99255,1.99256 z"
                 style="fill:#000000;fill-opacity:1;fill-rule:nonzero;stroke:none"
                 id="path220" />
            </g>
            <g
               id="g222"
               transform="translate(-56.693,-70.866)">
              <g
                 id="g224" />
              <g
                 id="g226"
                 transform="translate(56.693,70.866)" />
            </g>
          </g>
          <g
             id="g228">
            <g
               id="g230">
              <path
                 d="m 58.68617,28.3468 c 0,1.10048 -0.89209,1.99256 -1.99255,1.99256 -1.10048,0 -1.99255,-0.89208 -1.99255,-1.99256 0,-1.10046 0.89207,-1.99255 1.99255,-1.99255 1.10046,0 1.99255,0.89209 1.99255,1.99255 z"
                 style="fill:#000000;fill-opacity:1;fill-rule:nonzero;stroke:none"
                 id="path232" />
            </g>
            <g
               id="g234"
               transform="translate(56.693,28.346)">
              <g
                 id="g236" />
              <g
                 id="g238"
                 transform="translate(-56.693,-28.346)" />
            </g>
          </g>
          <g
             id="g240">
            <g
               id="g242">
              <path
                 d="m 58.68617,-28.3468 c 0,1.10046 -0.89209,1.99255 -1.99255,1.99255 -1.10048,0 -1.99255,-0.89209 -1.99255,-1.99255 0,-1.10048 0.89207,-1.99256 1.99255,-1.99256 1.10046,0 1.99255,0.89208 1.99255,1.99256 z"
                 style="fill:#000000;fill-opacity:1;fill-rule:nonzero;stroke:none"
                 id="path244" />
            </g>
            <g
               id="g246"
               transform="translate(56.693,-28.347)">
              <g
                 id="g248" />
              <g
                 id="g250"
                 transform="translate(-56.693,28.347)" />
            </g>
          </g>
        </g>
        <g
           id="g252">
          <g
             id="g254">
            <g
               id="g256">
              <g
                 id="g258">
                <path
                   d="m -53.37305,78.17268 h -6.64113 c -2.20094,0 -3.9851,-1.78416 -3.9851,-3.9851 V 3.76611 c 0,-2.20094 1.78416,-3.98509 3.9851,-3.98509 h 6.64113 c 2.20095,0 3.98511,1.78415 3.98511,3.98509 v 70.42147 c 0,2.20094 -1.78416,3.9851 -3.98511,3.9851 z"
                   style="fill:none;stroke:#000000;stroke-width:0.3985;stroke-linecap:butt;stroke-linejoin:miter;stroke-miterlimit:10;stroke-dasharray:2.98883, 2.98883;stroke-dashoffset:0;stroke-opacity:1"
                   id="path260" />
              </g>
              <g
                 id="g262"
                 transform="translate(-60.678,38.976)">
                <g
                   id="g264" />
                <g
                   id="g266"
                   transform="translate(60.678,-38.976)" />
              </g>
            </g>
            <g
               id="g268">
              <g
                 id="g270" />
              <g
                 id="g272"
                 transform="translate(-80.441,36.319)">
                <g
                   id="g274">
                  <g
                     id="g276"
                     transform="translate(-6.309,-117.679)">
                    <text
                       xml:space="preserve"
                       transform="matrix(1,0,0,-1,6.309,117.679)"
                       style="font-variant:normal;font-weight:normal;font-size:9.96264px;font-family:CMMI10;-inkscape-font-specification:CMMI10;writing-mode:lr-tb;fill:#000000;fill-opacity:1;fill-rule:nonzero;stroke:none"
                       id="text280"><tspan
                         x="0"
                         y="0"
                         id="tspan278">X</tspan></text>
                    <text
                       xml:space="preserve"
                       transform="matrix(1,0,0,-1,14.563,116.185)"
                       style="font-variant:normal;font-weight:normal;font-size:6.97385px;font-family:CMR7;-inkscape-font-specification:CMR7;writing-mode:lr-tb;fill:#000000;fill-opacity:1;fill-rule:nonzero;stroke:none"
                       id="text284"><tspan
                         x="0"
                         y="0"
                         id="tspan282">1</tspan></text>
                    <g
                       id="g286"
                       transform="translate(6.309,117.679)" />
                  </g>
                </g>
                <g
                   id="g288"
                   transform="translate(80.441,-36.319)" />
              </g>
            </g>
            <g
               id="g290">
              <g
                 id="g292">
                <path
                   d="m -53.37305,-21.04112 h -6.64113 c -2.20094,0 -3.9851,-1.78417 -3.9851,-3.98511 v -49.16135 c 0,-2.20094 1.78416,-3.9851 3.9851,-3.9851 h 6.64113 c 2.20095,0 3.98511,1.78416 3.98511,3.9851 v 49.16135 c 0,2.20094 -1.78416,3.98511 -3.98511,3.98511 z"
                   style="fill:none;stroke:#000000;stroke-width:0.3985;stroke-linecap:butt;stroke-linejoin:miter;stroke-miterlimit:10;stroke-dasharray:2.98883, 2.98883;stroke-dashoffset:0;stroke-opacity:1"
                   id="path294" />
              </g>
              <g
                 id="g296"
                 transform="translate(-60.678,-49.607)">
                <g
                   id="g298" />
                <g
                   id="g300"
                   transform="translate(60.678,49.607)" />
              </g>
            </g>
            <g
               id="g302">
              <g
                 id="g304" />
              <g
                 id="g306"
                 transform="translate(-80.441,-52.263)">
                <g
                   id="g308">
                  <g
                     id="g310"
                     transform="translate(-6.309,-29.097)">
                    <text
                       xml:space="preserve"
                       transform="matrix(1,0,0,-1,6.309,29.097)"
                       style="font-variant:normal;font-weight:normal;font-size:9.96264px;font-family:CMMI10;-inkscape-font-specification:CMMI10;writing-mode:lr-tb;fill:#000000;fill-opacity:1;fill-rule:nonzero;stroke:none"
                       id="text314"><tspan
                         x="0"
                         y="0"
                         id="tspan312">X</tspan></text>
                    <text
                       xml:space="preserve"
                       transform="matrix(1,0,0,-1,14.563,27.602)"
                       style="font-variant:normal;font-weight:normal;font-size:6.97385px;font-family:CMR7;-inkscape-font-specification:CMR7;writing-mode:lr-tb;fill:#000000;fill-opacity:1;fill-rule:nonzero;stroke:none"
                       id="text318"><tspan
                         x="0"
                         y="0"
                         id="tspan316">2</tspan></text>
                    <g
                       id="g320"
                       transform="translate(6.309,29.097)" />
                  </g>
                </g>
                <g
                   id="g322"
                   transform="translate(80.441,52.263)" />
              </g>
            </g>
            <g
               id="g324">
              <g
                 id="g326">
                <path
                   d="m 3.32056,49.82588 h -6.64112 c -2.20094,0 -3.9851,-1.78416 -3.9851,-3.98511 v -91.68154 c 0,-2.20095 1.78416,-3.98511 3.9851,-3.98511 h 6.64112 c 2.20094,0 3.9851,1.78416 3.9851,3.98511 v 91.68154 c 0,2.20095 -1.78416,3.98511 -3.9851,3.98511 z"
                   style="fill:none;stroke:#000000;stroke-width:0.3985;stroke-linecap:butt;stroke-linejoin:miter;stroke-miterlimit:10;stroke-dasharray:2.98883, 2.98883;stroke-dashoffset:0;stroke-opacity:1"
                   id="path328" />
              </g>
              <g
                 id="g330"
                 transform="translate(-3.985)">
                <g
                   id="g332" />
                <g
                   id="g334"
                   transform="translate(3.985)" />
              </g>
            </g>
            <g
               id="g336">
              <g
                 id="g338" />
              <g
                 id="g340"
                 transform="translate(-3.241,-60.352)">
                <g
                   id="g342">
                  <g
                     id="g344"
                     transform="translate(-83.509,-21.008)">
                    <text
                       xml:space="preserve"
                       transform="matrix(1,0,0,-1,83.509,21.008)"
                       style="font-variant:normal;font-weight:normal;font-size:9.96264px;font-family:CMMI10;-inkscape-font-specification:CMMI10;writing-mode:lr-tb;fill:#000000;fill-opacity:1;fill-rule:nonzero;stroke:none"
                       id="text348"><tspan
                         x="0"
                         y="0"
                         id="tspan346">J</tspan></text>
                    <g
                       id="g350"
                       transform="translate(83.509,21.008)" />
                  </g>
                </g>
                <g
                   id="g352"
                   transform="translate(3.241,60.352)" />
              </g>
            </g>
            <g
               id="g354">
              <g
                 id="g356">
                <path
                   d="m 60.01418,35.65248 h -6.64113 c -2.20095,0 -3.98511,-1.78416 -3.98511,-3.98511 v -63.33474 c 0,-2.20095 1.78416,-3.98511 3.98511,-3.98511 h 6.64113 c 2.20094,0 3.9851,1.78416 3.9851,3.98511 v 63.33474 c 0,2.20095 -1.78416,3.98511 -3.9851,3.98511 z"
                   style="fill:none;stroke:#000000;stroke-width:0.3985;stroke-linecap:butt;stroke-linejoin:miter;stroke-miterlimit:10;stroke-dasharray:2.98883, 2.98883;stroke-dashoffset:0;stroke-opacity:1"
                   id="path358" />
              </g>
              <g
                 id="g360"
                 transform="translate(52.708)">
                <g
                   id="g362" />
                <g
                   id="g364"
                   transform="translate(-52.708)" />
              </g>
            </g>
            <g
               id="g366">
              <g
                 id="g368" />
              <g
                 id="g370"
                 transform="translate(67.717,-3.404)">
                <g
                   id="g372">
                  <g
                     id="g374"
                     transform="translate(-154.467,-77.956)">
                    <text
                       xml:space="preserve"
                       transform="matrix(1,0,0,-1,154.467,77.956)"
                       style="font-variant:normal;font-weight:normal;font-size:9.96264px;font-family:CMMI10;-inkscape-font-specification:CMMI10;writing-mode:lr-tb;fill:#000000;fill-opacity:1;fill-rule:nonzero;stroke:none"
                       id="text378"><tspan
                         x="0"
                         y="0"
                         id="tspan376">Y</tspan></text>
                    <g
                       id="g380"
                       transform="translate(154.467,77.956)" />
                  </g>
                </g>
                <g
                   id="g382"
                   transform="translate(-67.717,3.404)" />
              </g>
            </g>
          </g>
        </g>
      </g>
    </g>
  </g>
</svg>
