<?xml version="1.0" encoding="UTF-8" standalone="no"?>
<!DOCTYPE svg PUBLIC "-//W3C//DTD SVG 1.1//EN"
 "http://www.w3.org/Graphics/SVG/1.1/DTD/svg11.dtd">
<!-- Generated by graphviz version 7.0.2 (0)
 -->
<!-- Title: G Pages: 1 -->
<svg width="368pt" height="12pt"
 viewBox="0.00 0.00 368.00 11.60" xmlns="http://www.w3.org/2000/svg" xmlns:xlink="http://www.w3.org/1999/xlink">
<g id="graph0" class="graph" transform="scale(1 1) rotate(0) translate(4 7.6)">
<title>G</title>
<polygon fill="white" stroke="none" points="-4,4 -4,-7.6 364,-7.6 364,4 -4,4"/>
<!-- n1 -->
<g id="node1" class="node">
<title>n1</title>
<ellipse fill="black" stroke="black" cx="1.8" cy="-1.8" rx="1.8" ry="1.8"/>
</g>
<!-- n2 -->
<g id="node2" class="node">
<title>n2</title>
<ellipse fill="black" stroke="black" cx="41.4" cy="-1.8" rx="1.8" ry="1.8"/>
</g>
<!-- n1&#45;&gt;n2 -->
<g id="edge1" class="edge">
<title>n1&#45;&gt;n2</title>
<path fill="none" stroke="black" d="M4.05,-1.8C8.47,-1.8 23.55,-1.8 32.85,-1.8"/>
<polygon fill="black" stroke="black" points="32.59,-3.55 37.59,-1.8 32.59,-0.05 32.59,-3.55"/>
</g>
<!-- n3 -->
<g id="node3" class="node">
<title>n3</title>
<ellipse fill="black" stroke="black" cx="81" cy="-1.8" rx="1.8" ry="1.8"/>
</g>
<!-- n2&#45;&gt;n3 -->
<g id="edge2" class="edge">
<title>n2&#45;&gt;n3</title>
<path fill="none" stroke="black" d="M43.65,-1.8C48.07,-1.8 63.15,-1.8 72.45,-1.8"/>
<polygon fill="black" stroke="black" points="72.19,-3.55 77.19,-1.8 72.19,-0.05 72.19,-3.55"/>
</g>
<!-- n4 -->
<g id="node4" class="node">
<title>n4</title>
<ellipse fill="black" stroke="black" cx="120.6" cy="-1.8" rx="1.8" ry="1.8"/>
</g>
<!-- n3&#45;&gt;n4 -->
<g id="edge3" class="edge">
<title>n3&#45;&gt;n4</title>
<path fill="none" stroke="black" d="M83.25,-1.8C87.67,-1.8 102.75,-1.8 112.05,-1.8"/>
<polygon fill="black" stroke="black" points="111.79,-3.55 116.79,-1.8 111.79,-0.05 111.79,-3.55"/>
</g>
<!-- n5 -->
<g id="node5" class="node">
<title>n5</title>
<ellipse fill="black" stroke="black" cx="160.2" cy="-1.8" rx="1.8" ry="1.8"/>
</g>
<!-- n4&#45;&gt;n5 -->
<g id="edge4" class="edge">
<title>n4&#45;&gt;n5</title>
<path fill="none" stroke="black" d="M122.85,-1.8C127.27,-1.8 142.35,-1.8 151.65,-1.8"/>
<polygon fill="black" stroke="black" points="151.39,-3.55 156.39,-1.8 151.39,-0.05 151.39,-3.55"/>
</g>
<!-- n6 -->
<g id="node6" class="node">
<title>n6</title>
<ellipse fill="black" stroke="black" cx="199.8" cy="-1.8" rx="1.8" ry="1.8"/>
</g>
<!-- n5&#45;&gt;n6 -->
<g id="edge5" class="edge">
<title>n5&#45;&gt;n6</title>
<path fill="none" stroke="black" d="M162.45,-1.8C166.87,-1.8 181.95,-1.8 191.25,-1.8"/>
<polygon fill="black" stroke="black" points="190.99,-3.55 195.99,-1.8 190.99,-0.05 190.99,-3.55"/>
</g>
<!-- n7 -->
<g id="node7" class="node">
<title>n7</title>
<ellipse fill="black" stroke="black" cx="239.4" cy="-1.8" rx="1.8" ry="1.8"/>
</g>
<!-- n6&#45;&gt;n7 -->
<g id="edge6" class="edge">
<title>n6&#45;&gt;n7</title>
<path fill="none" stroke="black" d="M202.05,-1.8C206.47,-1.8 221.55,-1.8 230.85,-1.8"/>
<polygon fill="black" stroke="black" points="230.59,-3.55 235.59,-1.8 230.59,-0.05 230.59,-3.55"/>
</g>
<!-- n8 -->
<g id="node8" class="node">
<title>n8</title>
<ellipse fill="black" stroke="black" cx="279" cy="-1.8" rx="1.8" ry="1.8"/>
</g>
<!-- n7&#45;&gt;n8 -->
<g id="edge7" class="edge">
<title>n7&#45;&gt;n8</title>
<path fill="none" stroke="black" d="M241.65,-1.8C246.07,-1.8 261.15,-1.8 270.45,-1.8"/>
<polygon fill="black" stroke="black" points="270.19,-3.55 275.19,-1.8 270.19,-0.05 270.19,-3.55"/>
</g>
<!-- n9 -->
<g id="node9" class="node">
<title>n9</title>
<ellipse fill="black" stroke="black" cx="318.6" cy="-1.8" rx="1.8" ry="1.8"/>
</g>
<!-- n8&#45;&gt;n9 -->
<g id="edge8" class="edge">
<title>n8&#45;&gt;n9</title>
<path fill="none" stroke="black" d="M281.25,-1.8C285.67,-1.8 300.75,-1.8 310.05,-1.8"/>
<polygon fill="black" stroke="black" points="309.79,-3.55 314.79,-1.8 309.79,-0.05 309.79,-3.55"/>
</g>
<!-- n10 -->
<g id="node10" class="node">
<title>n10</title>
<ellipse fill="black" stroke="black" cx="358.2" cy="-1.8" rx="1.8" ry="1.8"/>
</g>
<!-- n9&#45;&gt;n10 -->
<g id="edge9" class="edge">
<title>n9&#45;&gt;n10</title>
<path fill="none" stroke="black" d="M320.85,-1.8C325.27,-1.8 340.35,-1.8 349.65,-1.8"/>
<polygon fill="black" stroke="black" points="349.39,-3.55 354.39,-1.8 349.39,-0.05 349.39,-3.55"/>
</g>
</g>
</svg>
